<svg width="61" height="60" viewBox="0 0 61 60" fill="none" xmlns="http://www.w3.org/2000/svg">
<path d="M30.5 60C47.0685 60 60.5 46.5685 60.5 30C60.5 13.4315 47.0685 0 30.5 0C13.9315 0 0.5 13.4315 0.5 30C0.5 46.5685 13.9315 60 30.5 60Z" fill="url(#paint0_linear_160_171)"/>
<path d="M30.5 60C47.0685 60 60.5 46.5685 60.5 30C60.5 13.4315 47.0685 0 30.5 0C13.9315 0 0.5 13.4315 0.5 30C0.5 46.5685 13.9315 60 30.5 60Z" fill="url(#paint1_radial_160_171)"/>
<path d="M18.1953 8.66525C15.7733 8.78291 13.7251 10.8804 13.645 13.3008C13.2961 24.4337 13.2961 35.5665 13.645 46.6993C13.7251 49.1197 15.7734 51.2171 18.1953 51.3349C20.8321 51.4576 23.4688 51.5409 26.1055 51.5847C25.959 37.195 25.959 22.8053 26.1055 8.41553C23.4688 8.45936 20.8321 8.54256 18.1953 8.66525Z" fill="url(#paint2_linear_160_171)"/>
<path d="M42.8047 8.66523C37.2383 8.40624 31.6719 8.32292 26.1055 8.41538C25.1354 8.43167 24.3369 9.25503 24.323 10.2462C24.1508 23.4154 24.1508 36.5844 24.323 49.7536C24.3368 50.7449 25.1353 51.5682 26.1055 51.5844C31.6719 51.6769 37.2383 51.5937 42.8047 51.3346C45.2266 51.2168 47.2749 49.1194 47.3551 46.699C47.7039 35.5662 47.7039 24.4334 47.3551 13.3006C47.2749 10.8805 45.2266 8.783 42.8047 8.66523Z" fill="url(#paint3_linear_160_171)"/>
<path d="M24.323 10.2463C22.264 10.29 20.205 10.3557 18.146 10.4432C16.6856 10.5068 15.4613 11.7562 15.419 13.2176C15.1068 24.406 15.1068 35.5942 15.419 46.7826C15.4611 48.2439 16.6856 49.4933 18.146 49.557C20.205 49.6445 22.264 49.7102 24.323 49.7539C26.8841 43.2255 29.5991 36.6047 32.3017 30C29.5991 23.3955 26.8841 16.7747 24.323 10.2463Z" fill="url(#paint4_linear_160_171)"/>
<path d="M42.8538 10.4431C36.6768 10.1806 30.5 10.1151 24.323 10.2462C24.1508 23.4154 24.1508 36.5845 24.323 49.7537C30.5 49.8849 36.6768 49.8193 42.8538 49.5568C44.3142 49.493 45.5386 48.2437 45.5809 46.7824C45.893 35.594 45.893 24.4058 45.5809 13.2174C45.5387 11.7562 44.3141 10.5067 42.8538 10.4431Z" fill="url(#paint5_linear_160_171)"/>
<path d="M26.9185 19.2012C23.6305 20.4225 20.33 21.6661 17.0235 22.9025C17.0144 23.7898 17.0069 24.6769 17.0012 25.5641C16.998 26.0532 17.3999 26.4478 17.8963 26.4442C19.9969 26.4282 22.0976 26.4164 24.1982 26.4084C25.1041 24.0107 26.0133 21.6068 26.9185 19.2012Z" fill="url(#paint6_linear_160_171)"/>
<path d="M24.2463 17.4294C24.2213 20.4224 24.2054 23.4154 24.1982 26.4083C30.5001 26.3844 36.802 26.3964 43.1039 26.4441C43.6011 26.4477 44.0021 26.0537 43.9989 25.564C43.9932 24.6768 43.9858 23.7897 43.9767 22.9025C37.3699 21.0211 30.783 19.1378 24.2463 17.4294Z" fill="url(#paint7_linear_160_171)"/>
<path d="M18.1013 12.2211C17.6124 12.24 17.2055 12.6538 17.1934 13.1436C17.1137 16.3966 17.057 19.6496 17.0234 22.9026C19.4193 22.8636 21.8151 22.8351 24.2109 22.8169C25.4173 21.012 26.6221 19.203 27.8198 17.3955C26.635 15.6017 25.4601 13.8153 24.3007 12.0422C22.2342 12.0818 20.1678 12.1415 18.1013 12.2211Z" fill="url(#paint8_linear_160_171)"/>
<path d="M27.8432 11.9934C26.6624 12.0031 25.4815 12.0194 24.3007 12.0422C24.2579 15.6337 24.228 19.2254 24.2109 22.817C29.0026 22.7806 33.7943 22.7858 38.586 22.8325C34.9703 19.2136 31.3673 15.5655 27.8432 11.9934Z" fill="url(#paint9_linear_160_171)"/>
<path d="M42.8986 12.2211C37.8801 12.0279 32.8616 11.952 27.8431 11.9934C27.7984 17.9548 32.6234 22.7757 38.5859 22.8324C40.3827 22.85 42.1797 22.8733 43.9765 22.9025C43.943 19.6495 43.8863 16.3964 43.8066 13.1434C43.7945 12.6537 43.3877 12.24 42.8986 12.2211Z" fill="url(#paint10_linear_160_171)"/>
<path d="M17.8898 28.222C17.3924 28.2241 16.9881 28.623 16.9874 29.1128C16.9859 30.2957 16.9874 31.4786 16.992 32.6616C16.9938 33.1513 17.3991 33.5518 17.8962 33.5558C18.4964 33.5604 19.0965 33.5646 19.6968 33.5685C19.6895 31.7843 19.6876 30 19.6913 28.2158C19.0908 28.2176 18.4903 28.2197 17.8898 28.222Z" fill="url(#paint11_linear_160_171)"/>
<path d="M21.4927 28.2105C20.8922 28.2121 20.2918 28.2139 19.6913 28.2158C19.1939 28.2176 18.7896 28.6178 18.7891 29.1095C18.7878 30.297 18.7891 31.4844 18.793 32.6719C18.7947 33.1635 19.1997 33.5652 19.6968 33.5686C20.297 33.5725 20.8971 33.5761 21.4974 33.5793C21.9946 33.582 22.3963 33.183 22.3953 32.688C22.3926 31.4933 22.3916 30.2987 22.3926 29.1041C22.3928 28.6092 21.9901 28.2089 21.4927 28.2105Z" fill="url(#paint12_linear_160_171)"/>
<path d="M25.0956 28.2025C24.5982 28.2035 24.1943 28.6062 24.1941 29.1021C24.1934 30.2993 24.1941 31.4964 24.1962 32.6936C24.1972 33.1895 24.6012 33.593 25.0983 33.5947C25.6986 33.5966 26.2987 33.5982 26.8989 33.5996C26.8965 31.7998 26.8959 30 26.897 28.2002C26.2966 28.2008 25.6961 28.2016 25.0956 28.2025Z" fill="url(#paint13_linear_160_171)"/>
<path d="M28.6985 28.1987C28.098 28.1991 27.4975 28.1996 26.8971 28.2001C26.3996 28.2007 25.996 28.604 25.9958 29.1006C25.9953 30.2998 25.9958 31.4988 25.9973 32.698C25.998 33.1947 26.4017 33.5984 26.8989 33.5996C27.4992 33.6008 28.0993 33.6018 28.6995 33.6025C29.1966 33.6031 29.5996 33.1999 29.5995 32.7024C29.5992 31.5013 29.5992 30.3001 29.5992 29.0991C29.5991 28.6016 29.1958 28.1985 28.6985 28.1987Z" fill="url(#paint14_linear_160_171)"/>
<path d="M32.3013 28.1987C31.804 28.1985 31.4007 28.6016 31.4007 29.0992C31.4009 30.3003 31.4007 31.5014 31.4004 32.7025C31.4003 33.1999 31.8033 33.6032 32.3004 33.6026C32.9006 33.6019 33.5007 33.601 34.101 33.5997C34.1034 31.7999 34.104 30 34.1029 28.2003C33.5024 28.1996 32.9018 28.1991 32.3013 28.1987Z" fill="url(#paint15_linear_160_171)"/>
<path d="M35.9044 28.2027C35.3039 28.2017 34.7034 28.2009 34.103 28.2002C33.6055 28.1997 33.2025 28.6024 33.2026 29.0997C33.203 30.3002 33.2026 31.5007 33.2017 32.701C33.2013 33.1982 33.604 33.6008 34.1011 33.5996C34.7013 33.5983 35.3014 33.5967 35.9017 33.5947C36.3989 33.593 36.8028 33.1893 36.8038 32.6936C36.8059 31.4964 36.8066 30.2993 36.8059 29.1021C36.8055 28.6064 36.4018 28.2036 35.9044 28.2027Z" fill="url(#paint16_linear_160_171)"/>
<path d="M17.907 35.3336C17.4101 35.328 17.0104 35.7204 17.0149 36.2101C17.0256 37.393 17.0393 38.5759 17.0562 39.7589C17.0632 40.2486 17.4703 40.6557 17.9647 40.6672C18.5617 40.6808 19.1586 40.6935 19.7555 40.7052C19.7336 38.921 19.717 37.1367 19.706 35.3525C19.1063 35.3467 18.5066 35.3405 17.907 35.3336Z" fill="url(#paint17_linear_160_171)"/>
<path d="M21.5049 35.3689C20.9053 35.364 20.3056 35.3587 19.7059 35.3528C19.209 35.3481 18.8089 35.7426 18.8128 36.2343C18.822 37.4218 18.834 38.6092 18.8485 39.7967C18.8546 40.2884 19.2609 40.6958 19.7553 40.7055C20.3523 40.7172 20.9492 40.7279 21.5461 40.7376C22.0405 40.7458 22.4376 40.3504 22.4335 39.8555C22.4234 38.6609 22.4152 37.4663 22.4088 36.2717C22.4063 35.7768 22.0018 35.3727 21.5049 35.3689Z" fill="url(#paint18_linear_160_171)"/>
<path d="M25.1028 35.3921C24.6059 35.3898 24.2047 35.7894 24.2068 36.2853C24.2118 37.4825 24.2182 38.6797 24.226 39.8769C24.2294 40.3727 24.6331 40.7794 25.1275 40.7842C25.7245 40.7901 26.3214 40.7949 26.9183 40.7989C26.911 38.9991 26.9055 37.1992 26.9018 35.3995C26.3022 35.3975 25.7026 35.395 25.1028 35.3921Z" fill="url(#paint19_linear_160_171)"/>
<path d="M28.701 35.4038C28.1014 35.4028 27.5017 35.4013 26.902 35.3994C26.4051 35.3979 26.0034 35.7989 26.0049 36.2954C26.0084 37.4946 26.013 38.6937 26.0186 39.8929C26.0209 40.3894 26.4239 40.7956 26.9184 40.7988C27.5153 40.8027 28.1123 40.8056 28.7091 40.8076C29.2035 40.8093 29.6039 40.4065 29.6036 39.909C29.6025 38.708 29.6016 37.5068 29.6009 36.3057C29.6008 35.8081 29.1979 35.4045 28.701 35.4038Z" fill="url(#paint20_linear_160_171)"/>
<path d="M32.2992 35.4039C31.8023 35.4047 31.3994 35.8083 31.3992 36.3057C31.3985 37.5068 31.3975 38.7079 31.3965 39.909C31.3961 40.4065 31.7966 40.8093 32.291 40.8076C32.8879 40.8056 33.4849 40.8027 34.0817 40.7988C34.0891 38.9991 34.0945 37.1992 34.0982 35.3994C33.4985 35.4014 32.8988 35.4028 32.2992 35.4039Z" fill="url(#paint21_linear_160_171)"/>
<path d="M35.8972 35.3921C35.2975 35.395 34.6979 35.3975 34.0981 35.3994C33.6014 35.4009 33.1979 35.805 33.1972 36.3023C33.1951 37.5028 33.1922 38.7031 33.189 39.9036C33.1877 40.4009 33.5874 40.8022 34.0817 40.7988C34.6787 40.7949 35.2756 40.79 35.8724 40.7841C36.3669 40.7792 36.7706 40.3726 36.774 39.8767C36.7818 38.6796 36.7883 37.4824 36.7932 36.2852C36.7953 35.7895 36.3939 35.3899 35.8972 35.3921Z" fill="url(#paint22_linear_160_171)"/>
<path d="M17.9924 42.4454C17.499 42.4324 17.106 42.818 17.1157 43.3079C17.1385 44.4908 17.1645 45.6737 17.1935 46.8567C17.2057 47.3464 17.6124 47.7602 18.1014 47.7792C18.6918 47.8019 19.2822 47.823 19.8727 47.8425C19.8362 46.0583 19.805 44.274 19.7793 42.4898C19.1837 42.4761 18.5881 42.4613 17.9924 42.4454Z" fill="url(#paint23_linear_160_171)"/>
<path d="M21.5661 42.527C20.9704 42.5156 20.3748 42.5031 19.7793 42.4895C19.2858 42.4784 18.892 42.8671 18.9003 43.3588C18.9201 44.5462 18.9426 45.7337 18.9678 46.9212C18.9783 47.4128 19.3837 47.826 19.8727 47.8421C20.4631 47.8616 21.0536 47.8794 21.644 47.8957C22.1329 47.9092 22.5232 47.5179 22.5162 47.0229C22.4989 45.8283 22.4833 44.6337 22.4696 43.4391C22.4638 42.9442 22.0597 42.5364 21.5661 42.527Z" fill="url(#paint24_linear_160_171)"/>
<path d="M25.1396 42.5816C24.6462 42.5761 24.2494 42.9725 24.2539 43.4685C24.2646 44.6657 24.2767 45.8629 24.2903 47.06C24.296 47.5559 24.6974 47.9657 25.1863 47.9737C25.7767 47.9835 26.3671 47.9916 26.9576 47.9981C26.9454 46.1984 26.935 44.3985 26.9264 42.5987C26.3309 42.5941 25.7352 42.5885 25.1396 42.5816Z" fill="url(#paint25_linear_160_171)"/>
<path d="M28.7132 42.6089C28.1176 42.6066 27.522 42.6031 26.9264 42.5987C26.4328 42.5949 26.0353 42.9937 26.0386 43.4903C26.0462 44.6895 26.0549 45.8886 26.0645 47.0878C26.0686 47.5844 26.4687 47.9927 26.9576 47.9981C27.548 48.0045 28.1385 48.0094 28.7289 48.0127C29.2178 48.0155 29.6138 47.613 29.613 47.1155C29.6112 45.9145 29.6094 44.7134 29.6079 43.5123C29.6072 43.0147 29.2066 42.6107 28.7132 42.6089Z" fill="url(#paint26_linear_160_171)"/>
<path d="M32.2869 42.6088C31.7934 42.6107 31.3928 43.0146 31.3924 43.5122C31.3908 44.7133 31.3891 45.9145 31.3872 47.1155C31.3865 47.613 31.7824 48.0154 32.2714 48.0127C32.8618 48.0094 33.4523 48.0046 34.0427 47.998C34.0549 46.1983 34.0653 44.3984 34.0738 42.5986C33.4781 42.6032 32.8825 42.6066 32.2869 42.6088Z" fill="url(#paint27_linear_160_171)"/>
<path d="M35.8605 42.5816C35.2648 42.5884 34.6692 42.5941 34.0737 42.5986C33.5802 42.6023 33.1787 43.0076 33.177 43.5049C33.1724 44.7054 33.1672 45.9059 33.1614 47.1062C33.1592 47.6036 33.5536 48.0034 34.0425 47.998C34.6329 47.9916 35.2233 47.9834 35.8138 47.9736C36.3027 47.9655 36.7041 47.5557 36.7098 47.0599C36.7233 45.8627 36.7355 44.6655 36.7462 43.4684C36.7507 42.9727 36.3539 42.5761 35.8605 42.5816Z" fill="url(#paint28_linear_160_171)"/>
<path d="M39.5073 28.2105C39.01 28.2089 38.6072 28.6091 38.6077 29.1041C38.6086 30.2987 38.6077 31.4933 38.605 32.688C38.6038 33.1828 39.0056 33.5821 39.5029 33.5793C40.103 33.576 40.7032 33.5725 41.3035 33.5686C41.3108 31.7844 41.3126 30.0001 41.309 28.216C40.7083 28.2139 40.1078 28.2121 39.5073 28.2105Z" fill="url(#paint29_linear_160_171)"/>
<path d="M43.1102 28.2222C42.5098 28.2199 41.9093 28.2178 41.3088 28.2158C40.8114 28.2141 40.4088 28.6129 40.4094 29.1066C40.4106 30.2979 40.4094 31.4892 40.406 32.6807C40.4047 33.1743 40.8062 33.572 41.3033 33.5686C41.9034 33.5647 42.5037 33.5605 43.1039 33.5559C43.6011 33.552 44.0062 33.1515 44.0081 32.6617C44.0127 31.4788 44.0142 30.2959 44.0127 29.1129C44.012 28.6231 43.6076 28.2243 43.1102 28.2222Z" fill="url(#paint30_linear_160_171)"/>
<path d="M39.4951 35.3688C38.9982 35.3727 38.5938 35.7768 38.5911 36.2718C38.5719 39.8556 38.5361 43.4393 38.484 47.0231C38.4769 47.518 38.8672 47.9095 39.3562 47.8959C39.9466 47.8798 40.537 47.8618 41.1275 47.8424C41.2129 43.6792 41.2685 39.516 41.2941 35.3528C40.6944 35.3585 40.0947 35.3639 39.4951 35.3688Z" fill="url(#paint31_linear_160_171)"/>
<path d="M43.0931 35.3336C42.4934 35.3403 41.8938 35.3467 41.294 35.3525C40.7971 35.3573 40.3923 35.7608 40.3891 36.2544C40.3655 39.8285 40.3219 43.4025 40.2582 46.9766C40.2495 47.4702 40.6384 47.8584 41.1275 47.8421C41.7179 47.8227 42.3083 47.8016 42.8988 47.7789C43.3878 47.7599 43.7946 47.3461 43.8068 46.8564C43.8937 43.3077 43.9532 39.7589 43.9852 36.2101C43.9896 35.7204 43.59 35.3282 43.0931 35.3336Z" fill="url(#paint32_linear_160_171)"/>
<defs>
<linearGradient id="paint0_linear_160_171" x1="9.28672" y1="51.2132" x2="51.7132" y2="8.78672" gradientUnits="userSpaceOnUse">
<stop stop-color="#008A4C"/>
<stop offset="1" stop-color="#D3FF33"/>
</linearGradient>
<radialGradient id="paint1_radial_160_171" cx="0" cy="0" r="1" gradientUnits="userSpaceOnUse" gradientTransform="translate(30.5 30) scale(30)">
<stop stop-color="#008A4C" stop-opacity="0.8"/>
<stop offset="1" stop-color="#D3FF33" stop-opacity="0"/>
</radialGradient>
<linearGradient id="paint2_linear_160_171" x1="-1.13122" y1="52.5569" x2="71.4685" y2="-20.0429" gradientUnits="userSpaceOnUse">
<stop stop-color="#DDFF59"/>
<stop offset="1" stop-color="white"/>
</linearGradient>
<linearGradient id="paint3_linear_160_171" x1="-68.587" y1="133.417" x2="50.3638" y2="14.4661" gradientUnits="userSpaceOnUse">
<stop stop-color="#DDFF59"/>
<stop offset="1" stop-color="white"/>
</linearGradient>
<linearGradient id="paint4_linear_160_171" x1="6.85114" y1="43.9658" x2="69.1149" y2="-18.2981" gradientUnits="userSpaceOnUse">
<stop stop-color="#95E12E"/>
<stop offset="1" stop-color="#DDFF59"/>
</linearGradient>
<linearGradient id="paint5_linear_160_171" x1="-0.749453" y1="64.7557" x2="58.3489" y2="5.65741" gradientUnits="userSpaceOnUse">
<stop stop-color="#95E12E"/>
<stop offset="1" stop-color="#DDFF59"/>
</linearGradient>
<linearGradient id="paint6_linear_160_171" x1="-67.973" y1="113.239" x2="85.1178" y2="-39.8516" gradientUnits="userSpaceOnUse">
<stop stop-color="#006946"/>
<stop offset="0.2513" stop-color="#008547"/>
<stop offset="0.3421" stop-color="#128F45"/>
<stop offset="0.5244" stop-color="#41AA41"/>
<stop offset="0.7788" stop-color="#8CD63A"/>
<stop offset="1" stop-color="#D3FF33"/>
</linearGradient>
<linearGradient id="paint7_linear_160_171" x1="-10.4054" y1="66.2075" x2="46.7592" y2="9.04292" gradientUnits="userSpaceOnUse">
<stop stop-color="#006946"/>
<stop offset="0.2513" stop-color="#008547"/>
<stop offset="0.3421" stop-color="#128F45"/>
<stop offset="0.5244" stop-color="#41AA41"/>
<stop offset="0.7788" stop-color="#8CD63A"/>
<stop offset="1" stop-color="#D3FF33"/>
</linearGradient>
<linearGradient id="paint8_linear_160_171" x1="3.99676" y1="34.5044" x2="64.4026" y2="-25.9014" gradientUnits="userSpaceOnUse">
<stop stop-color="#006946"/>
<stop offset="0.2513" stop-color="#008547"/>
<stop offset="0.3421" stop-color="#128F45"/>
<stop offset="0.5244" stop-color="#41AA41"/>
<stop offset="0.7788" stop-color="#8CD63A"/>
<stop offset="1" stop-color="#D3FF33"/>
</linearGradient>
<linearGradient id="paint9_linear_160_171" x1="1.04472" y1="47.8358" x2="65.8992" y2="-17.0187" gradientUnits="userSpaceOnUse">
<stop stop-color="#006946"/>
<stop offset="0.2513" stop-color="#008547"/>
<stop offset="0.3411" stop-color="#128F45"/>
<stop offset="0.5215" stop-color="#41AA41"/>
<stop offset="0.7732" stop-color="#8CD63A"/>
<stop offset="0.992" stop-color="#D3FF33"/>
</linearGradient>
<linearGradient id="paint10_linear_160_171" x1="2.82894" y1="50.5288" x2="60.7952" y2="-7.43726" gradientUnits="userSpaceOnUse">
<stop stop-color="#006946"/>
<stop offset="0.2513" stop-color="#008547"/>
<stop offset="0.3411" stop-color="#128F45"/>
<stop offset="0.5215" stop-color="#41AA41"/>
<stop offset="0.7732" stop-color="#8CD63A"/>
<stop offset="0.992" stop-color="#D3FF33"/>
</linearGradient>
<linearGradient id="paint11_linear_160_171" x1="3.00059" y1="46.5003" x2="29.3882" y2="20.1129" gradientUnits="userSpaceOnUse">
<stop stop-color="#DDFF59"/>
<stop offset="1" stop-color="white"/>
</linearGradient>
<linearGradient id="paint12_linear_160_171" x1="-21.6144" y1="73.1073" x2="23.7527" y2="27.7404" gradientUnits="userSpaceOnUse">
<stop stop-color="#DDFF59"/>
<stop offset="1" stop-color="white"/>
</linearGradient>
<linearGradient id="paint13_linear_160_171" x1="10.0835" y1="46.6284" x2="36.672" y2="20.0399" gradientUnits="userSpaceOnUse">
<stop stop-color="#DDFF59"/>
<stop offset="1" stop-color="white"/>
</linearGradient>
<linearGradient id="paint14_linear_160_171" x1="-14.6472" y1="73.347" x2="30.9699" y2="27.7299" gradientUnits="userSpaceOnUse">
<stop stop-color="#DDFF59"/>
<stop offset="1" stop-color="white"/>
</linearGradient>
<linearGradient id="paint15_linear_160_171" x1="17.2576" y1="46.6561" x2="43.8909" y2="20.0229" gradientUnits="userSpaceOnUse">
<stop stop-color="#DDFF59"/>
<stop offset="1" stop-color="white"/>
</linearGradient>
<linearGradient id="paint16_linear_160_171" x1="-7.45421" y1="73.3531" x2="38.1705" y2="27.7284" gradientUnits="userSpaceOnUse">
<stop stop-color="#DDFF59"/>
<stop offset="1" stop-color="white"/>
</linearGradient>
<linearGradient id="paint17_linear_160_171" x1="3.22794" y1="53.432" x2="29.3002" y2="27.3598" gradientUnits="userSpaceOnUse">
<stop stop-color="#DDFF59"/>
<stop offset="1" stop-color="white"/>
</linearGradient>
<linearGradient id="paint18_linear_160_171" x1="-21.1359" y1="79.8063" x2="23.7531" y2="34.9175" gradientUnits="userSpaceOnUse">
<stop stop-color="#DDFF59"/>
<stop offset="1" stop-color="white"/>
</linearGradient>
<linearGradient id="paint19_linear_160_171" x1="10.1845" y1="53.7339" x2="36.6297" y2="27.2887" gradientUnits="userSpaceOnUse">
<stop stop-color="#DDFF59"/>
<stop offset="1" stop-color="white"/>
</linearGradient>
<linearGradient id="paint20_linear_160_171" x1="-14.4759" y1="80.3833" x2="30.9672" y2="34.9402" gradientUnits="userSpaceOnUse">
<stop stop-color="#DDFF59"/>
<stop offset="1" stop-color="white"/>
</linearGradient>
<linearGradient id="paint21_linear_160_171" x1="17.2327" y1="53.8733" x2="43.8947" y2="27.2113" gradientUnits="userSpaceOnUse">
<stop stop-color="#DDFF59"/>
<stop offset="1" stop-color="white"/>
</linearGradient>
<linearGradient id="paint22_linear_160_171" x1="-7.59073" y1="80.665" x2="38.1645" y2="34.9099" gradientUnits="userSpaceOnUse">
<stop stop-color="#DDFF59"/>
<stop offset="1" stop-color="white"/>
</linearGradient>
<linearGradient id="paint23_linear_160_171" x1="3.54791" y1="60.3363" x2="29.2584" y2="34.6259" gradientUnits="userSpaceOnUse">
<stop stop-color="#DDFF59"/>
<stop offset="1" stop-color="white"/>
</linearGradient>
<linearGradient id="paint24_linear_160_171" x1="-20.5147" y1="86.4163" x2="23.8005" y2="42.1011" gradientUnits="userSpaceOnUse">
<stop stop-color="#DDFF59"/>
<stop offset="1" stop-color="white"/>
</linearGradient>
<linearGradient id="paint25_linear_160_171" x1="10.3392" y1="60.8122" x2="36.595" y2="34.5565" gradientUnits="userSpaceOnUse">
<stop stop-color="#DDFF59"/>
<stop offset="1" stop-color="white"/>
</linearGradient>
<linearGradient id="paint26_linear_160_171" x1="-14.2019" y1="87.3314" x2="30.9721" y2="42.1574" gradientUnits="userSpaceOnUse">
<stop stop-color="#DDFF59"/>
<stop offset="1" stop-color="white"/>
</linearGradient>
<linearGradient id="paint27_linear_160_171" x1="17.2221" y1="61.0629" x2="43.8665" y2="34.4185" gradientUnits="userSpaceOnUse">
<stop stop-color="#DDFF59"/>
<stop offset="1" stop-color="white"/>
</linearGradient>
<linearGradient id="paint28_linear_160_171" x1="-7.66298" y1="87.8883" x2="38.1272" y2="42.0981" gradientUnits="userSpaceOnUse">
<stop stop-color="#DDFF59"/>
<stop offset="1" stop-color="white"/>
</linearGradient>
<linearGradient id="paint29_linear_160_171" x1="24.5233" y1="46.5837" x2="51.045" y2="20.0618" gradientUnits="userSpaceOnUse">
<stop stop-color="#DDFF59"/>
<stop offset="1" stop-color="white"/>
</linearGradient>
<linearGradient id="paint30_linear_160_171" x1="-0.0364628" y1="73.1265" x2="45.3542" y2="27.7358" gradientUnits="userSpaceOnUse">
<stop stop-color="#DDFF59"/>
<stop offset="1" stop-color="white"/>
</linearGradient>
<linearGradient id="paint31_linear_160_171" x1="-4.77235" y1="86.5042" x2="58.1448" y2="23.5871" gradientUnits="userSpaceOnUse">
<stop stop-color="#006946"/>
<stop offset="0.2513" stop-color="#008547"/>
<stop offset="0.3421" stop-color="#128F45"/>
<stop offset="0.5244" stop-color="#41AA41"/>
<stop offset="0.7788" stop-color="#8CD63A"/>
<stop offset="1" stop-color="#D3FF33"/>
</linearGradient>
<linearGradient id="paint32_linear_160_171" x1="-8.82054" y1="92.4717" x2="58.0038" y2="25.6474" gradientUnits="userSpaceOnUse">
<stop stop-color="#006946"/>
<stop offset="0.2513" stop-color="#008547"/>
<stop offset="0.3421" stop-color="#128F45"/>
<stop offset="0.5244" stop-color="#41AA41"/>
<stop offset="0.7788" stop-color="#8CD63A"/>
<stop offset="1" stop-color="#D3FF33"/>
</linearGradient>
</defs>
</svg>
