<svg width="16" height="16" viewBox="0 0 16 16" fill="none" xmlns="http://www.w3.org/2000/svg">
<path d="M13.7523 10.6659C13.7004 10.6034 13.6495 10.5409 13.5995 10.4806C12.912 9.64906 12.496 9.14719 12.496 6.79313C12.496 5.57438 12.2045 4.57437 11.6298 3.82437C11.206 3.27031 10.6332 2.85 9.8782 2.53938C9.86849 2.53397 9.85981 2.52688 9.85258 2.51844C9.58102 1.60906 8.83789 1 7.99977 1C7.16164 1 6.41883 1.60906 6.14727 2.5175C6.14002 2.52563 6.13146 2.5325 6.12195 2.53781C4.36008 3.26312 3.50383 4.65469 3.50383 6.79219C3.50383 9.14719 3.08852 9.64906 2.40039 10.4797C2.35039 10.54 2.29946 10.6012 2.24758 10.665C2.11358 10.8266 2.02868 11.0232 2.00293 11.2316C1.97718 11.4399 2.01165 11.6513 2.10227 11.8406C2.29508 12.2469 2.70602 12.4991 3.17508 12.4991H12.8279C13.2948 12.4991 13.7029 12.2472 13.8963 11.8428C13.9873 11.6534 14.0221 11.4419 13.9966 11.2333C13.9711 11.0247 13.8863 10.8278 13.7523 10.6659Z" fill="white"/>
<path d="M8.00011 15C8.45168 14.9996 8.89474 14.8771 9.28228 14.6453C9.66983 14.4135 9.98742 14.0811 10.2014 13.6834C10.2114 13.6644 10.2164 13.643 10.2158 13.6215C10.2152 13.5999 10.209 13.5789 10.1979 13.5604C10.1868 13.542 10.171 13.5267 10.1523 13.5161C10.1335 13.5055 10.1123 13.5 10.0907 13.5H5.91011C5.88852 13.4999 5.86728 13.5054 5.84846 13.516C5.82964 13.5266 5.81388 13.5418 5.80271 13.5603C5.79154 13.5788 5.78534 13.5998 5.78472 13.6214C5.7841 13.643 5.78908 13.6644 5.79917 13.6834C6.01309 14.0811 6.33062 14.4134 6.71811 14.6452C7.1056 14.877 7.54859 14.9996 8.00011 15Z" fill="white"/>
<circle cx="12" cy="4" r="3" fill="#F02525"/>
</svg>
