<svg width="44" height="44" viewBox="0 0 44 44" fill="none" xmlns="http://www.w3.org/2000/svg">
<g clip-path="url(#clip0_27_2772)">
<path d="M39.4023 44H42.625C43.3369 44 43.9141 43.4228 43.9141 42.7109V11.6016C43.9141 10.8897 43.3369 10.3125 42.625 10.3125H1.375C0.663094 10.3125 0.0859375 10.8897 0.0859375 11.6016V42.7109C0.0859375 43.4228 0.663094 44 1.375 44H4.59766L5.84375 43.6562L7.17578 44H11.6875L22 42.625L32.3125 44H36.8242L38.1562 42.9688L39.4023 44Z" fill="#525CDD"/>
<path d="M43.9141 42.7109V11.6016C43.9141 10.8897 43.3369 10.3125 42.625 10.3125H22V42.625L32.3125 44H36.8242L38.1562 42.9688L39.4023 44H42.625C43.3369 44 43.9141 43.4228 43.9141 42.7109Z" fill="#00337A"/>
<path d="M38.1133 36.0938C37.4014 36.0938 36.8242 36.6709 36.8242 37.3828V44H39.4023V37.3828C39.4023 36.6709 38.8252 36.0938 38.1133 36.0938Z" fill="#FFB454"/>
<path d="M5.88672 36.0938C5.17481 36.0938 4.59766 36.6709 4.59766 37.3828V44H7.17578V37.3828C7.17578 36.6709 6.59862 36.0938 5.88672 36.0938Z" fill="#FFDD54"/>
<path d="M11.6875 1.28906V44H16.4141L22 42.8828L27.5859 44H32.3125V1.28906C32.3125 0.577156 31.7353 0 31.0234 0H12.9766C12.2647 0 11.6875 0.577156 11.6875 1.28906Z" fill="#6E75E2"/>
<path d="M32.3125 44V1.28906C32.3125 0.577156 31.7353 0 31.0234 0H22V42.8828L27.5859 44H32.3125Z" fill="#525CDD"/>
<path d="M27.1562 36.0938H16.8438C16.1318 36.0938 15.5547 36.6709 15.5547 37.3828V44H18.1328L19.4219 42.8828L20.7109 44H23.2891L24.557 42.9011L25.8672 44H28.4453V37.3828C28.4453 36.6709 27.8682 36.0938 27.1562 36.0938Z" fill="#FFDD54"/>
<path d="M27.1562 36.0938H22V44H23.2891L24.5781 42.8828L25.8672 44H28.4453V37.3828C28.4453 36.6709 27.8682 36.0938 27.1562 36.0938Z" fill="#FFB454"/>
<path d="M16.8438 7.73438C17.5557 7.73438 18.1328 7.15724 18.1328 6.44531C18.1328 5.73338 17.5557 5.15625 16.8438 5.15625C16.1318 5.15625 15.5547 5.73338 15.5547 6.44531C15.5547 7.15724 16.1318 7.73438 16.8438 7.73438Z" fill="#C8FFFF"/>
<path d="M27.1562 7.73438C27.8682 7.73438 28.4453 7.15724 28.4453 6.44531C28.4453 5.73338 27.8682 5.15625 27.1562 5.15625C26.4443 5.15625 25.8672 5.73338 25.8672 6.44531C25.8672 7.15724 26.4443 7.73438 27.1562 7.73438Z" fill="#ACCEFF"/>
<path d="M22 7.73438C22.7119 7.73438 23.2891 7.15724 23.2891 6.44531C23.2891 5.73338 22.7119 5.15625 22 5.15625C21.2881 5.15625 20.7109 5.73338 20.7109 6.44531C20.7109 7.15724 21.2881 7.73438 22 7.73438Z" fill="#C8FFFF"/>
<path d="M23.2891 6.44531C23.2891 5.73341 22.7119 5.15625 22 5.15625V7.73438C22.7119 7.73438 23.2891 7.15722 23.2891 6.44531Z" fill="#ACCEFF"/>
<path d="M16.8438 12.8906C17.5557 12.8906 18.1328 12.3135 18.1328 11.6016C18.1328 10.8896 17.5557 10.3125 16.8438 10.3125C16.1318 10.3125 15.5547 10.8896 15.5547 11.6016C15.5547 12.3135 16.1318 12.8906 16.8438 12.8906Z" fill="#C8FFFF"/>
<path d="M27.1562 12.8906C27.8682 12.8906 28.4453 12.3135 28.4453 11.6016C28.4453 10.8896 27.8682 10.3125 27.1562 10.3125C26.4443 10.3125 25.8672 10.8896 25.8672 11.6016C25.8672 12.3135 26.4443 12.8906 27.1562 12.8906Z" fill="#ACCEFF"/>
<path d="M22 12.8906C22.7119 12.8906 23.2891 12.3135 23.2891 11.6016C23.2891 10.8896 22.7119 10.3125 22 10.3125C21.2881 10.3125 20.7109 10.8896 20.7109 11.6016C20.7109 12.3135 21.2881 12.8906 22 12.8906Z" fill="#C8FFFF"/>
<path d="M23.2891 11.6016C23.2891 10.8897 22.7119 10.3125 22 10.3125V12.8906C22.7119 12.8906 23.2891 12.3135 23.2891 11.6016Z" fill="#ACCEFF"/>
<path d="M16.8438 18.0469C17.5557 18.0469 18.1328 17.4697 18.1328 16.7578C18.1328 16.0459 17.5557 15.4688 16.8438 15.4688C16.1318 15.4688 15.5547 16.0459 15.5547 16.7578C15.5547 17.4697 16.1318 18.0469 16.8438 18.0469Z" fill="#C8FFFF"/>
<path d="M27.1562 18.0469C27.8682 18.0469 28.4453 17.4697 28.4453 16.7578C28.4453 16.0459 27.8682 15.4688 27.1562 15.4688C26.4443 15.4688 25.8672 16.0459 25.8672 16.7578C25.8672 17.4697 26.4443 18.0469 27.1562 18.0469Z" fill="#ACCEFF"/>
<path d="M22 18.0469C22.7119 18.0469 23.2891 17.4697 23.2891 16.7578C23.2891 16.0459 22.7119 15.4688 22 15.4688C21.2881 15.4688 20.7109 16.0459 20.7109 16.7578C20.7109 17.4697 21.2881 18.0469 22 18.0469Z" fill="#C8FFFF"/>
<path d="M23.2891 16.7578C23.2891 16.0459 22.7119 15.4688 22 15.4688V18.0469C22.7119 18.0469 23.2891 17.4697 23.2891 16.7578Z" fill="#ACCEFF"/>
<path d="M16.8438 28.3594C17.5557 28.3594 18.1328 27.7822 18.1328 27.0703C18.1328 26.3584 17.5557 25.7812 16.8438 25.7812C16.1318 25.7812 15.5547 26.3584 15.5547 27.0703C15.5547 27.7822 16.1318 28.3594 16.8438 28.3594Z" fill="#C8FFFF"/>
<path d="M27.1562 28.3594C27.8682 28.3594 28.4453 27.7822 28.4453 27.0703C28.4453 26.3584 27.8682 25.7812 27.1562 25.7812C26.4443 25.7812 25.8672 26.3584 25.8672 27.0703C25.8672 27.7822 26.4443 28.3594 27.1562 28.3594Z" fill="#ACCEFF"/>
<path d="M22 28.3594C22.7119 28.3594 23.2891 27.7822 23.2891 27.0703C23.2891 26.3584 22.7119 25.7812 22 25.7812C21.2881 25.7812 20.7109 26.3584 20.7109 27.0703C20.7109 27.7822 21.2881 28.3594 22 28.3594Z" fill="#C8FFFF"/>
<path d="M23.2891 27.0703C23.2891 26.3584 22.7119 25.7812 22 25.7812V28.3594C22.7119 28.3594 23.2891 27.7822 23.2891 27.0703Z" fill="#ACCEFF"/>
<path d="M16.8438 33.5156C17.5557 33.5156 18.1328 32.9385 18.1328 32.2266C18.1328 31.5146 17.5557 30.9375 16.8438 30.9375C16.1318 30.9375 15.5547 31.5146 15.5547 32.2266C15.5547 32.9385 16.1318 33.5156 16.8438 33.5156Z" fill="#C8FFFF"/>
<path d="M27.1562 33.5156C27.8682 33.5156 28.4453 32.9385 28.4453 32.2266C28.4453 31.5146 27.8682 30.9375 27.1562 30.9375C26.4443 30.9375 25.8672 31.5146 25.8672 32.2266C25.8672 32.9385 26.4443 33.5156 27.1562 33.5156Z" fill="#ACCEFF"/>
<path d="M22 33.5156C22.7119 33.5156 23.2891 32.9385 23.2891 32.2266C23.2891 31.5146 22.7119 30.9375 22 30.9375C21.2881 30.9375 20.7109 31.5146 20.7109 32.2266C20.7109 32.9385 21.2881 33.5156 22 33.5156Z" fill="#C8FFFF"/>
<path d="M23.2891 32.2266C23.2891 31.5147 22.7119 30.9375 22 30.9375V33.5156C22.7119 33.5156 23.2891 32.9385 23.2891 32.2266Z" fill="#ACCEFF"/>
<path d="M16.8438 23.2031C17.5557 23.2031 18.1328 22.626 18.1328 21.9141C18.1328 21.2021 17.5557 20.625 16.8438 20.625C16.1318 20.625 15.5547 21.2021 15.5547 21.9141C15.5547 22.626 16.1318 23.2031 16.8438 23.2031Z" fill="#C8FFFF"/>
<path d="M27.1562 23.2031C27.8682 23.2031 28.4453 22.626 28.4453 21.9141C28.4453 21.2021 27.8682 20.625 27.1562 20.625C26.4443 20.625 25.8672 21.2021 25.8672 21.9141C25.8672 22.626 26.4443 23.2031 27.1562 23.2031Z" fill="#ACCEFF"/>
<path d="M22 23.2031C22.7119 23.2031 23.2891 22.626 23.2891 21.9141C23.2891 21.2021 22.7119 20.625 22 20.625C21.2881 20.625 20.7109 21.2021 20.7109 21.9141C20.7109 22.626 21.2881 23.2031 22 23.2031Z" fill="#C8FFFF"/>
<path d="M23.2891 21.9141C23.2891 21.2022 22.7119 20.625 22 20.625V23.2031C22.7119 23.2031 23.2891 22.626 23.2891 21.9141Z" fill="#ACCEFF"/>
<path d="M23.2891 38.6719H25.8672V44H23.2891V38.6719Z" fill="#ACCEFF"/>
<path d="M18.1328 38.6719H20.7109V44H18.1328V38.6719Z" fill="#C8FFFF"/>
<path d="M38.1133 18.0469C38.8252 18.0469 39.4023 17.4697 39.4023 16.7578C39.4023 16.0459 38.8252 15.4688 38.1133 15.4688C37.4014 15.4688 36.8242 16.0459 36.8242 16.7578C36.8242 17.4697 37.4014 18.0469 38.1133 18.0469Z" fill="#ACCEFF"/>
<path d="M38.1133 23.2031C38.8252 23.2031 39.4023 22.626 39.4023 21.9141C39.4023 21.2021 38.8252 20.625 38.1133 20.625C37.4014 20.625 36.8242 21.2021 36.8242 21.9141C36.8242 22.626 37.4014 23.2031 38.1133 23.2031Z" fill="#ACCEFF"/>
<path d="M38.1133 28.3594C38.8252 28.3594 39.4023 27.7822 39.4023 27.0703C39.4023 26.3584 38.8252 25.7812 38.1133 25.7812C37.4014 25.7812 36.8242 26.3584 36.8242 27.0703C36.8242 27.7822 37.4014 28.3594 38.1133 28.3594Z" fill="#ACCEFF"/>
<path d="M38.1133 33.5156C38.8252 33.5156 39.4023 32.9385 39.4023 32.2266C39.4023 31.5146 38.8252 30.9375 38.1133 30.9375C37.4014 30.9375 36.8242 31.5146 36.8242 32.2266C36.8242 32.9385 37.4014 33.5156 38.1133 33.5156Z" fill="#ACCEFF"/>
<path d="M5.88672 18.0469C6.59865 18.0469 7.17578 17.4697 7.17578 16.7578C7.17578 16.0459 6.59865 15.4688 5.88672 15.4688C5.17479 15.4688 4.59766 16.0459 4.59766 16.7578C4.59766 17.4697 5.17479 18.0469 5.88672 18.0469Z" fill="#C8FFFF"/>
<path d="M5.88672 23.2031C6.59865 23.2031 7.17578 22.626 7.17578 21.9141C7.17578 21.2021 6.59865 20.625 5.88672 20.625C5.17479 20.625 4.59766 21.2021 4.59766 21.9141C4.59766 22.626 5.17479 23.2031 5.88672 23.2031Z" fill="#C8FFFF"/>
<path d="M5.88672 28.3594C6.59865 28.3594 7.17578 27.7822 7.17578 27.0703C7.17578 26.3584 6.59865 25.7812 5.88672 25.7812C5.17479 25.7812 4.59766 26.3584 4.59766 27.0703C4.59766 27.7822 5.17479 28.3594 5.88672 28.3594Z" fill="#C8FFFF"/>
<path d="M5.88672 33.5156C6.59865 33.5156 7.17578 32.9385 7.17578 32.2266C7.17578 31.5146 6.59865 30.9375 5.88672 30.9375C5.17479 30.9375 4.59766 31.5146 4.59766 32.2266C4.59766 32.9385 5.17479 33.5156 5.88672 33.5156Z" fill="#C8FFFF"/>
</g>
<defs>
<clipPath id="clip0_27_2772">
<rect width="44" height="44" fill="white"/>
</clipPath>
</defs>
</svg>
