<svg width="20" height="21" viewBox="0 0 20 21" fill="none" xmlns="http://www.w3.org/2000/svg">
<path fill-rule="evenodd" clip-rule="evenodd" d="M4.89057 4.00001C5.09727 4.00001 5.15453 4.00068 5.20021 4.00462C5.69302 4.04706 6.11444 4.3761 6.27514 4.8439C6.29004 4.88726 6.30458 4.94265 6.35472 5.14318L6.40222 5.33318C6.52996 5.84415 6.57743 6.03932 6.60045 6.22318C6.69613 6.98742 6.51729 7.76079 6.09581 8.40543C5.99441 8.56052 5.86606 8.71504 5.52697 9.11804L4.81324 9.96628C4.16044 8.61075 3.71565 7.0853 3.51054 5.41256C3.50533 5.3701 3.50382 5.35676 3.50272 5.34254C3.50177 5.33034 3.50062 5.31022 3.50006 5.2654C3.49696 5.01302 3.613 4.70987 3.84423 4.44855C4.07547 4.18723 4.36224 4.03515 4.61312 4.00752C4.67438 4.00078 4.7163 4.00001 4.89057 4.00001ZM6.67472 10.0838L5.59791 11.3635C6.4777 12.7191 7.60078 13.866 8.93375 14.7712L10.434 13.6479L10.4779 13.615L10.4779 13.615C10.892 13.3049 11.1583 13.1054 11.4415 12.9482C12.3009 12.4711 13.2871 12.2723 14.2642 12.3793C14.5862 12.4146 14.909 12.4953 15.4109 12.6209L15.4109 12.6209L15.4641 12.6342L15.7316 12.701L15.7603 12.7082C15.9188 12.7478 16.0419 12.7785 16.1544 12.8172C17.1836 13.1707 17.9074 14.0979 18.0008 15.182C18.011 15.3005 18.011 15.4199 18.011 15.572L18.011 15.5982L18.011 15.6213V15.6214C18.011 15.7823 18.011 15.9114 17.9944 16.0621C17.9182 16.7542 17.5383 17.3637 17.0564 17.7901C16.5746 18.2165 15.9233 18.5194 15.2271 18.5108C15.0805 18.509 15.0114 18.501 14.9157 18.4893C12.5384 18.1977 10.3982 17.4575 8.56898 16.3225C6.69238 15.158 5.15427 13.5849 4.02845 11.6775C2.98362 9.90738 2.29925 7.85868 2.02169 5.59512C2.00996 5.49946 2.00198 5.43043 2.00018 5.28387C1.9916 4.58761 2.2945 3.93639 2.72088 3.45453C3.14726 2.97267 3.75678 2.59277 4.44891 2.51654C4.5995 2.49995 4.72065 2.49998 4.87108 2.50001L4.89057 2.50001L4.92018 2.5C5.0835 2.49997 5.21038 2.49994 5.32893 2.51015C6.41309 2.60353 7.34023 3.32742 7.69377 4.35657C7.73243 4.46909 7.76317 4.59218 7.80274 4.75062L7.80275 4.75063L7.80993 4.77937L7.85743 4.96938L7.86934 5.01701L7.86934 5.01701C7.98126 5.4645 8.05318 5.75211 8.08883 6.03685C8.22867 7.1538 7.96728 8.28412 7.35128 9.22628C7.19424 9.46646 7.00335 9.69329 6.70634 10.0462L6.67472 10.0838ZM15.0983 17.0004C13.3394 16.7847 11.7432 16.304 10.3362 15.595L11.333 14.8486C11.8056 14.4947 11.9867 14.3612 12.1696 14.2596C12.7576 13.9332 13.4324 13.7972 14.1009 13.8704C14.3089 13.8932 14.5275 13.9462 15.1003 14.0894L15.3678 14.1563C15.5683 14.2064 15.6237 14.2209 15.6671 14.2358C16.1349 14.3965 16.4639 14.818 16.5064 15.3108C16.5103 15.3568 16.511 15.408 16.511 15.5982C16.511 15.7899 16.5101 15.8374 16.5035 15.8978C16.4758 16.1487 16.3237 16.4355 16.0624 16.6667C15.8011 16.898 15.4979 17.014 15.2456 17.0109C15.2008 17.0104 15.1806 17.0092 15.1684 17.0083C15.1542 17.0071 15.1408 17.0056 15.0983 17.0004Z" fill="white"/>
</svg>
