<svg width="44" height="44" viewBox="0 0 44 44" fill="none" xmlns="http://www.w3.org/2000/svg">
<path d="M16.1133 20.4875C16.0531 20.2984 15.95 20.1265 15.8297 19.9804C15.7266 19.8601 15.5719 19.7914 15.4172 19.7914C15.2453 19.7914 15.0906 19.8687 14.9789 19.9976C14.8328 20.1609 14.7297 20.35 14.6523 20.5476C14.5578 20.7969 14.4977 21.0633 14.4633 21.3297C14.3859 21.9226 14.3859 22.5328 14.4633 23.1258C14.4977 23.3922 14.5578 23.65 14.6437 23.9078C14.7039 24.114 14.807 24.3031 14.9359 24.4664C15.0305 24.5953 15.1766 24.6812 15.3398 24.6812C15.5117 24.6812 15.675 24.5953 15.7695 24.4492C15.907 24.2687 16.0102 24.0625 16.0875 23.8476C16.182 23.5726 16.2422 23.289 16.2766 23.0054C16.3195 22.6875 16.3367 22.3695 16.3367 22.0515C16.3367 21.7679 16.3195 21.4844 16.2852 21.2008C16.2508 20.9601 16.1992 20.7195 16.1133 20.4875Z" fill="url(#paint0_linear_27_1209)"/>
<path d="M24.1141 19.1985C23.9938 19.1899 23.882 19.2329 23.7789 19.3016C23.693 19.3704 23.6242 19.4649 23.5812 19.5766C23.5297 19.6969 23.5039 19.8258 23.4867 19.9547C23.4695 20.1008 23.4609 20.2469 23.4609 20.393C23.4609 20.5821 23.4695 20.7539 23.4781 20.9344C23.4867 21.1149 23.4953 21.261 23.4953 21.3985C23.5125 21.5016 23.5383 21.5961 23.5812 21.6907C23.6156 21.7594 23.6672 21.8282 23.7273 21.8797C23.7875 21.9399 23.8734 21.9657 23.9594 21.9657C24.0711 21.9657 24.1828 21.9141 24.2516 21.8282C24.3461 21.7164 24.4148 21.5961 24.4578 21.4586C24.518 21.2954 24.5609 21.1149 24.5867 20.943C24.6211 20.7539 24.6297 20.5735 24.6297 20.3844C24.6383 20.1094 24.5867 19.8344 24.5008 19.568C24.4148 19.3188 24.2859 19.1985 24.1141 19.1985Z" fill="url(#paint1_linear_27_1209)"/>
<path d="M43.8711 19.293C43.7938 18.6227 43.7078 18.0125 43.6219 17.4711L43.6133 17.4367C43.493 16.7836 43.3555 16.1563 43.2008 15.5719L42.4445 12.7016L36.6437 13.9305L30.7914 12.693L30.0867 15.5031C30.0609 15.4688 30.0352 15.4344 30.0094 15.4C29.4766 14.7469 28.8148 14.2227 28.0586 13.8446C27.775 13.6985 27.4742 13.5867 27.1648 13.4922L27.1992 13.2086L26.0563 13.2688C25.8328 13.243 25.6008 13.2344 25.3773 13.2344C24.9477 13.2344 24.518 13.2774 24.0969 13.3719L17.7289 13.7157C17.0242 13.5008 16.2852 13.3977 15.5461 13.3977C15.0133 13.3977 14.4891 13.4492 13.9648 13.5524V13.3977H10.8883L10.7336 13.3805H9.86563C9.44453 13.3805 8.9375 13.3891 8.32734 13.3977C7.71719 13.4063 7.06406 13.4321 6.40234 13.475C5.73203 13.518 5.06172 13.5696 4.41719 13.6469C3.75547 13.7156 3.09375 13.836 2.44922 13.9992L0 14.6524L0.446875 23.5985L1.21172 23.5125L0.816406 30.6024L11.5242 30.2586L11.3953 29.3649C11.5328 29.4594 11.6703 29.5539 11.8164 29.6399C12.8562 30.2586 14.0422 30.5766 15.2453 30.568C15.8469 30.568 16.4484 30.4907 17.0328 30.3446L17.0242 30.7313L24.1828 30.2157L25.6609 31.2985L30.8516 27.5946C31.4016 28.3938 32.1148 29.0727 32.9484 29.5797C34.0141 30.2328 35.2859 30.568 36.7383 30.568C38.1648 30.568 39.4109 30.2328 40.4508 29.5797C41.4305 28.9696 42.2383 28.1188 42.7969 27.1133C43.2867 26.2196 43.6219 25.2399 43.7852 24.2344C43.9313 23.3578 44 22.4727 44 21.5875C44 20.8313 43.957 20.0578 43.8711 19.293ZM10.8367 19.8602C10.4758 19.843 10.1234 19.8258 9.7625 19.8172C9.40156 19.8086 9.05781 19.8 8.71406 19.8C8.44766 19.8 8.18984 19.8 7.94063 19.8086C7.69141 19.8172 7.45078 19.8258 7.21875 19.8344C7.22734 20.0149 7.23594 20.2039 7.24453 20.3844C7.25313 20.5649 7.26172 20.7539 7.27891 20.9344H9.09219L9.26406 22.9453L7.46797 23.1774C7.51953 23.7532 7.57109 24.286 7.63125 24.7758C7.69141 25.2656 7.73438 25.6953 7.77734 26.0649C7.82891 26.4946 7.88047 26.8899 7.93203 27.2508L4.125 27.3711L4.5375 20.0149C4.18516 20.0492 3.91016 20.075 3.70391 20.1094C3.59219 20.118 3.48906 20.1266 3.39453 20.1438L3.23984 17.0414C3.73828 16.9125 4.25391 16.8266 4.76953 16.775C5.35391 16.7063 5.96406 16.6547 6.58281 16.6203C7.20156 16.586 7.80312 16.5602 8.37891 16.5516C8.95469 16.543 9.45312 16.5344 9.86563 16.5344H10.5703C10.6734 16.543 10.7594 16.5516 10.8281 16.5516L10.8367 19.8602ZM19.4133 23.7188C19.2328 24.3891 18.9406 25.0164 18.5539 25.5922C18.1844 26.1336 17.7117 26.5891 17.1531 26.9328C16.5773 27.2852 15.9156 27.4571 15.2453 27.4485C14.6094 27.4571 13.9734 27.2938 13.4234 26.9672C12.8992 26.6492 12.4438 26.2281 12.1 25.7211C11.7391 25.1883 11.4641 24.5953 11.3008 23.968C11.1203 23.3149 11.0344 22.636 11.0344 21.9571C11.0344 21.2867 11.1289 20.6164 11.3094 19.9633C11.4813 19.336 11.7648 18.7516 12.143 18.2274C12.5125 17.7203 12.9938 17.2992 13.5438 16.9985C14.1109 16.6891 14.7727 16.5258 15.5375 16.5344C16.2508 16.5344 16.8781 16.6719 17.3937 16.9555C17.9094 17.2305 18.3477 17.6172 18.6914 18.0813C19.0438 18.5711 19.3016 19.1211 19.4562 19.7055C19.6195 20.3156 19.7055 20.9516 19.7055 21.5875C19.7055 22.318 19.6023 23.0313 19.4133 23.7188ZM27.1734 23.9164C27.3281 24.2086 27.5 24.4922 27.6891 24.7586C27.8781 25.0422 28.0844 25.3086 28.3078 25.575L25.6781 27.4485C25.3086 27.1821 24.9906 26.8555 24.7414 26.4688C24.5008 26.1164 24.3031 25.7383 24.1398 25.343C23.9937 24.9906 23.882 24.6297 23.8047 24.2602C23.7359 23.9164 23.6844 23.6328 23.65 23.4094C23.6414 23.4008 23.6242 23.3922 23.607 23.3922H23.5641C23.5469 23.3922 23.5297 23.3836 23.5211 23.375C23.5297 23.9164 23.5383 24.4149 23.5555 24.8703C23.5727 25.3258 23.5813 25.7211 23.5984 26.0649C23.607 26.4516 23.6242 26.8125 23.6414 27.1219L20.2469 27.3711C20.2555 27.0274 20.2641 26.675 20.2641 26.3227V25.2742C20.2641 24.1657 20.2469 23.1086 20.2211 22.086C20.1953 21.0633 20.1523 20.161 20.118 19.3617C20.0664 18.4336 20.0063 17.5571 19.9461 16.7321L23.65 16.5344C23.6414 16.6117 23.6328 16.6977 23.6328 16.7836V16.9383C23.6328 17.0242 23.6242 17.1016 23.6156 17.1875C23.8219 16.9641 24.0539 16.775 24.3117 16.6289C24.5953 16.4571 24.9477 16.3797 25.3773 16.3797C25.8242 16.3711 26.2625 16.4656 26.6664 16.6547C27.0273 16.8266 27.3453 17.0758 27.5945 17.3852C27.8438 17.6946 28.0242 18.0469 28.1445 18.425C28.2648 18.8203 28.325 19.2242 28.325 19.6367C28.325 20.2727 28.1961 20.9 27.9383 21.493C27.6977 22.0774 27.2938 22.5758 26.7867 22.9453C26.8727 23.2719 27.0102 23.6071 27.1734 23.9164ZM40.7 23.7274C40.5969 24.3891 40.382 25.025 40.0641 25.6094C39.7633 26.1594 39.325 26.6149 38.7922 26.95C38.2508 27.2852 37.5719 27.4571 36.7383 27.4571C35.8703 27.4571 35.1484 27.2852 34.5898 26.9328C34.0398 26.5977 33.5844 26.1336 33.2578 25.575C32.9227 24.9821 32.6992 24.3375 32.5875 23.6672C32.4672 22.9539 32.3984 22.2321 32.407 21.5102C32.407 20.8742 32.4414 20.2297 32.5102 19.5938C32.5789 18.9836 32.6562 18.4422 32.7422 17.961C32.8453 17.3938 32.957 16.8696 33.0773 16.3797L36.2141 17.0414C36.1281 17.4797 36.068 17.9352 36.0164 18.3906C35.9648 18.7946 35.9133 19.2328 35.8703 19.7227C35.8273 20.2039 35.8016 20.6938 35.8016 21.175C35.8016 21.5016 35.8188 21.8196 35.8445 22.1461C35.8703 22.4211 35.9219 22.6875 35.9992 22.9539C36.0594 23.1602 36.1625 23.3492 36.3 23.5039C36.4203 23.6414 36.5922 23.7102 36.7727 23.7102C36.9359 23.7102 37.0992 23.65 37.2109 23.5297C37.3398 23.3836 37.4344 23.2117 37.4945 23.0313C37.5719 22.7906 37.6234 22.5414 37.6492 22.2922C37.6836 21.9914 37.6922 21.6906 37.6922 21.3899C37.6922 20.9 37.6664 20.393 37.6148 19.886C37.5633 19.3703 37.5031 18.9063 37.443 18.4766C37.3742 17.9781 37.2883 17.4883 37.1937 17.0156L40.1758 16.3883C40.3133 16.8867 40.425 17.4281 40.5281 18.0039C40.6141 18.4938 40.6914 19.0524 40.7602 19.6711C40.8289 20.3156 40.8719 20.9688 40.8633 21.6133C40.8805 22.3094 40.8203 23.0227 40.7 23.7274Z" fill="url(#paint2_linear_27_1209)"/>
<defs>
<linearGradient id="paint0_linear_27_1209" x1="15.3682" y1="19.9418" x2="15.3682" y2="24.6108" gradientUnits="userSpaceOnUse">
<stop stop-color="#AE71FD"/>
<stop offset="1" stop-color="#974DF5"/>
</linearGradient>
<linearGradient id="paint1_linear_27_1209" x1="24.0519" y1="19.2887" x2="24.0519" y2="21.9089" gradientUnits="userSpaceOnUse">
<stop stop-color="#AE71FD"/>
<stop offset="1" stop-color="#974DF5"/>
</linearGradient>
<linearGradient id="paint2_linear_27_1209" x1="22" y1="13.2954" x2="22" y2="31.0157" gradientUnits="userSpaceOnUse">
<stop stop-color="#AE71FD"/>
<stop offset="1" stop-color="#974DF5"/>
</linearGradient>
</defs>
</svg>
