<svg width="32" height="32" viewBox="0 0 32 32" fill="none" xmlns="http://www.w3.org/2000/svg">
<path d="M16 1C18.9667 1 21.8668 1.87973 24.3335 3.52796C26.8003 5.17618 28.7229 7.51886 29.8582 10.2597C30.9935 13.0006 31.2906 16.0166 30.7118 18.9264C30.133 21.8361 28.7044 24.5088 26.6066 26.6066C24.5088 28.7044 21.8361 30.133 18.9263 30.7118C16.0166 31.2906 13.0006 30.9935 10.2597 29.8582C7.51885 28.7229 5.17617 26.8003 3.52795 24.3336C1.87973 21.8668 0.999992 18.9667 0.999992 16C1.00449 12.0231 2.58629 8.21044 5.39836 5.39837C8.21043 2.5863 12.0231 1.0045 16 1ZM13.293 21.293C13.1975 21.3852 13.1213 21.4956 13.0689 21.6176C13.0165 21.7396 12.9889 21.8708 12.9877 22.0036C12.9866 22.1364 13.0119 22.2681 13.0622 22.391C13.1125 22.5138 13.1867 22.6255 13.2806 22.7194C13.3745 22.8133 13.4861 22.8875 13.609 22.9378C13.7319 22.9881 13.8636 23.0134 13.9964 23.0123C14.1292 23.0111 14.2604 22.9835 14.3824 22.9311C14.5044 22.8787 14.6147 22.8025 14.707 22.707L20.707 16.707C20.8945 16.5195 20.9998 16.2652 20.9998 16C20.9998 15.7348 20.8945 15.4805 20.707 15.293L14.707 9.293C14.5184 9.11084 14.2658 9.01005 14.0036 9.01233C13.7414 9.0146 13.4906 9.11977 13.3052 9.30518C13.1198 9.49059 13.0146 9.7414 13.0123 10.0036C13.01 10.2658 13.1108 10.5184 13.293 10.707L18.586 16L13.293 21.293Z" fill="#0F38B0"/>
</svg>
