<svg width="15" height="16" viewBox="0 0 15 16" fill="none" xmlns="http://www.w3.org/2000/svg">
<path d="M13.4688 2.28125H11.9375V1.46875C11.9375 0.658875 11.2786 0 10.4688 0C9.65887 0 9 0.658875 9 1.46875V2.28125H5.9375V1.46875C5.9375 0.658875 5.27863 0 4.46875 0C3.65887 0 3 0.658875 3 1.46875V2.28125H1.46875C0.658875 2.28125 0 2.94012 0 3.75V14.5312C0 15.3411 0.658875 16 1.46875 16H13.4688C14.2786 16 14.9375 15.3411 14.9375 14.5312V3.75C14.9375 2.94012 14.2786 2.28125 13.4688 2.28125ZM9.9375 1.46875C9.9375 1.17581 10.1758 0.9375 10.4688 0.9375C10.7617 0.9375 11 1.17581 11 1.46875V2.28125H9.9375V1.46875ZM3.9375 1.46875C3.9375 1.17581 4.17581 0.9375 4.46875 0.9375C4.76169 0.9375 5 1.17581 5 1.46875V2.28125H3.9375V1.46875ZM1.46875 3.21875H13.4688C13.7617 3.21875 14 3.45706 14 3.75V4.53125H0.9375V3.75C0.9375 3.45706 1.17581 3.21875 1.46875 3.21875ZM13.4688 15.0625H1.46875C1.17581 15.0625 0.9375 14.8242 0.9375 14.5312V5.46875H14V14.5312C14 14.8242 13.7617 15.0625 13.4688 15.0625Z" fill="#121212"/>
<path d="M4.46875 6.78125H2.46875C2.20987 6.78125 2 6.99112 2 7.25V9.25C2 9.50887 2.20987 9.71875 2.46875 9.71875H4.46875C4.72762 9.71875 4.9375 9.50887 4.9375 9.25V7.25C4.9375 6.99112 4.72762 6.78125 4.46875 6.78125ZM4 8.78125H2.9375V7.71875H4V8.78125Z" fill="#121212"/>
<path d="M8.46875 6.78125H6.46875C6.20987 6.78125 6 6.99112 6 7.25V9.25C6 9.50887 6.20987 9.71875 6.46875 9.71875H8.46875C8.72762 9.71875 8.9375 9.50887 8.9375 9.25V7.25C8.9375 6.99112 8.72762 6.78125 8.46875 6.78125ZM8 8.78125H6.9375V7.71875H8V8.78125Z" fill="#121212"/>
<path d="M12.4688 6.78125H10.4688C10.2099 6.78125 10 6.99112 10 7.25V9.25C10 9.50887 10.2099 9.71875 10.4688 9.71875H12.4688C12.7276 9.71875 12.9375 9.50887 12.9375 9.25V7.25C12.9375 6.99112 12.7276 6.78125 12.4688 6.78125ZM12 8.78125H10.9375V7.71875H12V8.78125Z" fill="#121212"/>
<path d="M4.46875 10.7812H2.46875C2.20987 10.7812 2 10.9911 2 11.25V13.25C2 13.5089 2.20987 13.7188 2.46875 13.7188H4.46875C4.72762 13.7188 4.9375 13.5089 4.9375 13.25V11.25C4.9375 10.9911 4.72762 10.7812 4.46875 10.7812ZM4 12.7812H2.9375V11.7188H4V12.7812Z" fill="#121212"/>
<path d="M8.46875 10.7812H6.46875C6.20987 10.7812 6 10.9911 6 11.25V13.25C6 13.5089 6.20987 13.7188 6.46875 13.7188H8.46875C8.72762 13.7188 8.9375 13.5089 8.9375 13.25V11.25C8.9375 10.9911 8.72762 10.7812 8.46875 10.7812ZM8 12.7812H6.9375V11.7188H8V12.7812Z" fill="#121212"/>
<path d="M12.4688 10.7812H10.4688C10.2099 10.7812 10 10.9911 10 11.25V13.25C10 13.5089 10.2099 13.7188 10.4688 13.7188H12.4688C12.7276 13.7188 12.9375 13.5089 12.9375 13.25V11.25C12.9375 10.9911 12.7276 10.7812 12.4688 10.7812ZM12 12.7812H10.9375V11.7188H12V12.7812Z" fill="#121212"/>
</svg>
