<svg width="70" height="70" viewBox="0 0 70 70" fill="none" xmlns="http://www.w3.org/2000/svg">
<circle cx="35" cy="35" r="35" fill="#F9F1ED"/>
<path d="M60.5322 59.7373V63.2987C60.5322 66.7411 50.9653 69.5313 39.1636 69.5313C27.3618 69.5313 17.7949 66.7411 17.7949 63.2987V59.7373H60.5322Z" fill="#379EC3"/>
<path d="M39.1616 65.9699C50.9632 65.9699 60.5303 63.1795 60.5303 59.7374C60.5303 56.2953 50.9632 53.5049 39.1616 53.5049C27.36 53.5049 17.793 56.2953 17.793 59.7374C17.793 63.1795 27.36 65.9699 39.1616 65.9699Z" fill="#8ACCE7"/>
<path d="M59.7055 38.4733C58.7964 36.224 57.543 34.1298 55.99 32.2659L54.8729 30.9255L56.241 29.7854L57.3581 31.1258C59.0292 33.1315 60.378 35.3849 61.3562 37.8053L59.7055 38.4733ZM18.2127 39.5523L16.5312 38.9658C17.5253 36.1067 19.0278 33.4507 20.9664 31.1258L21.3414 30.6758L22.7095 31.8159L22.3344 32.2659C20.5329 34.4267 19.1365 36.8951 18.2127 39.5523ZM22.005 39.6023L20.3619 38.9158C21.0518 37.2646 21.9435 35.7051 23.0166 34.273L24.4412 35.3414C23.4564 36.6557 22.638 38.0869 22.005 39.6023ZM58.9082 52.8437L57.1875 52.3852C57.6331 50.7156 57.8591 48.9951 57.8598 47.2671H59.6405C59.6398 49.1499 59.3936 51.0246 58.9082 52.8438V52.8437ZM56.3194 39.6023C55.6864 38.0869 54.868 36.6557 53.8832 35.3415L55.3078 34.2731C56.381 35.7052 57.2727 37.2647 57.9626 38.9159L56.3194 39.6023Z" fill="#8ACCE7"/>
<path d="M55.1881 47.2666C55.1881 47.7051 55.1714 48.1421 55.138 48.5777C54.9493 51.0503 54.2279 53.4528 53.0234 55.6204C52.3305 56.8685 51.3162 57.9085 50.0858 58.6324C48.8555 59.3563 47.4538 59.7377 46.0263 59.7372H32.2969C30.8695 59.7373 29.468 59.3557 28.2377 58.6318C27.0074 57.9079 25.993 56.8682 25.2998 55.6204C23.6136 52.586 22.8852 49.1122 23.2104 45.656C23.5356 42.1998 24.8991 38.9229 27.1217 36.2562L27.5869 35.6975H50.7363L51.2015 36.2562C52.2392 37.5012 53.0954 38.8869 53.7446 40.3719C54.0216 41.003 54.2599 41.6505 54.458 42.3107C54.8611 43.6482 55.0991 45.03 55.1669 46.4252C55.1814 46.7046 55.1884 46.9851 55.1881 47.2666Z" fill="#AD7D4D"/>
<path d="M55.1891 47.2667C55.1891 47.7052 55.1724 48.1422 55.139 48.5777C52.7301 50.0427 50.1311 51.1692 47.4151 51.9255L46.9365 50.2093C49.548 49.4822 52.0445 48.3924 54.3532 46.9717C54.6326 46.8003 54.9041 46.6182 55.1679 46.4253C55.1824 46.7046 55.1894 46.9851 55.1891 47.2667ZM41.9131 52.9288L41.7542 51.1552C42.332 51.1033 42.9081 51.0342 43.4818 50.9479L43.7469 52.7088C43.1408 52.8 42.5238 52.874 41.9131 52.9288ZM41.9305 47.5588L41.7368 45.7886C42.3117 45.7256 42.884 45.6416 43.4528 45.5368L43.776 47.288C43.1643 47.4007 42.5487 47.4911 41.9305 47.5588ZM54.459 42.3107C53.8794 42.9411 53.2158 43.4886 52.4868 43.9378C50.8898 44.9212 49.1889 45.7248 47.4151 46.334L46.8364 44.649C48.4861 44.0825 50.0683 43.3357 51.5542 42.422C52.4137 41.8913 53.1588 41.1943 53.7456 40.3719C54.0226 41.0031 54.2609 41.6505 54.459 42.3107ZM29.1045 33.2023C32.1292 31.341 35.6111 30.3555 39.1626 30.3555C42.7141 30.3555 46.1959 31.341 49.2206 33.2023C49.6841 33.4875 50.0669 33.8867 50.3324 34.3618C50.5978 34.8369 50.7372 35.372 50.7373 35.9162C50.7373 36.4605 50.5979 36.9957 50.3324 37.4708C50.0669 37.9459 49.6842 38.3451 49.2206 38.6303C46.1959 40.4916 42.7141 41.4771 39.1626 41.4771C35.6111 41.4771 32.1292 40.4916 29.1045 38.6303C28.641 38.3451 28.2582 37.9459 27.9928 37.4708C27.7273 36.9957 27.5879 36.4605 27.5879 35.9162C27.5879 35.372 27.7273 34.8369 27.9928 34.3618C28.2583 33.8867 28.641 33.4875 29.1045 33.2023Z" fill="#966342"/>
<path d="M40.0527 33.0265L36.7339 41.3235C36.0534 41.2363 35.378 41.113 34.7106 40.954C34.1118 40.8105 33.5182 40.6383 32.9299 40.4376V43.7108C31.5131 43.7107 30.1543 43.1478 29.1525 42.146C28.1507 41.1442 27.5878 39.7854 27.5877 38.3686V35.6976L27.1737 35.2835C25.4145 33.5048 24.3202 31.1755 24.0741 28.686L24.0263 28.6281L22.2455 26.4801L14.3848 17H27.7969L40.0527 33.0265Z" fill="#F4CEAF"/>
<path d="M24.0268 23.2324V28.628L22.2461 26.48V23.2324H24.0268ZM34.7111 33.9167V40.9539C34.1124 40.8104 33.5188 40.6382 32.9304 40.4375V33.9167H34.7111Z" fill="#F2C194"/>
<path d="M39.1626 55.2856C39.1627 55.5194 39.1166 55.751 39.0272 55.9671C38.9377 56.1832 38.8065 56.3795 38.6412 56.5448C38.4758 56.7102 38.2795 56.8414 38.0634 56.9308C37.8473 57.0203 37.6157 57.0663 37.3819 57.0663H35.6012C36.0734 57.0663 36.5264 57.2539 36.8603 57.5878C37.1943 57.9218 37.3819 58.3747 37.3819 58.847C37.3819 59.3193 37.1943 59.7722 36.8603 60.1062C36.5264 60.4401 36.0734 60.6277 35.6012 60.6277H33.8204C34.2927 60.6277 34.7457 60.8153 35.0796 61.1493C35.4136 61.4832 35.6012 61.9362 35.6012 62.4084C35.6012 62.8807 35.4136 63.3337 35.0796 63.6676C34.7457 64.0016 34.2927 64.1892 33.8204 64.1892H31.1494L23.1361 62.4084L16.0132 58.847H8V46.382H17.794L23.1361 41.0398H26.6976C26.6975 42.169 26.4751 43.2871 26.043 44.3303C25.6108 45.3735 24.9774 46.3214 24.179 47.1198L23.1361 48.1627L31.1494 49.9434H35.6012C36.0734 49.9434 36.5264 50.131 36.8603 50.465C37.1943 50.7989 37.3819 51.2518 37.3819 51.7241C37.3819 52.1964 37.1943 52.6493 36.8603 52.9833C36.5264 53.3172 36.0734 53.5048 35.6012 53.5048H37.3819C37.6158 53.5045 37.8475 53.5504 38.0637 53.6397C38.2799 53.7291 38.4763 53.8603 38.6418 54.0257C38.8072 54.1911 38.9383 54.3875 39.0277 54.6037C39.1171 54.8199 39.1629 55.0516 39.1626 55.2856Z" fill="#F4CEAF"/>
<path d="M35.6004 57.9567H31.1486C31.0836 57.9567 31.0189 57.9496 30.9555 57.9356L24.7229 56.5505C24.4934 56.4983 24.2938 56.3574 24.1679 56.1585C24.042 55.9596 24 55.719 24.051 55.4892C24.1021 55.2594 24.2421 55.0592 24.4404 54.9323C24.6386 54.8054 24.8791 54.7622 25.1091 54.8122L31.2463 56.176H35.6004C35.8365 56.176 36.063 56.2698 36.2299 56.4368C36.3969 56.6037 36.4907 56.8302 36.4907 57.0664C36.4907 57.3025 36.3969 57.529 36.2299 57.6959C36.063 57.8629 35.8365 57.9567 35.6004 57.9567ZM35.6004 54.3953H31.1486C31.0836 54.3953 31.0189 54.3882 30.9555 54.3741L24.7229 52.9891C24.4934 52.9369 24.2938 52.796 24.1679 52.5971C24.042 52.3982 24 52.1575 24.051 51.9277C24.1021 51.6979 24.2421 51.4977 24.4404 51.3708C24.6386 51.244 24.8791 51.2008 25.1091 51.2507L31.2463 52.6146H35.6004C35.8365 52.6146 36.063 52.7084 36.2299 52.8753C36.3969 53.0423 36.4907 53.2688 36.4907 53.5049C36.4907 53.7411 36.3969 53.9675 36.2299 54.1345C36.063 54.3015 35.8365 54.3953 35.6004 54.3953ZM33.8196 61.5182H31.1486C31.0836 61.5182 31.0189 61.5111 30.9555 61.497L24.7229 60.1119C24.6083 60.0871 24.4998 60.0398 24.4035 59.9728C24.3072 59.9058 24.2251 59.8205 24.1619 59.7217C24.0987 59.6229 24.0556 59.5126 24.0351 59.3971C24.0147 59.2816 24.0172 59.1632 24.0427 59.0488C24.0681 58.9343 24.1159 58.8259 24.1833 58.73C24.2508 58.634 24.3365 58.5523 24.4356 58.4896C24.5347 58.4268 24.6452 58.3843 24.7608 58.3644C24.8764 58.3445 24.9948 58.3476 25.1091 58.3736L31.2463 59.7374H33.8196C34.0558 59.7374 34.2822 59.8312 34.4492 59.9982C34.6162 60.1652 34.71 60.3917 34.71 60.6278C34.71 60.8639 34.6162 61.0904 34.4492 61.2574C34.2822 61.4244 34.0558 61.5182 33.8196 61.5182Z" fill="#F2C194"/>
</svg>
