<svg width="61" height="60" viewBox="0 0 61 60" fill="none" xmlns="http://www.w3.org/2000/svg">
<path d="M50.4383 43.2827C45.1473 44.8774 40.0977 47.1841 35.4281 50.1393C27.4228 56.0464 10.095 49.6488 6.08941 46.7402C5.60993 46.4287 5.20262 46.0183 4.8948 45.5365C4.58698 45.0547 4.38577 44.5126 4.30468 43.9467C4.2236 43.3807 4.2645 42.8039 4.42466 42.2551C4.58482 41.7062 4.86051 41.1979 5.23326 40.7644L9.11463 36.3345C9.72775 38.9048 11.7005 40.5673 13.8936 41.9113C13.9758 42.3138 14.1561 42.6898 14.4185 43.0059C14.681 43.322 15.0174 43.5684 15.398 43.7232C17.7011 44.6417 20.1575 45.1155 22.637 45.1195C23.4109 45.1716 24.1879 45.0843 24.931 44.8618L25.6624 44.8538C27.8979 44.7643 42.0738 44.7071 50.0394 38.753L52.5743 36.5007C53.1726 35.9687 53.5616 35.2408 53.6714 34.4478C53.7711 33.6748 53.8958 32.5528 53.9623 31.223C55.2332 32.1406 56.135 33.4815 56.5055 35.0046C57.6964 39.0062 54.3016 42.3104 50.4383 43.2827ZM12.1067 38.4206C12.6647 38.9914 13.2771 39.5064 13.9352 39.9582L14.783 28.7047C16.5033 17.4013 22.2049 11.4671 26.2857 8.58309C16.1065 10.5817 9.79453 18.2398 10.5191 34.7387C10.5928 36.1159 11.1558 37.4216 12.1067 38.4206ZM16.4369 28.8959L15.4977 41.3212C15.4841 41.5008 15.5274 41.6801 15.6213 41.8338C15.7153 41.9874 15.8553 42.1076 16.0213 42.1773C18.5561 43.1979 21.2925 43.6189 24.0168 43.4074C24.2327 43.386 24.4322 43.2828 24.5744 43.119C24.7166 42.9552 24.7907 42.7431 24.7814 42.5264C24.6401 36.8996 24.9227 23.0613 30.7073 15.8388C31.0564 15.2321 33.7659 10.7357 37.5974 9.06515C36.2735 7.86593 33.3935 6.68684 31.2642 7.76041C27.7055 9.34881 18.9837 13.8955 16.4369 28.8959ZM32.112 16.7198C26.4365 23.6699 26.3218 38.1955 26.4437 42.4848C26.4499 42.7258 26.4219 42.9664 26.3606 43.1996C26.6265 43.1996 26.8842 43.1913 27.1584 43.1829C27.3163 43.1746 42.7753 42.5762 48.9589 37.4897L51.4689 35.2622C51.773 34.9939 51.9707 34.6252 52.0258 34.2233C52.2173 32.7931 52.3228 31.3527 52.3416 29.9098C52.4041 26.9431 51.8169 23.9986 50.6211 21.2827C49.4735 18.2926 47.6667 15.5995 45.3351 13.4036C42.2765 16.177 39.8748 19.5976 38.3048 23.4162C36.7348 27.2349 36.0359 31.3556 36.2592 35.4783C36.2655 35.5871 36.2502 35.696 36.2143 35.7988C36.1784 35.9016 36.1226 35.9964 36.05 36.0776C35.9775 36.1588 35.8896 36.2249 35.7915 36.2722C35.6933 36.3194 35.5868 36.3468 35.4781 36.3528C35.3693 36.3588 35.2605 36.3433 35.1577 36.3072C35.055 36.2711 34.9603 36.2151 34.8793 36.1424C34.7982 36.0696 34.7323 35.9816 34.6852 35.8834C34.6382 35.7851 34.6111 35.6786 34.6053 35.5698C34.3713 31.2367 35.0986 26.9054 36.7353 22.8863C38.3719 18.8673 40.8773 15.2601 44.0719 12.3232C42.6931 11.1966 41.0258 10.4796 39.2596 10.2537C35.2702 11.2261 32.1452 16.6699 32.112 16.7198Z" fill="url(#paint0_linear_160_534)"/>
<defs>
<linearGradient id="paint0_linear_160_534" x1="4.26213" y1="29.9493" x2="56.7471" y2="29.9493" gradientUnits="userSpaceOnUse">
<stop stop-color="#FFDE00"/>
<stop offset="1" stop-color="#FD5900"/>
</linearGradient>
</defs>
</svg>
