<svg width="44" height="44" viewBox="0 0 44 44" fill="none" xmlns="http://www.w3.org/2000/svg">
<path opacity="0.2" d="M42.5835 12.7496C42.3607 12.5575 42.092 12.4265 41.8035 12.3693C41.5151 12.3121 41.2167 12.3307 40.9375 12.4233L34.9337 14.4115C34.923 14.4151 34.9146 14.4223 34.904 14.4261C34.8846 14.2054 34.8217 13.9908 34.719 13.7945C34.6163 13.5982 34.4758 13.4242 34.3056 13.2825L24.9769 5.45206C24.6709 5.20865 24.2917 5.07568 23.9007 5.07471C23.7027 5.0757 23.5063 5.1097 23.3195 5.17531L11.9149 9.32922C11.7048 9.40412 11.5116 9.51982 11.3464 9.66965C11.1812 9.81948 11.0473 10.0005 10.9523 10.2023C10.9439 10.1954 10.9385 10.1859 10.93 10.1791L5.96786 6.25752C5.73688 6.07469 5.46238 5.95496 5.17124 5.91005C4.88009 5.86514 4.58228 5.89658 4.30693 6.00131C4.03159 6.10603 3.78815 6.28044 3.60044 6.50748C3.41272 6.73452 3.28717 7.0064 3.23606 7.29652L2.37652 12.1713C2.32296 12.4737 2.35238 12.7851 2.46166 13.0721C2.57093 13.3592 2.75596 13.6113 2.99708 13.8016L4.17713 14.7341C3.94034 14.6091 3.67735 14.5418 3.40961 14.5378C3.14186 14.5338 2.87697 14.5931 2.63653 14.711C2.3961 14.8289 2.18695 15.0019 2.02615 15.216C1.86535 15.4301 1.75745 15.6792 1.71127 15.943L0.851695 20.8178C0.798501 21.1201 0.828003 21.4312 0.937082 21.7181C1.04616 22.005 1.23076 22.2571 1.47135 22.4477L2.32969 23.1269L1.86472 25.7639C1.81289 26.0582 1.83934 26.361 1.94142 26.6418C2.0435 26.9227 2.21763 27.1718 2.44634 27.3642L17.2244 39.7652C17.4532 39.9569 17.7284 40.0851 18.0224 40.1369C18.3164 40.1888 18.6188 40.1623 18.8994 40.0604L37.0283 33.4614C37.3085 33.3586 37.5568 33.1842 37.7485 32.9555C37.9402 32.7268 38.0686 32.4518 38.1208 32.158L38.5858 29.5199L39.6266 29.1742C39.9175 29.0773 40.1769 28.9036 40.3772 28.6714C40.5775 28.4392 40.7113 28.1572 40.7644 27.8552L41.624 22.981C41.6738 22.7167 41.6597 22.4444 41.5828 22.1867C41.5059 21.929 41.3685 21.6934 41.182 21.4997C40.9954 21.306 40.7653 21.1597 40.5107 21.073C40.2561 20.9864 39.9845 20.962 39.7185 21.0018L41.1472 20.5286C41.4392 20.4325 41.6996 20.259 41.9006 20.0265C42.1017 19.7941 42.2359 19.5114 42.2889 19.2086L43.1485 14.3339C43.199 14.0435 43.1735 13.745 43.0745 13.4674C42.9755 13.1897 42.8064 12.9425 42.5835 12.7496Z" fill="#231F20"/>
<path d="M42.5835 11.512C42.3607 11.32 42.092 11.189 41.8035 11.1318C41.5151 11.0746 41.2167 11.0932 40.9375 11.1857L34.9337 13.174C34.923 13.1775 34.9146 13.1848 34.904 13.1885C34.8846 12.9679 34.8217 12.7532 34.719 12.557C34.6163 12.3607 34.4758 12.1867 34.3056 12.0449L24.9769 4.21451C24.6709 3.9711 24.2917 3.83813 23.9007 3.83716C23.7027 3.83815 23.5063 3.87215 23.3195 3.93776L11.9149 8.09167C11.7048 8.16657 11.5116 8.28227 11.3464 8.4321C11.1812 8.58193 11.0473 8.76294 10.9523 8.96473C10.9439 8.95782 10.9385 8.94834 10.93 8.94154L5.96786 5.01997C5.73688 4.83714 5.46238 4.71742 5.17124 4.6725C4.88009 4.62759 4.58228 4.65904 4.30693 4.76376C4.03159 4.86848 3.78815 5.0429 3.60044 5.26993C3.41272 5.49697 3.28717 5.76885 3.23606 6.05897L2.37652 10.9337C2.32296 11.2362 2.35238 11.5475 2.46166 11.8346C2.57093 12.1216 2.75596 12.3737 2.99708 12.564L4.17713 13.4966C3.94034 13.3715 3.67735 13.3043 3.40961 13.3002C3.14186 13.2962 2.87697 13.3556 2.63653 13.4734C2.3961 13.5913 2.18695 13.7644 2.02615 13.9785C1.86535 14.1926 1.75745 14.4417 1.71127 14.7055L0.851695 19.5802C0.798501 19.8825 0.828003 20.1936 0.937082 20.4805C1.04616 20.7675 1.23076 21.0196 1.47135 21.2102L2.32969 21.8894L1.86472 24.5263C1.81289 24.8206 1.83934 25.1234 1.94142 25.4043C2.0435 25.6852 2.21763 25.9343 2.44634 26.1267L17.2244 38.5276C17.4532 38.7194 17.7284 38.8476 18.0224 38.8994C18.3164 38.9512 18.6188 38.9248 18.8994 38.8228L37.0283 32.2238C37.3085 32.1211 37.5568 31.9467 37.7485 31.718C37.9402 31.4893 38.0686 31.2143 38.1208 30.9205L38.5858 28.2823L39.6266 27.9367C39.9175 27.8398 40.1769 27.666 40.3772 27.4338C40.5775 27.2016 40.7113 26.9196 40.7644 26.6176L41.624 21.7434C41.6738 21.4792 41.6597 21.2068 41.5828 20.9491C41.5059 20.6914 41.3685 20.4559 41.182 20.2621C40.9954 20.0684 40.7653 19.9221 40.5107 19.8355C40.2561 19.7489 39.9845 19.7244 39.7185 19.7642L41.1472 19.2911C41.4392 19.195 41.6996 19.0215 41.9006 18.789C42.1017 18.5565 42.2359 18.2738 42.2889 17.9711L43.1485 13.0963C43.199 12.8059 43.1735 12.5074 43.0745 12.2298C42.9755 11.9522 42.8064 11.7049 42.5835 11.512Z" fill="#F1F2F2"/>
<path d="M33.5099 12.9927L24.206 5.18237C24.142 5.13088 24.0659 5.0964 23.985 5.08213C23.904 5.06785 23.8207 5.07424 23.7429 5.10071L12.3289 9.25797C12.2534 9.28538 12.1865 9.33218 12.1348 9.39366C12.0832 9.45514 12.0486 9.52913 12.0346 9.60821L9.92551 21.5698C9.91062 21.6497 9.91717 21.7321 9.94451 21.8087C9.97185 21.8852 10.019 21.9532 10.0811 22.0056L19.385 29.8159C19.4486 29.8684 19.5246 29.9034 19.6058 29.9177C19.6869 29.932 19.7704 29.9251 19.8481 29.8976L31.2621 25.7403C31.3384 25.7123 31.406 25.6646 31.4579 25.602C31.5097 25.5394 31.5441 25.4642 31.5574 25.384L33.6666 13.4225C33.6805 13.3434 33.6733 13.2621 33.6458 13.1866C33.6183 13.1112 33.5714 13.0443 33.5099 12.9927ZM24.1174 24.8198C24.0952 24.9406 24.0263 25.0478 23.9257 25.1182C23.8251 25.1887 23.7009 25.2167 23.5798 25.1962L17.4863 24.1218C17.3655 24.0996 17.2583 24.0307 17.1879 23.9301C17.1174 23.8296 17.0894 23.7053 17.1098 23.5842L17.4322 21.7561C17.4544 21.6353 17.5232 21.5281 17.6238 21.4577C17.7244 21.3873 17.8487 21.3592 17.9698 21.3797L19.3408 21.6215L20.5764 14.614L18.596 14.2648C18.4753 14.2426 18.3681 14.1737 18.2976 14.0731C18.2272 13.9725 18.1992 13.8482 18.2196 13.7271L18.5419 11.8991C18.5641 11.7783 18.633 11.6711 18.7336 11.6007C18.8342 11.5302 18.9585 11.5022 19.0796 11.5227L19.6889 11.6301C20.0525 11.6936 20.4264 11.6104 20.7287 11.3988C21.031 11.1871 21.2371 10.8642 21.3017 10.5008C21.3239 10.38 21.3927 10.2728 21.4933 10.2024C21.594 10.1319 21.7182 10.1039 21.8393 10.1244L24.2767 10.5542C24.3975 10.5763 24.5047 10.6452 24.5752 10.7458C24.6456 10.8464 24.6736 10.9707 24.6532 11.0918L22.6922 22.2124L24.0632 22.4542C24.184 22.4764 24.2912 22.5452 24.3617 22.6458C24.4321 22.7464 24.4601 22.8707 24.4397 22.9918L24.1174 24.8198Z" fill="url(#paint0_linear_27_2830)"/>
<path d="M3.59519 11.1484L4.45475 6.27362C4.4687 6.19452 4.50293 6.1204 4.55411 6.0585C4.60529 5.9966 4.67166 5.94904 4.74672 5.92048C4.82179 5.89191 4.90298 5.88332 4.98236 5.89554C5.06174 5.90776 5.1366 5.94037 5.1996 5.99018L10.1627 9.91259C10.2284 9.96453 10.2788 10.0333 10.3086 10.1116C10.3383 10.1898 10.3464 10.2747 10.3318 10.3572L9.47224 15.232C9.45829 15.3111 9.42406 15.3852 9.37288 15.4471C9.3217 15.509 9.25533 15.5566 9.18027 15.5851C9.1052 15.6137 9.02401 15.6223 8.94463 15.6101C8.86525 15.5979 8.79039 15.5652 8.72739 15.5154L3.76433 11.593C3.69864 11.5411 3.64824 11.4723 3.61846 11.394C3.58868 11.3158 3.58064 11.2309 3.59519 11.1484ZM41.7761 12.4497C41.7154 12.3972 41.642 12.3614 41.5632 12.3457C41.4845 12.33 41.403 12.3351 41.3268 12.3604L35.3215 14.3488C35.242 14.3751 35.1712 14.4225 35.1164 14.4859C35.0616 14.5492 35.025 14.6262 35.0105 14.7087L34.1509 19.5835C34.137 19.6626 34.1438 19.744 34.1707 19.8196C34.1977 19.8953 34.2438 19.9627 34.3045 20.0152C34.3653 20.0677 34.4387 20.1036 34.5174 20.1192C34.5962 20.1349 34.6777 20.1299 34.7539 20.1046L40.7592 18.1162C40.8387 18.0899 40.9096 18.0425 40.9643 17.9792C41.0191 17.9158 41.0557 17.8388 41.0702 17.7563L41.9298 12.8815C41.9438 12.8024 41.937 12.721 41.91 12.6453C41.8831 12.5696 41.8369 12.5022 41.7761 12.4497Z" fill="url(#paint1_linear_27_2830)"/>
<path d="M39.8018 21.0071L33.7971 22.9956C33.7175 23.0218 33.6465 23.0691 33.5917 23.1325C33.5369 23.1959 33.5003 23.2729 33.4857 23.3555L32.7512 27.5215L19.1551 32.4732L8.0725 23.17L8.80708 19.0039C8.82168 18.9214 8.81363 18.8365 8.78378 18.7582C8.75394 18.6799 8.70342 18.6112 8.63761 18.5593L3.67515 14.637C3.61214 14.5871 3.53727 14.5545 3.45786 14.5423C3.37846 14.53 3.29724 14.5386 3.22215 14.5672C3.14705 14.5957 3.08066 14.6433 3.02945 14.7052C2.97824 14.7671 2.94398 14.8413 2.93001 14.9204L2.07047 19.7952C2.05601 19.8776 2.06407 19.9624 2.09379 20.0407C2.12351 20.1189 2.1738 20.1877 2.23935 20.2397L3.67639 21.3773L3.08298 24.7427C3.06883 24.8229 3.07605 24.9054 3.10391 24.982C3.13177 25.0585 3.1793 25.1263 3.24171 25.1787L18.0191 37.5794C18.0815 37.6318 18.1566 37.6668 18.2368 37.6809C18.317 37.6951 18.3996 37.6878 18.4761 37.6599L36.6036 31.0613C36.6802 31.0334 36.748 30.9859 36.8004 30.9235C36.8527 30.8611 36.8878 30.7861 36.9019 30.7058L37.4953 27.3404L39.2347 26.763C39.3141 26.7365 39.3849 26.6891 39.4396 26.6258C39.4943 26.5624 39.5309 26.4855 39.5455 26.403L40.405 21.5282C40.419 21.4491 40.4121 21.3677 40.3852 21.2921C40.3582 21.2164 40.3121 21.149 40.2513 21.0965C40.1905 21.0439 40.1171 21.0081 40.0383 20.9924C39.9595 20.9768 39.878 20.9818 39.8018 21.0071Z" fill="url(#paint2_linear_27_2830)"/>
<defs>
<linearGradient id="paint0_linear_27_2830" x1="28.7878" y1="27.5053" x2="14.7991" y2="7.51404" gradientUnits="userSpaceOnUse">
<stop stop-color="#432256"/>
<stop offset="1" stop-color="#602D83"/>
</linearGradient>
<linearGradient id="paint1_linear_27_2830" x1="31.5593" y1="24.5961" x2="13.9655" y2="-0.547283" gradientUnits="userSpaceOnUse">
<stop stop-color="#AABFCF"/>
<stop offset="1" stop-color="#D0E2ED"/>
</linearGradient>
<linearGradient id="paint2_linear_27_2830" x1="30.3605" y1="35.4661" x2="11.6145" y2="8.67716" gradientUnits="userSpaceOnUse">
<stop stop-color="#31B1AE"/>
<stop offset="1" stop-color="#7ECCCA"/>
</linearGradient>
</defs>
</svg>
