<svg width="61" height="60" viewBox="0 0 61 60" fill="none" xmlns="http://www.w3.org/2000/svg">
<g clip-path="url(#clip0_160_69)">
<path d="M27.6424 1.98301L27.641 1.98418C24.671 -0.035431 20.431 0.130038 15.1072 3.20387C7.03988 7.86148 0.5 17.1755 0.5 24.0075L31.2857 41.9302L57.8759 19.5041L27.6424 1.98301Z" fill="url(#paint0_linear_160_69)"/>
<path d="M18.9688 5.43447C23.8836 2.59701 27.8737 2.23947 30.7946 3.78986L29.7161 3.1649L29.7147 3.16607C26.7448 1.14646 22.5047 1.31193 17.1809 4.38564C9.11361 9.04349 2.57373 18.3576 2.57373 25.1895L4.36189 26.2304C4.36682 19.3992 10.9045 10.0904 18.9688 5.43447Z" fill="#AB2C37"/>
<path d="M27.0133 10.1272C31.928 7.28979 35.9181 6.93225 38.839 8.48264L37.7605 7.85768L37.7591 7.85885C34.7893 5.83936 30.5492 6.00482 25.2254 9.07854C17.158 13.7362 10.6182 23.0503 10.6182 29.8821L12.4063 30.9232C12.4113 24.092 18.9489 14.7831 27.0133 10.1272Z" fill="#AB2C37"/>
<path d="M35.0532 14.798C39.9679 11.9605 43.958 11.603 46.8789 13.1534L45.8005 12.5284L45.7991 12.5296C42.8292 10.51 38.5891 10.6755 33.2653 13.7492C25.198 18.407 18.6582 27.7211 18.6582 34.553L20.4464 35.594C20.4512 28.7628 26.9889 19.454 35.0532 14.798Z" fill="#AB2C37"/>
<path d="M42.9917 19.4291C47.9064 16.5916 51.8965 16.2341 54.8174 17.7845L53.7389 17.1595L53.7375 17.1607C50.7677 15.1411 46.5276 15.3066 41.2038 18.3803C33.1366 23.0381 26.5967 32.3522 26.5967 39.1841L28.3848 40.2251C28.3896 33.3939 34.9274 24.0851 42.9917 19.4291Z" fill="#AB2C37"/>
<path d="M45.8928 21.1267C37.886 25.7494 31.3872 34.9577 31.2902 41.775L31.2883 41.7796L0.5 24.0075V40.4277C0.5 41.5737 1.11137 42.6326 2.10371 43.2055L29.0142 58.7422C30.4214 59.5547 32.1552 59.5546 33.5622 58.742L58.8965 44.1109C59.8887 43.5378 60.4999 42.4791 60.4999 41.3333V25.0634C60.5 18.2316 53.9601 16.4689 45.8928 21.1267Z" fill="url(#paint1_linear_160_69)"/>
<path d="M58.8966 40.2655L33.5623 54.8965C32.1553 55.7091 30.4215 55.7092 29.0142 54.8968L2.10371 39.3601C1.11137 38.7872 0.5 37.7283 0.5 36.5823V40.4275C0.5 41.5735 1.11137 42.6324 2.10371 43.2054L29.0142 58.7422C30.4214 59.5545 32.1552 59.5545 33.5623 58.7418L58.8966 44.1109C59.8889 43.5378 60.5 42.479 60.5 41.3333V37.488C60.5 38.6336 59.8887 39.6924 58.8966 40.2655Z" fill="url(#paint2_linear_160_69)"/>
<path d="M42.3794 53.6469L52.8969 47.5746V37.2085L42.3794 43.3052V53.6469Z" fill="#43386B"/>
<path d="M9.85795 38.3182L6.48682 36.3797V31.1101L9.85795 33.0643V38.3182Z" fill="#43386B"/>
<path d="M22.2095 45.5263L18.8384 43.5878V38.3181L22.2095 40.2723V45.5263Z" fill="#43386B"/>
<path d="M42.3794 40.1637L45.7505 38.2251V32.9556L42.3794 34.9097V40.1637Z" fill="#43386B"/>
<path d="M49.5254 36.0269L52.8965 34.0884V28.8188L49.5254 30.7729V36.0269Z" fill="#43386B"/>
</g>
<defs>
<linearGradient id="paint0_linear_160_69" x1="19.9611" y1="35.7114" x2="36.2932" y2="7.42343" gradientUnits="userSpaceOnUse">
<stop stop-color="#AB2C37"/>
<stop offset="0.2007" stop-color="#B52F3B"/>
<stop offset="0.5471" stop-color="#D13846"/>
<stop offset="0.9952" stop-color="#FE4757"/>
<stop offset="1" stop-color="#FF4757"/>
</linearGradient>
<linearGradient id="paint1_linear_160_69" x1="27.2928" y1="38.9378" x2="32.1018" y2="38.9378" gradientUnits="userSpaceOnUse">
<stop stop-color="#C5BAEB"/>
<stop offset="1" stop-color="#D7D1EB"/>
</linearGradient>
<linearGradient id="paint2_linear_160_69" x1="28.0502" y1="47.9668" x2="34.7935" y2="47.9668" gradientUnits="userSpaceOnUse">
<stop stop-color="#AB2C37"/>
<stop offset="0.2007" stop-color="#B52F3B"/>
<stop offset="0.5471" stop-color="#D13846"/>
<stop offset="0.9952" stop-color="#FE4757"/>
<stop offset="1" stop-color="#FF4757"/>
</linearGradient>
<clipPath id="clip0_160_69">
<rect width="60" height="60" fill="white" transform="translate(0.5)"/>
</clipPath>
</defs>
</svg>
