<svg width="14" height="15" viewBox="0 0 14 15" fill="none" xmlns="http://www.w3.org/2000/svg">
<path d="M6.99981 11.5833C6.88395 11.584 6.77051 11.5502 6.67395 11.4861C6.5774 11.4221 6.50211 11.3307 6.45768 11.2237C6.41325 11.1167 6.40169 10.9989 6.42448 10.8853C6.44727 10.7717 6.50338 10.6674 6.58565 10.5858L9.67731 7.5L6.58565 4.41417C6.49008 4.30257 6.44014 4.15903 6.44581 4.01222C6.45148 3.86541 6.51234 3.72614 6.61623 3.62226C6.72012 3.51837 6.85939 3.45751 7.0062 3.45184C7.15301 3.44617 7.29655 3.4961 7.40814 3.59167L10.9081 7.09167C11.0168 7.20096 11.0778 7.34881 11.0778 7.50292C11.0778 7.65703 11.0168 7.80487 10.9081 7.91417L7.40814 11.4142C7.29949 11.5219 7.15284 11.5827 6.99981 11.5833Z" fill="#6AC8FF"/>
<path d="M3.49981 11.5833C3.38395 11.584 3.27051 11.5502 3.17395 11.4861C3.0774 11.4221 3.00211 11.3307 2.95768 11.2237C2.91325 11.1167 2.90169 10.9989 2.92448 10.8853C2.94727 10.7717 3.00338 10.6674 3.08565 10.5858L6.17731 7.5L3.08565 4.41417C2.9758 4.30432 2.91409 4.15534 2.91409 4C2.91409 3.84466 2.9758 3.69568 3.08565 3.58583C3.19549 3.47599 3.34447 3.41428 3.49981 3.41428C3.65515 3.41428 3.80413 3.47599 3.91398 3.58583L7.41398 7.08583C7.52263 7.19513 7.58361 7.34298 7.58361 7.49708C7.58361 7.65119 7.52263 7.79904 7.41398 7.90833L3.91398 11.4083C3.85995 11.4635 3.79553 11.5073 3.72443 11.5373C3.65334 11.5674 3.57699 11.583 3.49981 11.5833Z" fill="#6AC8FF"/>
</svg>
