<svg width="32" height="32" viewBox="0 0 32 32" fill="none" xmlns="http://www.w3.org/2000/svg">
<path d="M30.1168 19.0749C29.4878 18.0966 28.8589 17.1531 28.2299 16.1747C28.0901 15.9651 28.0901 15.8253 28.2299 15.6156C28.8589 14.6722 29.4529 13.7287 30.0819 12.7853C30.8156 11.6671 30.4313 10.5839 29.1733 10.1297C28.1251 9.74529 27.0768 9.32598 26.0285 8.94162C25.8189 8.87173 25.714 8.73196 25.714 8.48736C25.6791 7.33426 25.6092 6.18115 25.5393 5.06299C25.4694 3.84001 24.526 3.14116 23.3379 3.45564C22.2198 3.73518 21.1016 4.04966 20.0184 4.36414C19.7738 4.43403 19.634 4.36414 19.4593 4.18943C18.7605 3.28092 18.0267 2.40736 17.3278 1.5338C16.5591 0.555405 15.371 0.555405 14.5674 1.5338C13.8685 2.40736 13.1347 3.28092 12.4708 4.15449C12.2961 4.39908 12.1214 4.43403 11.8419 4.36414C10.7586 4.04966 9.67542 3.77012 8.90668 3.56046C7.40415 3.21104 6.49565 3.80506 6.42576 5.06299C6.35588 6.2161 6.28599 7.3692 6.25105 8.55725C6.25105 8.80184 6.14622 8.90667 5.93657 9.0115C4.85335 9.43081 3.77013 9.85012 2.68691 10.2694C1.56875 10.7237 1.21933 11.8069 1.88323 12.8202C2.5122 13.7986 3.14117 14.7421 3.77013 15.7205C3.9099 15.9301 3.9099 16.0699 3.77013 16.3145C3.10622 17.2929 2.47726 18.2713 1.84829 19.2846C1.25427 20.2281 1.63863 21.3462 2.68691 21.7655C3.77013 22.1848 4.88829 22.6041 5.9715 23.0235C6.2161 23.0933 6.28598 23.2331 6.28598 23.4777C6.32093 24.5959 6.4607 25.6791 6.4607 26.7972C6.4607 27.9154 7.43909 28.9287 8.80184 28.5094C9.88506 28.16 10.9683 27.9154 12.0515 27.6009C12.2612 27.531 12.4009 27.566 12.5407 27.7756C13.2745 28.6841 13.9733 29.5577 14.7071 30.4662C15.5108 31.4446 16.6639 31.4446 17.4326 30.4662C18.1664 29.5577 18.8653 28.6841 19.5991 27.7756C19.7388 27.6009 19.8437 27.531 20.0883 27.6009C21.2064 27.9154 22.3246 28.1949 23.4428 28.5094C24.5959 28.8239 25.5743 28.1251 25.6092 26.937C25.6791 25.7839 25.749 24.6308 25.7839 23.4428C25.7839 23.1632 25.9237 23.0584 26.1333 22.9885C27.1816 22.6041 28.2648 22.1848 29.3131 21.7655C30.4313 21.2064 30.7807 20.0883 30.1168 19.0749ZM21.7655 13.3444L14.777 20.3329C14.6023 20.5076 14.3577 20.6474 14.1131 20.6823C14.0432 20.6823 13.9384 20.7173 13.8685 20.7173C13.554 20.7173 13.2046 20.5775 12.96 20.3329L10.0947 17.4676C9.60554 16.9784 9.60554 16.1747 10.0947 15.6855C10.5839 15.1963 11.3876 15.1963 11.8768 15.6855L13.8336 17.6423L19.9136 11.5623C20.4028 11.0731 21.2065 11.0731 21.6957 11.5623C22.2547 12.0515 22.2547 12.8552 21.7655 13.3444Z" fill="url(#paint0_linear_82_1044)"/>
<defs>
<linearGradient id="paint0_linear_82_1044" x1="0.00385499" y1="-1.57056" x2="29.4493" y2="30.6982" gradientUnits="userSpaceOnUse">
<stop stop-color="#97E0FF"/>
<stop offset="1" stop-color="#1075FF"/>
</linearGradient>
</defs>
</svg>
