<svg width="16" height="16" viewBox="0 0 16 16" fill="none" xmlns="http://www.w3.org/2000/svg">
<g clip-path="url(#clip0_101_763)">
<path d="M7.3335 7.33386C8.43807 7.33386 9.3335 6.43843 9.3335 5.33386C9.3335 4.22929 8.43807 3.33386 7.3335 3.33386C6.22893 3.33386 5.3335 4.22929 5.3335 5.33386C5.3335 6.43843 6.22893 7.33386 7.3335 7.33386Z" fill="#121212"/>
<path d="M7.33328 7.33386C5.6151 7.33386 4.22217 8.72662 4.22217 10.445H10.4443C10.4443 8.72662 9.05141 7.33386 7.33328 7.33386Z" fill="#121212"/>
<path d="M15.8047 14.8614L12.9668 12.0233C14.0275 10.7512 14.6667 9.11584 14.6667 7.33388C14.6667 3.29028 11.3769 0.000549316 7.33333 0.000549316C3.28973 0.000549316 0 3.29024 0 7.33388C0 11.3775 3.28973 14.6672 7.33333 14.6672C9.11587 14.6672 10.7517 14.0276 12.024 12.9663L14.862 15.8042C14.9921 15.9344 15.1628 15.9994 15.3333 15.9994C15.5039 15.9994 15.6746 15.9344 15.8047 15.8042C16.0651 15.5438 16.0651 15.1217 15.8047 14.8614ZM1.33333 7.33388C1.33333 4.02548 4.02493 1.33388 7.33333 1.33388C10.6417 1.33388 13.3333 4.02548 13.3333 7.33388C13.3333 10.6423 10.6417 13.3339 7.33333 13.3339C4.02493 13.3339 1.33333 10.6423 1.33333 7.33388Z" fill="#121212"/>
</g>
<defs>
<clipPath id="clip0_101_763">
<rect width="16" height="16" fill="white"/>
</clipPath>
</defs>
</svg>
