<svg width="40" height="40" viewBox="0 0 40 40" fill="none" xmlns="http://www.w3.org/2000/svg">
<path fill-rule="evenodd" clip-rule="evenodd" d="M20.9591 22.4552C15.0167 21.9578 8.96544 23.1493 3.54538 26.0295C2.64307 26.509 2.0791 27.4473 2.0791 28.4692V34.589C2.0791 36.1998 3.38494 37.5057 4.99577 37.5057H20.8699C18.0367 36.2498 15.6798 34.1188 14.142 31.4605C13.6194 30.557 13.6194 29.443 14.142 28.5395C15.6959 25.8533 18.0862 23.7057 20.9591 22.4552Z" fill="#9B79EE"/>
<path fill-rule="evenodd" clip-rule="evenodd" d="M19.2968 2.08334C14.4644 2.08334 10.5469 6.00086 10.5469 10.8333C10.5469 15.6658 14.4644 19.5833 19.2968 19.5833C24.1293 19.5833 28.0468 15.6658 28.0468 10.8333C28.0468 6.00086 24.1293 2.08334 19.2968 2.08334Z" fill="#9B79EE"/>
<path fill-rule="evenodd" clip-rule="evenodd" d="M26.6667 29.5833C26.4365 29.5833 26.25 29.7698 26.25 30C26.25 30.2302 26.4365 30.4167 26.6667 30.4167C26.8968 30.4167 27.0833 30.2302 27.0833 30C27.0833 29.7698 26.8968 29.5833 26.6667 29.5833ZM23.75 30C23.75 28.3892 25.0558 27.0833 26.6667 27.0833C28.2775 27.0833 29.5833 28.3892 29.5833 30C29.5833 31.6108 28.2775 32.9167 26.6667 32.9167C25.0558 32.9167 23.75 31.6108 23.75 30Z" fill="#9B79EE"/>
<path d="M26.25 30C26.25 29.7698 26.4365 29.5833 26.6667 29.5833C26.8968 29.5833 27.0833 29.7698 27.0833 30C27.0833 30.2302 26.8968 30.4167 26.6667 30.4167C26.4365 30.4167 26.25 30.2302 26.25 30Z" fill="#9B79EE"/>
<path fill-rule="evenodd" clip-rule="evenodd" d="M18.1408 30C20.0152 32.7678 23.1823 34.5833 26.7723 34.5833C30.3623 34.5833 33.5297 32.7678 35.404 30C33.5297 27.2322 30.3623 25.4167 26.7723 25.4167C23.1823 25.4167 20.0152 27.2322 18.1408 30ZM15.5845 29.3742C17.816 25.5165 21.9898 22.9167 26.7723 22.9167C31.555 22.9167 35.7288 25.5165 37.9603 29.3742C38.1842 29.7613 38.1842 30.2387 37.9603 30.6258C35.7288 34.4835 31.555 37.0833 26.7723 37.0833C21.9898 37.0833 17.816 34.4835 15.5845 30.6258C15.3605 30.2387 15.3605 29.7613 15.5845 29.3742Z" fill="#9B79EE"/>
</svg>
