<svg width="40" height="41" viewBox="0 0 40 41" fill="none" xmlns="http://www.w3.org/2000/svg">
<rect y="0.399902" width="40" height="40" rx="20" fill="#005CF8"/>
<path d="M27.633 16.3969C27.646 16.5719 27.646 16.7459 27.646 16.9199C27.646 22.2449 23.593 28.3809 16.186 28.3809C13.904 28.3809 11.784 27.7199 10 26.5719C10.324 26.6089 10.636 26.6219 10.973 26.6219C12.786 26.6263 14.5476 26.0201 15.974 24.9009C15.1334 24.8857 14.3186 24.6084 13.6432 24.1077C12.9679 23.607 12.4658 22.9078 12.207 22.1079C12.456 22.1449 12.706 22.1699 12.968 22.1699C13.329 22.1699 13.692 22.1199 14.029 22.0329C13.1168 21.8488 12.2965 21.3543 11.7076 20.6336C11.1188 19.913 10.7977 19.0106 10.799 18.0799V18.0299C11.336 18.3289 11.959 18.5159 12.619 18.5409C12.0661 18.1735 11.6127 17.675 11.2993 17.0897C10.986 16.5045 10.8223 15.8508 10.823 15.1869C10.823 14.4389 11.022 13.7529 11.371 13.1549C12.3831 14.4 13.6455 15.4185 15.0763 16.1446C16.5072 16.8707 18.0746 17.2882 19.677 17.3699C19.615 17.0699 19.577 16.7589 19.577 16.4469C19.5767 15.9179 19.6807 15.394 19.8831 14.9052C20.0854 14.4164 20.3821 13.9722 20.7562 13.5981C21.1303 13.224 21.5744 12.9274 22.0632 12.725C22.5521 12.5227 23.076 12.4187 23.605 12.4189C24.765 12.4189 25.812 12.9049 26.548 13.6909C27.4498 13.5166 28.3145 13.1874 29.104 12.7179C28.8034 13.6488 28.1738 14.438 27.333 14.9379C28.1328 14.8467 28.9144 14.6364 29.652 14.3139C29.1011 15.117 28.4185 15.8213 27.633 16.3969Z" fill="white"/>
</svg>
