<svg width="70" height="70" viewBox="0 0 70 70" fill="none" xmlns="http://www.w3.org/2000/svg">
<circle cx="35" cy="35" r="35" fill="#F9F1ED"/>
<path d="M18.5865 54.1664C17.7858 53.3657 17.7858 52.0676 18.5865 51.2669C19.3872 50.4662 20.6853 50.4662 21.486 51.2669L30.8893 60.6701C31.6899 61.4708 31.6899 62.769 30.8893 63.5697C30.0886 64.3704 28.7904 64.3704 27.9897 63.5697L18.5865 54.1664Z" fill="#665252"/>
<path d="M39.0923 63.572C38.2916 62.7713 38.2917 61.4731 39.0924 60.6725L48.4956 51.2693C49.2963 50.4687 50.5944 50.4687 51.3951 51.2693C52.1958 52.07 52.1958 53.3682 51.3951 54.1689L41.9919 63.5721C41.1912 64.3728 39.893 64.3728 39.0923 63.572Z" fill="#4D3636"/>
<path d="M57.5586 51.2695H12.4414V24.6094H57.5586V51.2695Z" fill="#DDA496"/>
<path d="M35 36.9141V51.2695H57.5586V24.6094H35V36.9141Z" fill="#D78D7B"/>
<path d="M45.2539 48.2695C45.2539 49.9264 43.9108 51.2695 42.2539 51.2695H27.7461C26.0892 51.2695 24.7461 49.9264 24.7461 48.2695V35.8125C24.7461 34.1556 26.0892 32.8125 27.7461 32.8125H42.2539C43.9108 32.8125 45.2539 34.1556 45.2539 35.8125V48.2695Z" fill="#665252"/>
<path d="M35 32.8125H42.2539C43.9108 32.8125 45.2539 34.1556 45.2539 35.8125V48.2695C45.2539 49.9264 43.9108 51.2695 42.2539 51.2695H35V32.8125Z" fill="#4D3636"/>
<path d="M28.8477 36.9141H41.1523V51.2695H28.8477V36.9141Z" fill="#D18E73"/>
<path d="M35 36.9141H41.1523V51.2695H35V36.9141Z" fill="#BF7664"/>
<path d="M62.9115 20.5078L37.0505 4.99146V2.05078C37.0505 0.918166 36.1323 0 34.9997 0C33.8671 0 32.9489 0.918167 32.9489 2.05078V4.99146L7.08789 20.5078H62.9115Z" fill="#FFDDCC"/>
<path d="M35 0V20.5078H62.9118L37.0508 4.99146V2.05078C37.0508 0.918166 36.1326 0 35 0Z" fill="#FFCCB3"/>
<path d="M54.94 20.5078L35.0003 8.54419L15.0605 20.5078H54.94Z" fill="#665252"/>
<path d="M35 20.5078H54.9397L35 8.54419V20.5078Z" fill="#4D3636"/>
<path d="M41.1523 70H28.8477V51.2695H41.1523V70Z" fill="#FFCCB3"/>
<path d="M8.33984 38.9648C8.33984 37.8322 9.25801 36.9141 10.3906 36.9141H24.7461C25.8787 36.9141 26.7969 37.8322 26.7969 38.9648C26.7969 40.0975 25.8787 41.0156 24.7461 41.0156H10.3906C9.25801 41.0156 8.33984 40.0975 8.33984 38.9648Z" fill="#665252"/>
<path d="M43.2031 38.9648C43.2031 37.8322 44.1213 36.9141 45.2539 36.9141H59.6094C60.742 36.9141 61.6602 37.8322 61.6602 38.9648C61.6602 40.0975 60.742 41.0156 59.6094 41.0156H45.2539C44.1213 41.0156 43.2031 40.0975 43.2031 38.9648Z" fill="#4D3636"/>
<path d="M53.457 24.6094H57.5586V51.2695H53.457V24.6094Z" fill="#4D3636"/>
<path d="M12.4414 24.6094H16.543V51.2695H12.4414V24.6094Z" fill="#665252"/>
<path d="M63.8477 8.20312C62.715 8.20312 61.7969 9.12129 61.7969 10.2539C61.7969 11.3865 62.715 12.3047 63.8477 12.3047C64.9791 12.3047 65.8984 13.224 65.8984 14.3555C65.8984 15.487 64.9791 16.4062 63.8477 16.4062H6.15234C5.02086 16.4062 4.10156 15.487 4.10156 14.3555C4.10156 13.224 5.02086 12.3047 6.15234 12.3047C7.28496 12.3047 8.20312 11.3865 8.20312 10.2539C8.20312 9.12129 7.28496 8.20312 6.15234 8.20312C2.7598 8.20312 0 10.9629 0 14.3555V18.457C0 24.1108 4.60018 28.7109 10.2539 28.7109H59.7461C65.3998 28.7109 70 24.1108 70 18.457V14.3555C70 10.9629 67.2402 8.20312 63.8477 8.20312Z" fill="#FFB366"/>
<path d="M35 51.2695H41.1523V70H35V51.2695Z" fill="#FFBB99"/>
<path d="M63.8477 8.20312C62.715 8.20312 61.7969 9.12129 61.7969 10.2539C61.7969 11.3865 62.715 12.3047 63.8477 12.3047C64.9791 12.3047 65.8984 13.224 65.8984 14.3555C65.8984 15.487 64.9791 16.4062 63.8477 16.4062H35V28.7109H59.7461C65.3998 28.7109 70 24.1108 70 18.457V14.3555C70 10.9629 67.2402 8.20312 63.8477 8.20312Z" fill="#FF884D"/>
<path d="M8.33984 51.2695C8.33984 50.1369 9.25801 49.2188 10.3906 49.2188H59.6094C60.742 49.2188 61.6602 50.1369 61.6602 51.2695C61.6602 52.4021 60.742 53.3203 59.6094 53.3203H10.3906C9.25801 53.3203 8.33984 52.4021 8.33984 51.2695Z" fill="#665252"/>
<path d="M35 49.2188H59.6094C60.742 49.2188 61.6602 50.1369 61.6602 51.2695C61.6602 52.4021 60.742 53.3203 59.6094 53.3203H35V49.2188Z" fill="#4D3636"/>
</svg>
