<svg width="17" height="16" viewBox="0 0 17 16" fill="none" xmlns="http://www.w3.org/2000/svg">
<path d="M13.2847 1.98207C12.0066 0.703908 10.3072 0 8.49962 0C6.69206 0 4.99262 0.703908 3.71449 1.98207C2.43633 3.26026 1.73242 4.95963 1.73242 6.76717C1.73242 10.4238 5.18987 13.4652 7.04734 15.0992C7.30546 15.3262 7.52837 15.5223 7.70597 15.6882C7.92847 15.896 8.21406 16 8.49959 16C8.78519 16 9.07072 15.896 9.29325 15.6882C9.47084 15.5223 9.69375 15.3262 9.95188 15.0992C11.8093 13.4652 15.2668 10.4238 15.2668 6.76717C15.2668 4.95963 14.5629 3.26026 13.2847 1.98207ZM9.33281 14.3955C9.06903 14.6275 8.84125 14.8279 8.65344 15.0033C8.56715 15.0838 8.43203 15.0839 8.34572 15.0033C8.15793 14.8278 7.93012 14.6275 7.66634 14.3954C5.92009 12.8593 2.66961 9.99999 2.66961 6.7672C2.66961 3.55257 5.2849 0.937283 8.49956 0.937283C11.7142 0.937283 14.3295 3.55257 14.3295 6.7672C14.3295 9.99999 11.0791 12.8593 9.33281 14.3955Z" fill="#121212"/>
<path d="M8.4998 3.5293C6.85539 3.5293 5.51758 4.86708 5.51758 6.51149C5.51758 8.1559 6.85539 9.49368 8.4998 9.49368C10.1442 9.49368 11.482 8.1559 11.482 6.51149C11.482 4.86708 10.1442 3.5293 8.4998 3.5293ZM8.4998 8.5564C7.37221 8.5564 6.45483 7.63902 6.45483 6.51146C6.45483 5.38389 7.37221 4.46652 8.4998 4.46652C9.6274 4.46652 10.5447 5.38389 10.5447 6.51146C10.5447 7.63902 9.6274 8.5564 8.4998 8.5564Z" fill="#121212"/>
</svg>
