<svg width="20" height="12" viewBox="0 0 20 12" fill="none" xmlns="http://www.w3.org/2000/svg">
<path d="M19.7351 5.03303L18.3151 3.40303C18.6951 2.90303 18.9151 2.54303 18.9451 2.48303C19.2251 2.01303 19.0651 1.39303 18.5951 1.11303C18.1251 0.833035 17.5051 0.983034 17.2251 1.46303C17.1951 1.51303 14.3351 6.21303 9.9751 6.21303C5.61509 6.21303 2.96509 1.71303 2.78509 1.40303C2.64509 1.09303 2.3551 0.863035 1.9851 0.813035C1.4251 0.753035 0.945087 1.14303 0.875087 1.69303C0.825087 2.09303 1.23508 2.76303 1.68508 3.37303L0.235097 5.03303C-0.124903 5.45303 -0.0849229 6.08303 0.335077 6.44303C0.525077 6.61303 0.755077 6.69303 0.995077 6.69303C1.27508 6.69303 1.55508 6.57303 1.74508 6.35303L3.00509 4.91303C3.52509 5.44304 4.12509 5.98303 4.81509 6.47303L3.5751 8.74303C3.3151 9.22303 3.48509 9.83304 3.97509 10.103C4.12509 10.183 4.2951 10.223 4.4551 10.223C4.8051 10.223 5.15508 10.033 5.33508 9.70303L6.55508 7.47303C7.29508 7.80303 8.1151 8.03303 8.9951 8.14303V10.193C8.9951 10.743 9.4451 11.193 9.9951 11.193C10.5451 11.193 10.9951 10.743 10.9951 10.193V8.15303C11.8751 8.04303 12.6851 7.79303 13.4251 7.46303L14.6551 9.71303C14.8351 10.043 15.1751 10.233 15.5351 10.233C15.6951 10.233 15.8651 10.193 16.0151 10.113C16.4951 9.85303 16.6751 9.24303 16.4151 8.75303L15.1751 6.48303C15.8851 5.99303 16.4951 5.45303 17.0151 4.92303L18.2451 6.33303C18.4451 6.56304 18.7151 6.67303 18.9951 6.67303C19.2251 6.67303 19.4651 6.59303 19.6551 6.42303C20.0751 6.06303 20.1151 5.43303 19.7551 5.01303L19.7351 5.03303Z" fill="#A1A1A1"/>
</svg>
