<svg width="40" height="40" viewBox="0 0 40 40" fill="none" xmlns="http://www.w3.org/2000/svg">
<path d="M15.2436 30.8055V38.7084C15.2436 39.8533 13.8542 40.4331 13.0413 39.6205L5.1383 31.7175C4.31414 30.893 4.92049 29.5152 6.05037 29.5152H13.9533C14.6662 29.5152 15.2436 30.0926 15.2436 30.8055ZM35.243 3.87084V36.1279C35.243 38.2657 33.51 39.9987 31.3721 39.9987H17.625C16.9105 39.9987 16.3323 39.4181 16.3347 38.7028C16.3396 37.5157 16.3323 35.0884 16.3323 29.9853C16.3323 29.1241 15.6347 28.4265 14.7735 28.4265C9.67122 28.4265 7.24307 28.4192 6.05602 28.4241C5.34072 28.4265 4.76009 27.8483 4.76009 27.1338V3.87084C4.76009 1.73301 6.4931 0 8.63093 0H31.3721C33.51 0 35.243 1.73301 35.243 3.87084ZM15.2773 10.3847L17.9013 13.0087C18.4051 13.5126 19.2222 13.5125 19.726 13.0087L26.0564 6.67825C26.5604 6.1744 26.5604 5.35741 26.0564 4.85355C25.5526 4.34962 24.7356 4.34962 24.2317 4.85355L18.8136 10.2716L17.1019 8.55989C16.598 8.05603 15.781 8.05603 15.2772 8.55989C14.7733 9.0639 14.7733 9.88081 15.2773 10.3847ZM28.5496 31.2893C28.5496 30.5768 27.972 29.999 27.2594 29.999H19.7596C19.047 29.999 18.4693 30.5768 18.4693 31.2893C18.4693 32.0019 19.047 32.5796 19.7596 32.5796H27.2594C27.972 32.5796 28.5496 32.0019 28.5496 31.2893ZM28.5496 24.6766C28.5496 23.9641 27.972 23.3863 27.2594 23.3863H12.6631C11.9504 23.3863 11.3728 23.9641 11.3728 24.6766C11.3728 25.3892 11.9504 25.9669 12.6631 25.9669H27.2594C27.972 25.9669 28.5496 25.3892 28.5496 24.6766ZM28.5496 18.0639C28.5496 17.3514 27.972 16.7737 27.2594 16.7737H12.6631C11.9504 16.7737 11.3728 17.3514 11.3728 18.0639C11.3728 18.7765 11.9504 19.3542 12.6631 19.3542H27.2594C27.972 19.3542 28.5496 18.7765 28.5496 18.0639Z" fill="#3DB8FF"/>
</svg>
