<svg width="70" height="70" viewBox="0 0 70 70" fill="none" xmlns="http://www.w3.org/2000/svg">
<circle cx="35" cy="35" r="35" fill="#F9F1ED"/>
<path d="M56.6562 34.2031C56.6562 39.1309 55.093 43.7527 52.1023 47.6609L35.9598 69.3203H33.207L16.8945 47.457C14.0059 43.6166 12.4766 39.0287 12.4766 34.2031C12.4766 22.0365 22.3998 12 34.5664 12C46.733 12 56.6562 22.0365 56.6562 34.2031Z" fill="#F47C7C"/>
<path d="M56.6562 34.2031C56.6562 39.1309 55.093 43.7527 52.1023 47.6609L35.9598 69.3203H34.5664V12C46.733 12 56.6562 22.0365 56.6562 34.2031Z" fill="#EE6161"/>
<path d="M48.1602 68.3008C48.1602 69.2521 47.4127 70 46.4609 70H22.6719C21.7201 70 20.9727 69.2521 20.9727 68.3008C20.9727 67.349 21.7201 66.6016 22.6719 66.6016H46.4609C47.4127 66.6016 48.1602 67.349 48.1602 68.3008Z" fill="#895D3C"/>
<path d="M48.1602 68.3008C48.1602 69.2521 47.4127 70 46.4609 70H34.5664V66.6016H46.4609C47.4127 66.6016 48.1602 67.349 48.1602 68.3008Z" fill="#714C2F"/>
<circle cx="35.0313" cy="34.5555" r="13.963" fill="white"/>
<path d="M21.0684 34.5555C21.0684 42.267 27.3198 48.5185 35.0313 48.5185V20.5925C27.3198 20.5925 21.0684 26.844 21.0684 34.5555Z" fill="#DFF6FD"/>
<path d="M44.3015 33.7033C44.113 33.5579 43.8784 33.4796 43.6371 33.4815C43.3959 33.4834 43.1626 33.5654 42.9766 33.7137L39.1817 36.7481C39.1817 36.7481 33.8163 40.2136 33.9599 40.1731C34.1034 40.1326 42.3334 44.6129 42.3334 44.6129L46.5739 42.4525C47.7074 40.887 48.5107 39.0828 48.8852 37.1322L44.3015 33.7033Z" fill="#97DA7B"/>
<path d="M39.2907 36.9605L46.683 42.665C44.1208 46.2038 39.8683 48.5185 35.0563 48.5185C29.3146 48.5185 24.3708 45.2237 22.1426 40.4853L32.1503 32.4852C32.5338 32.1794 33.087 32.1742 33.4751 32.4739L39.2907 36.9605Z" fill="#ADE194"/>
<path d="M39.2916 30.9712C40.417 30.9712 41.3294 30.0905 41.3294 29.0042C41.3294 27.9178 40.417 27.0371 39.2916 27.0371C38.1662 27.0371 37.2539 27.9178 37.2539 29.0042C37.2539 30.0905 38.1662 30.9712 39.2916 30.9712Z" fill="#FEF056"/>
</svg>
