<svg width="52" height="52" viewBox="0 0 52 52" fill="none" xmlns="http://www.w3.org/2000/svg">
<path fill-rule="evenodd" clip-rule="evenodd" d="M21.9379 7.86255C21.9379 7.64724 22.0232 7.44086 22.1759 7.28811C22.3279 7.13617 22.5351 7.05005 22.7504 7.05005H41.0755L50.3754 17.3631V30.3249C50.3754 30.3249 50.4046 41.0312 47.3634 46.1427C47.2156 46.3775 46.9572 46.5197 46.6793 46.5197C43.5699 46.5221 25.1091 46.5221 19.9489 46.5221C19.6637 46.5221 19.3996 46.3718 19.2526 46.128C19.1055 45.8835 19.0982 45.5796 19.2322 45.3277C21.7534 39.8539 21.9379 30.3249 21.9379 30.3249V7.86255Z" fill="#CADCF0"/>
<path fill-rule="evenodd" clip-rule="evenodd" d="M50.3754 30.3247C50.3754 30.3247 50.4046 41.031 47.3634 46.1425C47.2156 46.3773 46.9572 46.5195 46.6793 46.5195C43.5699 46.5219 25.1091 46.5219 19.9489 46.5219C19.6637 46.5219 19.3996 46.3716 19.2526 46.1278C19.1055 45.8833 19.0982 45.5794 19.2322 45.3275L19.2639 45.2576C29.2691 45.7281 43.7982 43.9755 45.7116 43.2264C47.7559 42.4261 50.3347 34.7463 50.3746 30.4255L50.3754 30.3247Z" fill="#A4BBDB"/>
<path fill-rule="evenodd" clip-rule="evenodd" d="M50.3751 17.3631C47.9083 16.3889 45.2969 16.3613 42.6165 16.7749C42.3679 16.8147 42.1152 16.735 41.9324 16.562C41.7496 16.3881 41.6586 16.1395 41.6854 15.8892C41.9795 12.8879 41.6829 9.95149 41.0752 7.05005C45.0061 9.96855 48.1098 13.403 50.3751 17.3631Z" fill="#347BFA"/>
<path fill-rule="evenodd" clip-rule="evenodd" d="M21.9378 9.80518C24.1104 10.0757 26.2132 11.0442 27.8804 12.7115C31.2141 16.0452 31.7552 21.12 29.5046 25.0192L30.8428 29.2629C30.9086 29.4717 30.8534 29.6992 30.699 29.8536C30.6608 29.891 30.6218 29.93 30.5852 29.9674C30.4398 30.112 30.2261 30.164 30.0311 30.1022L25.7663 28.7576C24.5687 29.449 23.2597 29.8772 21.9248 30.0413C21.9346 29.7724 21.9378 29.6245 21.9378 29.6245V9.80518Z" fill="#A4BBDB"/>
<path fill-rule="evenodd" clip-rule="evenodd" d="M24.7383 27.7613C21.0106 29.9136 16.1583 29.396 12.9709 26.2086C9.16595 22.4037 9.16595 16.2254 12.9709 12.4205C16.7758 8.61472 22.9541 8.61472 26.7598 12.4205C29.9465 15.6071 30.464 20.4593 28.3125 24.1871L29.5914 28.2447C29.6548 28.4438 29.6011 28.6615 29.4541 28.8086C29.4175 28.8452 29.381 28.8817 29.3452 28.9175C29.2063 29.0564 29.0023 29.106 28.8155 29.0475L24.7383 27.7613Z" fill="#E9F3FC"/>
<path fill-rule="evenodd" clip-rule="evenodd" d="M18.146 16.3977C18.1282 15.6225 18.4182 15.0579 18.8675 14.7264C19.5728 14.2064 20.6258 14.2283 21.1978 14.8726C21.444 15.1497 21.5862 15.5413 21.5902 16.0369C21.6 17.2248 21.0418 17.9195 20.4966 18.6394C19.7621 19.6087 19.0284 20.6048 18.9374 22.268C18.913 22.7157 19.2567 23.0992 19.7044 23.1235C20.1521 23.1479 20.5356 22.8042 20.56 22.3565C20.629 21.0931 21.2335 20.357 21.7917 19.6209C22.5392 18.6353 23.2282 17.6522 23.2152 16.0239C23.2071 15.0668 22.8878 14.3282 22.4133 13.7936C21.3042 12.5448 19.2689 12.4107 17.9031 13.4182C17.0841 14.0227 16.4885 15.0237 16.5218 16.4359C16.5324 16.8844 16.9045 17.2394 17.353 17.2289C17.8015 17.2183 18.1566 16.8462 18.146 16.3977Z" fill="#347BFA"/>
<path d="M19.6722 26.1413C20.2242 26.1413 20.6716 25.6939 20.6716 25.142C20.6716 24.59 20.2242 24.1426 19.6722 24.1426C19.1203 24.1426 18.6729 24.59 18.6729 25.142C18.6729 25.6939 19.1203 26.1413 19.6722 26.1413Z" fill="#347BFA"/>
<path fill-rule="evenodd" clip-rule="evenodd" d="M9.92604 5.98313L13.176 10.0716C13.4555 10.4226 13.9666 10.4811 14.3176 10.2024C14.6686 9.92376 14.7271 9.41188 14.4484 9.06088L11.1984 4.97238C10.9189 4.62138 10.4079 4.56288 10.0569 4.84157C9.70586 5.12107 9.64736 5.63213 9.92604 5.98313Z" fill="#347BFA"/>
<path fill-rule="evenodd" clip-rule="evenodd" d="M1.2204 8.01672L9.71265 12.8917C10.101 13.1152 10.5983 12.9811 10.8217 12.5919C11.0452 12.2027 10.9103 11.7063 10.5211 11.4828L2.02965 6.60785C1.64047 6.38441 1.14403 6.51847 0.920591 6.90766C0.697154 7.29685 0.831216 7.79328 1.2204 8.01672Z" fill="#347BFA"/>
<path fill-rule="evenodd" clip-rule="evenodd" d="M2.4375 17.0625H8.125C8.5735 17.0625 8.9375 16.6985 8.9375 16.25C8.9375 15.8015 8.5735 15.4375 8.125 15.4375H2.4375C1.989 15.4375 1.625 15.8015 1.625 16.25C1.625 16.6985 1.989 17.0625 2.4375 17.0625Z" fill="#347BFA"/>
</svg>
