<svg width="61" height="60" viewBox="0 0 61 60" fill="none" xmlns="http://www.w3.org/2000/svg">
<path d="M6.125 30.4688H2.84375C2.06703 30.4688 1.4375 29.8392 1.4375 29.0625C1.4375 28.2858 2.06703 27.6562 2.84375 27.6562H5.11156L5.72844 25.8056C5.91969 25.2309 6.45734 24.8438 7.0625 24.8438H11.75C12.5267 24.8438 13.1562 25.4733 13.1562 26.25C13.1562 27.0267 12.5267 27.6562 11.75 27.6562H8.07594L7.45906 29.5069C7.26734 30.0816 6.73016 30.4688 6.125 30.4688Z" fill="#A4EEFF"/>
<path d="M11.75 48.2812H7.0625C6.45734 48.2812 5.91969 47.8941 5.72844 47.3194L5.11156 45.4688H2.84375C2.06703 45.4688 1.4375 44.8392 1.4375 44.0625C1.4375 43.2858 2.06703 42.6562 2.84375 42.6562H6.125C6.73016 42.6562 7.26734 43.0434 7.45906 43.6181L8.07594 45.4688H11.75C12.5267 45.4688 13.1562 46.0983 13.1562 46.875C13.1562 47.6517 12.5267 48.2812 11.75 48.2812Z" fill="#A4EEFF"/>
<path d="M10.8125 37.9688H4.71875C3.94203 37.9688 3.3125 37.3392 3.3125 36.5625C3.3125 35.7858 3.94203 35.1562 4.71875 35.1562H10.8125C11.5892 35.1562 12.2188 35.7858 12.2188 36.5625C12.2188 37.3392 11.5892 37.9688 10.8125 37.9688Z" fill="#A4EEFF"/>
<path d="M53.9375 48.2812H49.25C48.4733 48.2812 47.8438 47.6517 47.8438 46.875C47.8438 46.0983 48.4733 45.4688 49.25 45.4688H52.9241L53.5409 43.6181C53.7322 43.0434 54.2698 42.6562 54.875 42.6562H58.1562C58.933 42.6562 59.5625 43.2858 59.5625 44.0625C59.5625 44.8392 58.933 45.4688 58.1562 45.4688H55.8884L55.2716 47.3194C55.0798 47.8941 54.5427 48.2812 53.9375 48.2812Z" fill="#A4EEFF"/>
<path d="M56.2812 37.9688H50.1875C49.4108 37.9688 48.7812 37.3392 48.7812 36.5625C48.7812 35.7858 49.4108 35.1562 50.1875 35.1562H56.2812C57.058 35.1562 57.6875 35.7858 57.6875 36.5625C57.6875 37.3392 57.058 37.9688 56.2812 37.9688Z" fill="#A4EEFF"/>
<path d="M50.6609 42.7219C50.1688 45.375 49.3531 47.9859 48.2141 50.4891L47.2484 52.6125C47.1078 52.9219 46.8594 53.1703 46.55 53.3109L44.4266 54.2766C40.0016 56.2875 35.2484 57.2953 30.5 57.2953C25.7469 57.2953 20.9984 56.2875 16.5734 54.2766L14.45 53.3109C14.1406 53.1703 13.8922 52.9219 13.7516 52.6125L12.7859 50.4891C8.76406 41.6391 8.76406 31.4859 12.7859 22.6359L13.7516 20.5125C13.8922 20.2031 14.1406 19.9547 14.45 19.8141L16.5734 18.8484C24.6875 15.1594 33.8984 14.8547 42.1953 17.9297C42.95 18.2062 43.6906 18.5156 44.4266 18.8484L46.55 19.8141C46.8594 19.9547 47.1078 20.2031 47.2484 20.5125L48.2141 22.6359C51.0969 28.9828 51.9125 35.9953 50.6609 42.7219Z" fill="url(#paint0_linear_160_207)"/>
<path d="M45.5 36.5625C45.5 36.8859 45.4906 37.2094 45.4672 37.5281C44.9703 45.3516 38.4453 51.5625 30.5 51.5625C22.2313 51.5625 15.5 44.8312 15.5 36.5625C15.5 28.2938 22.2313 21.5625 30.5 21.5625C32.7453 21.5625 34.8734 22.0594 36.7906 22.9453C41.9281 25.3313 45.5 30.5391 45.5 36.5625Z" fill="url(#paint1_linear_160_207)"/>
<path d="M45.5001 36.5625C45.5001 36.8859 45.4907 37.2094 45.4673 37.5281L33.7251 25.7859L36.7907 22.9453C41.9282 25.3313 45.5001 30.5391 45.5001 36.5625Z" fill="#6936BA"/>
<path d="M28.5403 30.9258C28.3388 30.3698 27.8105 30 27.2189 30C26.6274 30 26.0991 30.3698 25.8975 30.9258L22.1475 41.2383C21.8822 41.9686 22.2586 42.7748 22.9884 43.0406C23.7183 43.3045 24.5245 42.9295 24.7908 42.1997L25.1358 41.25H29.302L29.6475 42.1992C29.8552 42.7706 30.3947 43.1255 30.9689 43.1255C31.1288 43.1255 31.2909 43.0978 31.4494 43.0402C32.1792 42.7748 32.5556 41.9681 32.2903 41.2378L28.5403 30.9258ZM26.1586 38.4375L27.2189 35.5209L28.2792 38.4375H26.1586Z" fill="white"/>
<path d="M36.5938 30C35.817 30 35.1875 30.6295 35.1875 31.4062V41.7188C35.1875 42.4955 35.817 43.125 36.5938 43.125C37.3705 43.125 38 42.4955 38 41.7188V31.4062C38 30.6295 37.3705 30 36.5938 30Z" fill="white"/>
<path d="M59.5625 7.5V22.5C59.5625 25.0828 57.4578 27.1875 54.875 27.1875H37.0625C34.4797 27.1875 32.375 25.0828 32.375 22.5V7.5C32.375 4.91719 34.4797 2.8125 37.0625 2.8125H54.875C57.4578 2.8125 59.5625 4.91719 59.5625 7.5Z" fill="url(#paint2_linear_160_207)"/>
<path d="M59.5624 19.1062V22.5C59.5624 25.0828 57.4577 27.1875 54.8749 27.1875H43.5171L37.8921 21.5625L50.253 9.79688L59.5624 19.1062Z" fill="url(#paint3_linear_160_207)"/>
<path d="M54.1578 21.422C53.8953 21.8017 53.4641 22.0313 53 22.0313H38.9375C38.436 22.0313 37.9719 21.7642 37.7235 21.3329C37.4703 20.897 37.4656 20.3626 37.7188 19.9267L41.4688 13.3642C41.675 13.0032 42.0266 12.7548 42.4391 12.6798C42.8469 12.6048 43.2688 12.7173 43.5875 12.9845L45.2 14.3251L48.0781 10.0032C48.3735 9.56259 48.8891 9.32821 49.4047 9.38446C49.9297 9.44071 50.375 9.78759 50.5625 10.2798L54.3125 20.1235C54.4766 20.5548 54.4203 21.0423 54.1578 21.422Z" fill="url(#paint4_linear_160_207)"/>
<path d="M44.5625 11.25C45.3392 11.25 45.9688 10.6204 45.9688 9.84375C45.9688 9.0671 45.3392 8.4375 44.5625 8.4375C43.7858 8.4375 43.1562 9.0671 43.1562 9.84375C43.1562 10.6204 43.7858 11.25 44.5625 11.25Z" fill="url(#paint5_linear_160_207)"/>
<defs>
<linearGradient id="paint0_linear_160_207" x1="9.76953" y1="36.5634" x2="51.2291" y2="36.5634" gradientUnits="userSpaceOnUse">
<stop stop-color="#FEF156"/>
<stop offset="0.4469" stop-color="#FFC242"/>
<stop offset="1" stop-color="#FC753F"/>
</linearGradient>
<linearGradient id="paint1_linear_160_207" x1="15.5" y1="36.5625" x2="45.5" y2="36.5625" gradientUnits="userSpaceOnUse">
<stop offset="1.1188e-07" stop-color="#A47AF4"/>
<stop offset="0.4469" stop-color="#8954DD"/>
<stop offset="1" stop-color="#6936BA"/>
</linearGradient>
<linearGradient id="paint2_linear_160_207" x1="32.375" y1="15" x2="59.5625" y2="15" gradientUnits="userSpaceOnUse">
<stop stop-color="#A4EEFF"/>
<stop offset="0.7319" stop-color="#02C0FC"/>
<stop offset="1" stop-color="#27A6FF"/>
</linearGradient>
<linearGradient id="paint3_linear_160_207" x1="52.2237" y1="30.7898" x2="45.3513" y2="10.2384" gradientUnits="userSpaceOnUse">
<stop stop-color="#A4EEFF" stop-opacity="0"/>
<stop offset="0.039" stop-color="#8ADFFF" stop-opacity="0.067"/>
<stop offset="0.0943" stop-color="#6BCDFF" stop-opacity="0.162"/>
<stop offset="0.1554" stop-color="#52BFFF" stop-opacity="0.266"/>
<stop offset="0.2233" stop-color="#3FB4FF" stop-opacity="0.383"/>
<stop offset="0.3018" stop-color="#31ACFF" stop-opacity="0.517"/>
<stop offset="0.4005" stop-color="#29A7FF" stop-opacity="0.686"/>
<stop offset="0.5836" stop-color="#27A6FF"/>
</linearGradient>
<linearGradient id="paint4_linear_160_207" x1="37.5313" y1="15.7037" x2="54.4049" y2="15.7037" gradientUnits="userSpaceOnUse">
<stop offset="0.0037" stop-color="#7994D8"/>
<stop offset="0.0369" stop-color="#728DD2"/>
<stop offset="0.1746" stop-color="#5C75BC"/>
<stop offset="0.3208" stop-color="#4C64AC"/>
<stop offset="0.48" stop-color="#425AA3"/>
<stop offset="0.6766" stop-color="#3F57A0"/>
<stop offset="1" stop-color="#2A428B"/>
</linearGradient>
<linearGradient id="paint5_linear_160_207" x1="43.1562" y1="9.84375" x2="45.9688" y2="9.84375" gradientUnits="userSpaceOnUse">
<stop offset="0.0037" stop-color="#7994D8"/>
<stop offset="0.0369" stop-color="#728DD2"/>
<stop offset="0.1746" stop-color="#5C75BC"/>
<stop offset="0.3208" stop-color="#4C64AC"/>
<stop offset="0.48" stop-color="#425AA3"/>
<stop offset="0.6766" stop-color="#3F57A0"/>
<stop offset="1" stop-color="#2A428B"/>
</linearGradient>
</defs>
</svg>
