<svg width="61" height="60" viewBox="0 0 61 60" fill="none" xmlns="http://www.w3.org/2000/svg">
<g clip-path="url(#clip0_160_929)">
<path d="M42.0546 14.8509C42.2164 14.4632 42.255 14.0214 42.1044 13.5943C40.3706 8.68652 35.7065 5.39062 30.5 5.39062C25.2935 5.39062 20.6294 8.68652 18.8957 13.5943C18.7452 14.0214 18.7837 14.4632 18.9455 14.8509H4.01562V49.3359C4.01562 52.2438 6.38117 54.6094 9.28906 54.6094H51.7109C54.6188 54.6094 56.9844 52.2438 56.9844 49.3359V14.8509H42.0546ZM22.1609 14.8509C22.1742 14.8192 22.2007 14.798 22.2123 14.7652C23.4499 11.2615 26.7801 8.90625 30.5 8.90625C34.2199 8.90625 37.5501 11.2615 38.7878 14.765C38.8007 14.8014 38.8385 14.8161 38.8534 14.8508L22.1609 14.8509Z" fill="url(#paint0_linear_160_929)"/>
<path d="M55.2266 12.4219H5.77344C2.86555 12.4219 0.5 14.7874 0.5 17.6953V28.2422C0.5 29.0764 1.08711 29.7957 1.90414 29.9639C2.61148 30.1099 19.4656 33.5156 30.5 33.5156C41.5344 33.5156 58.3885 30.1098 59.0959 29.9639C59.9129 29.7957 60.5 29.0764 60.5 28.2422V17.6953C60.5 14.7874 58.1345 12.4219 55.2266 12.4219ZM34.0156 26.4844H26.9844C26.0128 26.4844 25.2266 25.6982 25.2266 24.7266C25.2266 23.755 26.0128 22.9688 26.9844 22.9688H34.0156C34.9872 22.9688 35.7734 23.755 35.7734 24.7266C35.7734 25.6982 34.9872 26.4844 34.0156 26.4844Z" fill="url(#paint1_linear_160_929)"/>
</g>
<defs>
<linearGradient id="paint0_linear_160_929" x1="30.5" y1="54.6094" x2="30.5" y2="5.39062" gradientUnits="userSpaceOnUse">
<stop stop-color="#FD5900"/>
<stop offset="1" stop-color="#FFDE00"/>
</linearGradient>
<linearGradient id="paint1_linear_160_929" x1="30.5" y1="33.5156" x2="30.5" y2="12.4219" gradientUnits="userSpaceOnUse">
<stop stop-color="#FFE59A"/>
<stop offset="1" stop-color="#FFFFD5"/>
</linearGradient>
<clipPath id="clip0_160_929">
<rect width="60" height="60" fill="white" transform="translate(0.5)"/>
</clipPath>
</defs>
</svg>
