<svg width="20" height="21" viewBox="0 0 20 21" fill="none" xmlns="http://www.w3.org/2000/svg">
<path d="M9.78029 1.86694C5.72413 1.86694 2.5 5.09107 2.5 9.14723C2.5 11.1233 3.22803 12.9954 4.68409 14.3474C4.78809 14.4514 8.94826 18.1956 9.05226 18.2996C9.46828 18.6116 10.0923 18.6116 10.4043 18.2996C10.5083 18.1956 14.7725 14.4514 14.7725 14.3474C16.2285 12.9954 16.9566 11.1233 16.9566 9.14723C17.0606 5.09107 13.8365 1.86694 9.78029 1.86694ZM9.78029 11.2273C8.63624 11.2273 7.70021 10.2913 7.70021 9.14723C7.70021 8.00319 8.63624 7.06715 9.78029 7.06715C10.9243 7.06715 11.8604 8.00319 11.8604 9.14723C11.8604 10.2913 10.9243 11.2273 9.78029 11.2273Z" fill="#005CF8"/>
</svg>
