<svg width="16" height="16" viewBox="0 0 16 16" fill="none" xmlns="http://www.w3.org/2000/svg">
<g clip-path="url(#clip0_101_897)">
<path d="M8 7.375C9.3785 7.375 10.5 6.2535 10.5 4.875C10.5 3.4965 9.3785 2.375 8 2.375C6.6215 2.375 5.5 3.4965 5.5 4.875C5.5 6.2535 6.6215 7.375 8 7.375ZM8 3.625C8.68925 3.625 9.25 4.18575 9.25 4.875C9.25 5.56425 8.68925 6.125 8 6.125C7.31075 6.125 6.75 5.56425 6.75 4.875C6.75 4.18575 7.31075 3.625 8 3.625ZM8 0C3.57481 0 0 3.57581 0 8C0 12.4253 3.57587 16 8 16C12.4253 16 16 12.4242 16 8C16 3.57475 12.4241 0 8 0ZM8 14.75C4.27803 14.75 1.25 11.722 1.25 8C1.25 4.27803 4.27803 1.25 8 1.25C11.722 1.25 14.75 4.27803 14.75 8C14.75 11.722 11.722 14.75 8 14.75ZM8.00003 7.375C5.76822 7.375 3.89906 9.0455 3.65212 11.2607L3.62119 11.5384L3.80744 11.7466C4.87522 12.9403 6.40334 13.625 8 13.625C9.59669 13.625 11.1248 12.9403 12.1926 11.7466L12.3788 11.5384L12.3479 11.2607C12.101 9.0455 10.2318 7.375 8.00003 7.375ZM8 12.375C6.85453 12.375 5.754 11.9213 4.93797 11.1214C5.23037 9.68006 6.50063 8.625 8.00003 8.625C9.49944 8.625 10.7697 9.68006 11.062 11.1214C10.246 11.9213 9.1455 12.375 8 12.375Z" fill="#121212"/>
</g>
<defs>
<clipPath id="clip0_101_897">
<rect width="16" height="16" fill="white"/>
</clipPath>
</defs>
</svg>
