<svg width="40" height="41" viewBox="0 0 40 41" fill="none" xmlns="http://www.w3.org/2000/svg">
<rect y="0.399902" width="40" height="40" rx="20" fill="#005CF8"/>
<path d="M31.7609 15.6C31.7609 15.6 31.5266 13.9453 30.8047 13.2187C29.8906 12.2625 28.8688 12.2578 28.4 12.2015C25.0438 11.9578 20.0047 11.9578 20.0047 11.9578H19.9953C19.9953 11.9578 14.9563 11.9578 11.6 12.2015C11.1313 12.2578 10.1094 12.2625 9.19531 13.2187C8.47344 13.9453 8.24375 15.6 8.24375 15.6C8.24375 15.6 8 17.5453 8 19.4859V21.3046C8 23.2453 8.23906 25.1906 8.23906 25.1906C8.23906 25.1906 8.47344 26.8453 9.19062 27.5718C10.1047 28.5281 11.3047 28.4953 11.8391 28.5984C13.7609 28.7812 20 28.8375 20 28.8375C20 28.8375 25.0438 28.8281 28.4 28.589C28.8688 28.5328 29.8906 28.5281 30.8047 27.5718C31.5266 26.8453 31.7609 25.1906 31.7609 25.1906C31.7609 25.1906 32 23.25 32 21.3046V19.4859C32 17.5453 31.7609 15.6 31.7609 15.6ZM17.5203 23.5125V16.7671L24.0031 20.1515L17.5203 23.5125Z" fill="white"/>
</svg>
