<svg width="70" height="70" viewBox="0 0 70 70" fill="none" xmlns="http://www.w3.org/2000/svg">
<circle cx="35" cy="35" r="35" fill="#F9F1ED"/>
<path d="M36.9558 56.0281H28.6291C27.073 56.0281 25.5805 56.6463 24.4802 57.7466L22.2871 59.9397L27.1767 64.8293L29.5376 62.4683C29.7192 62.2867 29.9348 62.1427 30.1721 62.0444C30.4094 61.9461 30.6637 61.8955 30.9206 61.8955H36.9558C38.576 61.8955 39.8895 60.5821 39.8895 58.9618C39.8895 57.3415 38.576 56.0281 36.9558 56.0281Z" fill="#FAB991"/>
<path d="M51.0527 54.6452C50.2889 53.8813 49.0505 53.8813 48.2868 54.6452L41.0363 61.8956H30.9217C30.4029 61.8957 29.9055 62.1017 29.5387 62.4684L27.1777 64.8294L30.1115 67.7631L32.0673 65.8073H41.4414C41.8268 65.8083 42.2086 65.7329 42.5647 65.5854C42.9208 65.4379 43.244 65.2212 43.5158 64.9479L51.0527 57.4111C51.8164 56.6473 51.8164 55.409 51.0527 54.6452Z" fill="#F0915A"/>
<path d="M36.956 60.5915H36.3041C36.0447 60.5915 35.796 60.4885 35.6126 60.3051C35.4292 60.1217 35.3262 59.873 35.3262 59.6136V58.3097C35.3262 58.0503 35.4292 57.8016 35.6126 57.6182C35.796 57.4348 36.0447 57.3318 36.3041 57.3318H36.956C37.8561 57.3318 38.5858 58.0616 38.5858 58.9616C38.5858 59.8619 37.8561 60.5915 36.956 60.5915Z" fill="#F0915A"/>
<path d="M22.0012 59.6534L27.1772 64.8293L22.2876 69.7189H10.5527L20.6182 59.6534C20.709 59.5626 20.8168 59.4905 20.9355 59.4414C21.0541 59.3922 21.1813 59.3669 21.3097 59.3669C21.4382 59.3669 21.5653 59.3922 21.684 59.4414C21.8026 59.4905 21.9104 59.5626 22.0012 59.6534Z" fill="#5F78BE"/>
<path d="M27.1767 64.8291L30.3968 68.0492C30.4876 68.14 30.5596 68.2479 30.6088 68.3665C30.6579 68.4851 30.6832 68.6123 30.6832 68.7407C30.6832 68.8692 30.6579 68.9963 30.6088 69.115C30.5596 69.2336 30.4876 69.3414 30.3968 69.4322L30.1104 69.7186H22.2871L27.1767 64.8291Z" fill="#46508C"/>
<path d="M55.5358 42.3373H16.4195C14.2591 42.3373 12.5078 40.586 12.5078 38.4256V16.9116C12.5078 14.7513 14.2591 13 16.4195 13H55.5358C57.6962 13 59.4475 14.7513 59.4475 16.9116V38.4256C59.4475 40.586 57.6962 42.3373 55.5358 42.3373Z" fill="#F06423"/>
<path d="M51.6242 42.3373H16.4195C14.2591 42.3373 12.5078 40.586 12.5078 38.4256V16.9116C12.5078 14.7513 14.2591 13 16.4195 13H51.6242C53.7845 13 55.5358 14.7513 55.5358 16.9116V38.4256C55.5358 40.586 53.7845 42.3373 51.6242 42.3373Z" fill="#FAA019"/>
<path d="M12.5078 18.8674H55.5358V24.7349H12.5078V18.8674Z" fill="#5F78BE"/>
<path d="M59.4487 24.7349H55.5371V18.8674H59.4487V24.7349Z" fill="#46508C"/>
<path d="M34.022 52.1163C40.503 52.1163 45.7569 46.8624 45.7569 40.3814C45.7569 33.9004 40.503 28.6465 34.022 28.6465C27.541 28.6465 22.2871 33.9004 22.2871 40.3814C22.2871 46.8624 27.541 52.1163 34.022 52.1163Z" fill="#46508C"/>
<path d="M38.7859 38.3838L40.2457 36.924C41.0095 36.1601 41.0095 34.9219 40.2457 34.1581C39.482 33.3942 38.2436 33.3942 37.4798 34.1581L36.02 35.6179L29.3951 33.725C29.1209 33.6467 28.8308 33.6431 28.5548 33.7146C28.2788 33.7861 28.027 33.9302 27.8254 34.1318C27.1021 34.8551 27.2346 36.062 28.0975 36.6111L32.3321 39.3058L29.3203 42.3177L27.2635 41.4362C27.0133 41.329 26.7368 41.2992 26.4696 41.3507C26.2023 41.4021 25.9566 41.5325 25.7642 41.7249L24.8523 42.6368C24.6077 42.8814 24.6875 43.2957 25.0055 43.432L29.1821 45.2221L30.9721 49.3986C31.1084 49.7165 31.5226 49.7963 31.7672 49.5516L32.6791 48.6398C32.8716 48.4474 33.0019 48.2017 33.0534 47.9344C33.1048 47.6672 33.075 47.3906 32.9679 47.1405L32.0864 45.0837L35.0982 42.0718L37.793 46.3066C38.3421 47.1694 39.5491 47.3019 40.2722 46.5787C40.4738 46.3771 40.6179 46.1252 40.6894 45.8492C40.7609 45.5732 40.7573 45.2831 40.679 45.009L38.7859 38.3838Z" fill="#73CDDC"/>
</svg>
