<svg width="40" height="39" viewBox="0 0 40 39" fill="none" xmlns="http://www.w3.org/2000/svg">
<path fill-rule="evenodd" clip-rule="evenodd" d="M8.02838 31.7785C6.61777 30.3079 5.45858 28.5984 4.64062 26.7077C3.68471 24.4985 3.16144 22.0602 3.22838 19.5C3.34838 14.8346 5.31818 10.6438 8.47165 7.66269C11.5672 4.73688 15.7647 2.951 20.3655 3.06882C20.8994 3.06882 21.3329 3.50106 21.3329 4.03244C21.3329 4.56463 20.8994 4.99607 20.3655 4.99607C16.3859 5.09844 12.8284 6.80307 10.2855 9.46725C7.79818 12.0746 6.32144 15.626 6.42185 19.5C6.47491 21.5589 6.99491 23.4967 7.8545 25.2314C8.57613 26.6874 9.55981 27.9874 10.7321 29.0883L11.7712 28.054C11.9761 27.8501 12.2945 27.7956 12.5892 27.9159C12.8831 28.0353 13.0994 28.3067 13.1435 28.6122L13.9541 34.1851C13.9884 34.4191 13.9174 34.6442 13.7606 34.8002C13.6039 34.957 13.3778 35.0277 13.1427 34.9936L7.54348 34.1868C7.23654 34.1421 6.96307 33.9268 6.84307 33.6343C6.72307 33.3426 6.77695 33.0241 6.98267 32.8201L8.02838 31.7785ZM32.7018 7.2215C34.1125 8.69213 35.2716 10.4016 36.0896 12.2923C37.0455 14.5015 37.5688 16.9398 37.5027 19.5C37.3819 24.1654 35.4121 28.3563 32.2586 31.3373C29.1631 34.2631 24.9655 36.049 20.3655 35.9312C19.8308 35.9312 19.3974 35.4989 19.3974 34.9676C19.3974 34.4354 19.8308 34.0039 20.3655 34.0039C24.3443 33.9016 27.9018 32.1969 30.4447 29.5328C32.9321 26.9254 34.4088 23.374 34.3084 19.5C34.2553 17.4411 33.7361 15.5033 32.8757 13.7686C32.1541 12.3126 31.1712 11.0126 29.999 9.91169L28.9598 10.946C28.7549 11.1499 28.4357 11.2044 28.1418 11.0841C27.848 10.9647 27.6316 10.6933 27.5867 10.3878L26.7761 4.81488C26.741 4.58088 26.8129 4.35582 26.9696 4.19982C27.1263 4.043 27.3533 3.97232 27.5876 4.00644L33.1876 4.81325C33.4945 4.85794 33.7672 5.07325 33.8872 5.36575C34.0072 5.65825 33.9533 5.97594 33.7484 6.17988L32.7018 7.2215Z" fill="#A4B264"/>
</svg>
