<svg width="70" height="70" viewBox="0 0 70 70" fill="none" xmlns="http://www.w3.org/2000/svg">
<circle cx="35" cy="35" r="35" fill="#F9F1ED"/>
<path d="M55.1328 34.6719C55.1328 39.2598 53.6773 43.5629 50.893 47.2016L35.8637 67.3672H33.3008L18.1133 47.0117C15.4238 43.4361 14 39.1646 14 34.6719C14 23.3443 23.2389 14 34.5664 14C45.894 14 55.1328 23.3443 55.1328 34.6719Z" fill="#FF641A"/>
<path d="M55.1328 34.6719C55.1328 39.2598 53.6773 43.5629 50.893 47.2016L35.8637 67.3672H34.5664V14C45.894 14 55.1328 23.3443 55.1328 34.6719Z" fill="#F03800"/>
<path d="M47.2227 66.418C47.2227 67.3037 46.5268 68 45.6406 68H23.4922C22.606 68 21.9102 67.3037 21.9102 66.418C21.9102 65.5318 22.606 64.8359 23.4922 64.8359H45.6406C46.5268 64.8359 47.2227 65.5318 47.2227 66.418Z" fill="#895D3C"/>
<path d="M36.1484 25.1797V28.3438C36.1484 29.2295 35.4526 29.9258 34.5664 29.9258C33.6803 29.9258 32.9844 29.2295 32.9844 28.3438V25.1797C32.9844 24.2935 33.6803 23.5977 34.5664 23.5977C35.4526 23.5977 36.1484 24.2935 36.1484 25.1797Z" fill="#FDBF00"/>
<path d="M36.1484 25.1797V28.3438C36.1484 29.2295 35.4526 29.9258 34.5664 29.9258V23.5977C35.4526 23.5977 36.1484 24.2935 36.1484 25.1797Z" fill="#FF9100"/>
<path d="M45.6406 41C45.6406 41.8857 44.9447 42.582 44.0586 42.582H25.0742C24.1881 42.582 23.4922 41.8857 23.4922 41C23.4922 40.1139 24.1881 39.418 25.0742 39.418H44.0586C44.9447 39.418 45.6406 40.1139 45.6406 41ZM34.5664 26.7617C30.2002 26.7617 26.6562 30.3057 26.6562 34.6719C26.6562 35.5576 27.3521 36.2539 28.2383 36.2539H40.8945C41.7807 36.2539 42.4766 35.5576 42.4766 34.6719C42.4766 30.3057 38.9326 26.7617 34.5664 26.7617Z" fill="#FFDA2D"/>
<path d="M40.8945 36.2539H34.5664V26.7617C38.9326 26.7617 42.4766 30.3057 42.4766 34.6719C42.4766 35.5576 41.7807 36.2539 40.8945 36.2539ZM45.6406 41C45.6406 41.8857 44.9447 42.582 44.0586 42.582H34.5664V39.418H44.0586C44.9447 39.418 45.6406 40.1139 45.6406 41Z" fill="#FDBF00"/>
<path d="M47.2227 66.418C47.2227 67.3037 46.5268 68 45.6406 68H34.5664V64.8359H45.6406C46.5268 64.8359 47.2227 65.5318 47.2227 66.418Z" fill="#714C2F"/>
</svg>
