<svg width="16" height="16" viewBox="0 0 16 16" fill="none" xmlns="http://www.w3.org/2000/svg">
<g clip-path="url(#clip0_101_755)">
<path d="M12 1.33333C13.4707 1.33333 14.6667 2.52933 14.6667 4V12C14.6667 13.4707 13.4707 14.6667 12 14.6667H4C2.52933 14.6667 1.33333 13.4707 1.33333 12V4C1.33333 2.52933 2.52933 1.33333 4 1.33333H12ZM12 0H4C1.79067 0 0 1.79067 0 4V12C0 14.2093 1.79067 16 4 16H12C14.2093 16 16 14.2093 16 12V4C16 1.79067 14.2093 0 12 0Z" fill="#121212"/>
<path d="M8.00016 12C7.63216 12 7.3335 11.702 7.3335 11.3333V4.66667C7.3335 4.29867 7.63216 4 8.00016 4C8.36816 4 8.66683 4.29867 8.66683 4.66667V11.3333C8.66683 11.702 8.36816 12 8.00016 12Z" fill="#121212"/>
<path d="M4 7.99998C4 7.63198 4.298 7.33331 4.66667 7.33331H11.3333C11.7013 7.33331 12 7.63198 12 7.99998C12 8.36798 11.7013 8.66665 11.3333 8.66665H4.66667C4.298 8.66665 4 8.36798 4 7.99998Z" fill="#121212"/>
</g>
<defs>
<clipPath id="clip0_101_755">
<rect width="16" height="16" fill="white"/>
</clipPath>
</defs>
</svg>
