<svg width="30" height="44" viewBox="0 0 30 44" fill="none" xmlns="http://www.w3.org/2000/svg">
<path d="M29.0506 16.1989C28.8366 15.7532 28.386 15.4688 27.8899 15.4688H19.6621L26.4649 1.86562C26.6638 1.46652 26.6437 0.991977 26.4095 0.611789C26.1729 0.231602 25.7575 0 25.3118 0H9.84306C9.30681 0 8.8259 0.333609 8.6371 0.835914L0.902726 21.4609C0.75414 21.8574 0.809569 22.3006 1.04873 22.648C1.29048 22.9954 1.6857 23.2031 2.10869 23.2031H10.7696L6.0136 42.3987C5.86759 42.9866 6.14955 43.5971 6.69337 43.8665C7.23555 44.1338 7.89151 43.9902 8.27195 43.5166L28.897 17.5635C29.2068 17.1757 29.2672 16.6458 29.0506 16.1989Z" fill="url(#paint0_linear_27_1161)"/>
<defs>
<linearGradient id="paint0_linear_27_1161" x1="14.9999" y1="43.9999" x2="14.9999" y2="0" gradientUnits="userSpaceOnUse">
<stop stop-color="#FD5900"/>
<stop offset="1" stop-color="#FFDE00"/>
</linearGradient>
</defs>
</svg>
