<svg width="16" height="16" viewBox="0 0 16 16" fill="none" xmlns="http://www.w3.org/2000/svg">
<g clip-path="url(#clip0_96_865)">
<path d="M14.605 5.91999C14.3133 5.87761 14.0348 5.76996 13.7904 5.60506C13.546 5.44015 13.342 5.22223 13.1935 4.96754C13.045 4.71285 12.9559 4.42793 12.9328 4.13402C12.9097 3.84011 12.9532 3.54477 13.06 3.26999C13.1279 3.09036 13.1379 2.89397 13.0886 2.70836C13.0393 2.52275 12.9331 2.35722 12.785 2.23499C12.131 1.68583 11.3866 1.25442 10.585 0.959994C10.4025 0.892186 10.2032 0.883713 10.0156 0.935785C9.82792 0.987856 9.6615 1.09781 9.54001 1.24999C9.35715 1.48382 9.12344 1.67294 8.85662 1.803C8.58979 1.93306 8.29685 2.00066 8.00001 2.00066C7.70317 2.00066 7.41023 1.93306 7.1434 1.803C6.87658 1.67294 6.64287 1.48382 6.46001 1.24999C6.33852 1.09781 6.1721 0.987856 5.98447 0.935785C5.79683 0.883713 5.59755 0.892186 5.41501 0.959994C4.67484 1.23182 3.98281 1.62003 3.36501 2.10999C3.20928 2.23328 3.09711 2.40318 3.04493 2.59482C2.99275 2.78646 3.00329 2.98978 3.07501 3.17499C3.19039 3.45704 3.23806 3.7622 3.2142 4.06599C3.19034 4.36979 3.09561 4.66376 2.93761 4.92434C2.77961 5.18491 2.56275 5.40483 2.30441 5.56645C2.04607 5.72807 1.75344 5.82689 1.45001 5.85499C1.25301 5.87606 1.06799 5.95981 0.922166 6.09393C0.776347 6.22805 0.677441 6.40544 0.640011 6.59999C0.54691 7.06084 0.500011 7.52983 0.500011 7.99999C0.499327 8.39361 0.531101 8.7866 0.595011 9.17499C0.626818 9.37578 0.723884 9.56049 0.871201 9.70058C1.01852 9.84067 1.20788 9.92832 1.41001 9.94999C1.72011 9.97909 2.01872 10.0821 2.28086 10.2502C2.543 10.4184 2.76104 10.647 2.91673 10.9167C3.07241 11.1865 3.16122 11.4896 3.17571 11.8007C3.1902 12.1119 3.12995 12.4219 3.00001 12.705C2.91497 12.8891 2.89388 13.0964 2.94008 13.2938C2.98628 13.4913 3.09712 13.6677 3.25501 13.795C3.90507 14.3342 4.6423 14.7586 5.43501 15.05C5.53638 15.0851 5.64274 15.1037 5.75001 15.105C5.8971 15.1047 6.04196 15.0691 6.17246 15.0012C6.30295 14.9334 6.41528 14.8352 6.50001 14.715C6.67822 14.4554 6.9171 14.2431 7.19593 14.0967C7.47476 13.9504 7.7851 13.8742 8.10001 13.875C8.40514 13.8754 8.70596 13.947 8.97852 14.0842C9.25109 14.2213 9.48787 14.4202 9.67001 14.665C9.79117 14.8279 9.96278 14.9461 10.1581 15.0012C10.3535 15.0564 10.5616 15.0454 10.75 14.97C11.4749 14.6783 12.1497 14.2751 12.75 13.775C12.9008 13.6503 13.0082 13.481 13.0567 13.2914C13.1052 13.1019 13.0924 12.9018 13.02 12.72C12.9024 12.4416 12.8511 12.1396 12.8702 11.838C12.8893 11.5364 12.9783 11.2433 13.13 10.982C13.2818 10.7206 13.4923 10.4981 13.7448 10.332C13.9973 10.166 14.2849 10.0608 14.585 10.025C14.7796 9.99809 14.9606 9.90992 15.1017 9.77328C15.2429 9.63664 15.3368 9.45861 15.37 9.26499C15.4503 8.84795 15.4938 8.42465 15.5 7.99999C15.5001 7.55207 15.4583 7.10512 15.375 6.66499C15.3413 6.47564 15.2487 6.30175 15.1105 6.16801C14.9722 6.03427 14.7954 5.94749 14.605 5.91999ZM14.395 9.03999C13.9549 9.10428 13.535 9.26707 13.1667 9.51623C12.7983 9.76539 12.4908 10.0945 12.2674 10.479C12.0439 10.8635 11.91 11.2935 11.8759 11.7369C11.8417 12.1804 11.9081 12.6258 12.07 13.04C11.5742 13.4555 11.0178 13.7927 10.42 14.04C10.1449 13.6826 9.7912 13.3933 9.38625 13.1948C8.9813 12.9962 8.53603 12.8936 8.08501 12.895C7.62096 12.8975 7.16396 13.0087 6.75065 13.2197C6.33734 13.4307 5.97922 13.7356 5.70501 14.11C5.05752 13.8637 4.45331 13.516 3.91501 13.08C4.09741 12.6606 4.17929 12.2044 4.15411 11.7478C4.12894 11.2912 3.99741 10.8468 3.77001 10.45C3.54019 10.0489 3.21976 9.70702 2.8343 9.45179C2.44884 9.19655 2.00903 9.03498 1.55001 8.97999C1.50989 8.65495 1.49318 8.32744 1.50001 7.99999C1.50014 7.61238 1.53697 7.22566 1.61001 6.84499C2.05774 6.79254 2.48749 6.63817 2.86626 6.39374C3.24503 6.14932 3.56275 5.82134 3.79501 5.43499C4.02696 5.05258 4.16828 4.62215 4.20814 4.17668C4.24801 3.7312 4.18537 3.28251 4.02501 2.86499C4.53526 2.46472 5.10342 2.14439 5.71001 1.91499C5.98765 2.25399 6.33709 2.52712 6.7331 2.71467C7.12912 2.90221 7.56183 2.99949 8.00001 2.99949C8.43819 2.99949 8.8709 2.90221 9.26692 2.71467C9.66294 2.52712 10.0124 2.25399 10.29 1.91499C10.9491 2.16403 11.5624 2.52052 12.105 2.96999C11.9568 3.37825 11.9002 3.81413 11.9392 4.24671C11.9783 4.67929 12.1121 5.09797 12.3312 5.47304C12.5502 5.84811 12.8491 6.17038 13.2066 6.41699C13.5642 6.6636 13.9716 6.8285 14.4 6.89999C14.4651 7.26308 14.4985 7.63113 14.5 7.99999C14.4986 8.34834 14.4702 8.69605 14.415 9.03999H14.395Z" fill="#121212"/>
<path d="M8 5C7.40666 5 6.82664 5.17595 6.33329 5.50559C5.83994 5.83524 5.45543 6.30377 5.22836 6.85195C5.0013 7.40013 4.94189 8.00333 5.05765 8.58527C5.1734 9.16721 5.45912 9.70176 5.87868 10.1213C6.29824 10.5409 6.83279 10.8266 7.41473 10.9424C7.99667 11.0581 8.59987 10.9987 9.14805 10.7716C9.69623 10.5446 10.1648 10.1601 10.4944 9.66671C10.8241 9.17336 11 8.59334 11 8C11 7.20435 10.6839 6.44129 10.1213 5.87868C9.55871 5.31607 8.79565 5 8 5ZM8 10C7.60444 10 7.21776 9.8827 6.88886 9.66294C6.55996 9.44318 6.30362 9.13082 6.15224 8.76537C6.00087 8.39991 5.96126 7.99778 6.03843 7.60982C6.1156 7.22186 6.30608 6.86549 6.58579 6.58579C6.86549 6.30608 7.22186 6.1156 7.60982 6.03843C7.99778 5.96126 8.39992 6.00087 8.76537 6.15224C9.13082 6.30362 9.44318 6.55996 9.66294 6.88886C9.8827 7.21776 10 7.60444 10 8C10 8.53043 9.78929 9.03914 9.41421 9.41421C9.03914 9.78929 8.53043 10 8 10Z" fill="#121212"/>
</g>
<defs>
<clipPath id="clip0_96_865">
<rect width="16" height="16" fill="white"/>
</clipPath>
</defs>
</svg>
