<svg width="40" height="40" viewBox="0 0 40 40" fill="none" xmlns="http://www.w3.org/2000/svg">
<path fill-rule="evenodd" clip-rule="evenodd" d="M21.4893 4.57233V3.54225C21.4893 2.28827 20.4634 1.26233 19.2095 1.26233H12.403C11.149 1.26233 10.123 2.28834 10.123 3.54225V4.57233H12.1413V3.54225C12.1413 3.40241 12.2631 3.28069 12.403 3.28069H19.2095C19.3493 3.28069 19.4709 3.40241 19.4709 3.54225V4.57233H21.4893ZM25.1786 24.2827C26.0397 24.2827 26.7378 24.9808 26.7378 25.8419C26.7378 26.703 26.0397 27.4012 25.1786 27.4012C24.3175 27.4012 23.6194 26.7031 23.6194 25.8419C23.6194 24.9808 24.3175 24.2827 25.1786 24.2827ZM37.1074 38.5359L38.5624 37.0364C38.818 36.773 38.8115 36.3487 38.5482 36.093L34.5181 32.1824C34.2548 31.9269 33.8302 31.9333 33.5747 32.1965L33.4845 32.2894L31.1955 30.0434C32.0282 28.8532 32.5171 27.4047 32.5171 25.8419C32.5171 21.7889 29.2315 18.5032 25.1784 18.5032C21.1254 18.5032 17.8398 21.7888 17.8398 25.8419C17.8398 29.8949 21.1254 33.1805 25.1784 33.1805C27.001 33.1805 28.6683 32.5159 29.9514 31.4161L32.1953 33.6181L32.1197 33.6961C31.8642 33.9594 31.8705 34.384 32.1339 34.6395L36.164 38.5501C36.4273 38.8056 36.8519 38.7993 37.1074 38.5359ZM25.1786 22.8181C22.8845 22.8181 20.8459 23.9113 19.5545 25.6049C19.4463 25.7469 19.4463 25.9369 19.5545 26.0789C20.8459 27.7725 22.8845 28.8657 25.1786 28.8657C27.4728 28.8657 29.5114 27.7725 30.8027 26.0789C30.9109 25.9369 30.9109 25.7469 30.8027 25.6049C29.5113 23.9113 27.4727 22.8181 25.1786 22.8181ZM13.1231 17.7368C13.1231 16.2597 14.3196 15.0539 15.8061 15.0539C17.2926 15.0539 18.489 16.2598 18.489 17.7368C18.489 19.2185 17.2878 20.4197 15.8061 20.4197C14.3243 20.4197 13.1231 19.2185 13.1231 17.7368ZM30.3622 12.1077V6.91397C30.3622 6.31272 29.8717 5.82233 29.2705 5.82233H24.0323V9.37217C24.0323 10.47 23.1364 11.3658 22.0386 11.3658H9.57359C8.47578 11.3658 7.57992 10.47 7.57992 9.37217V5.82225H2.34164C1.74039 5.82225 1.25 6.31264 1.25 6.91397V12.1077C1.25 16.2417 9.47789 16.8212 11.9437 16.9933C12.2914 15.1773 13.8884 13.8039 15.8061 13.8039C17.723 13.8039 19.3196 15.1763 19.668 16.9914C22.1258 16.8188 30.3622 16.2293 30.3622 12.1077ZM2.54742 16.0881C4.38258 17.2465 7.93617 17.9658 11.9059 18.2466C12.156 20.1775 13.8071 21.6696 15.806 21.6696C16.6916 21.6696 17.5087 21.3766 18.1661 20.8825C17.0515 22.4554 16.5078 24.337 16.6002 26.2607H4.67797C3.50617 26.2607 2.54742 25.3019 2.54742 24.1301V16.0881ZM29.0646 18.1812C28.1343 17.7083 27.1063 17.4001 26.0191 17.2944C27.2646 16.9665 28.3101 16.5645 29.0646 16.0882V18.1812ZM21.4814 18.088C20.6604 18.4803 19.9113 18.9989 19.2596 19.619C19.4877 19.2015 19.6423 18.7383 19.7061 18.2465C20.3091 18.2038 20.9023 18.1509 21.4814 18.088ZM22.7823 5.82225V9.37209C22.7823 9.77983 22.4463 10.1158 22.0386 10.1158H9.57359C9.16586 10.1158 8.82992 9.77983 8.82992 9.37209V5.82225H22.7823Z" fill="#F4478F"/>
</svg>
