<svg width="31" height="30" viewBox="0 0 31 30" fill="none" xmlns="http://www.w3.org/2000/svg">
<path fill-rule="evenodd" clip-rule="evenodd" d="M29.6402 15.3406C29.6402 14.277 29.5448 13.2543 29.3675 12.2725H15.2402V18.0747H23.313C22.9652 19.9497 21.9084 21.5384 20.3198 22.602V26.3656H25.1675C28.0039 23.7543 29.6402 19.9088 29.6402 15.3406Z" fill="#4285F4"/>
<path fill-rule="evenodd" clip-rule="evenodd" d="M15.24 29.9999C19.29 29.9999 22.6854 28.6567 25.1673 26.3658L20.3195 22.6021C18.9764 23.5021 17.2582 24.0339 15.24 24.0339C11.3332 24.0339 8.02636 21.3953 6.84681 17.8499H1.83545V21.7362C4.30363 26.6385 9.37636 29.9999 15.24 29.9999Z" fill="#34A853"/>
<path fill-rule="evenodd" clip-rule="evenodd" d="M6.84705 17.8498C6.54705 16.9498 6.3766 15.9884 6.3766 14.9998C6.3766 14.0112 6.54705 13.0498 6.84705 12.1498V8.26343H1.83569C0.81978 10.2884 0.240234 12.5793 0.240234 14.9998C0.240234 17.4202 0.81978 19.7112 1.83569 21.7362L6.84705 17.8498Z" fill="#FBBC05"/>
<path fill-rule="evenodd" clip-rule="evenodd" d="M15.24 5.96591C17.4423 5.96591 19.4195 6.72273 20.9741 8.20909L25.2764 3.90682C22.6786 1.48636 19.2832 0 15.24 0C9.37636 0 4.30363 3.36136 1.83545 8.26364L6.84681 12.15C8.02636 8.60455 11.3332 5.96591 15.24 5.96591Z" fill="#EA4335"/>
</svg>
