<svg width="20" height="21" viewBox="0 0 20 21" fill="none" xmlns="http://www.w3.org/2000/svg">
<path fill-rule="evenodd" clip-rule="evenodd" d="M6.67472 9.78373L5.59791 11.0635C6.4777 12.419 7.60078 13.5659 8.93375 14.4711L10.434 13.3478L10.4779 13.315L10.4779 13.3149C10.892 13.0048 11.1583 12.8054 11.4415 12.6482C12.3009 12.171 13.2871 11.9723 14.2642 12.0793C14.5862 12.1146 14.909 12.1953 15.4109 12.3208L15.4109 12.3208L15.4641 12.3341L15.7316 12.401L15.7603 12.4082C15.9188 12.4478 16.0419 12.4785 16.1544 12.5172C17.1836 12.8707 17.9074 13.7978 18.0008 14.882C18.011 15.0005 18.011 15.1199 18.011 15.2719L18.011 15.2982L18.011 15.3213V15.3213C18.011 15.4822 18.011 15.6113 17.9944 15.762C17.9182 16.4542 17.5383 17.0637 17.0564 17.49C16.5746 17.9164 15.9233 18.2193 15.2271 18.2107C15.0805 18.2089 15.0114 18.201 14.9157 18.1892C12.5384 17.8977 10.3982 17.1574 8.56898 16.0224C6.69238 14.858 5.15427 13.2848 4.02845 11.3775C2.98362 9.60733 2.29925 7.55863 2.02169 5.29507C2.00996 5.19942 2.00198 5.13038 2.00018 4.98382C1.9916 4.28756 2.2945 3.63634 2.72088 3.15448C3.14726 2.67262 3.75678 2.29272 4.44891 2.21649C4.5995 2.1999 4.72065 2.19993 4.87108 2.19996L4.89057 2.19996L4.92018 2.19996C5.0835 2.19992 5.21038 2.19989 5.32893 2.2101C6.41309 2.30348 7.34023 3.02737 7.69377 4.05652C7.73243 4.16904 7.76317 4.29213 7.80274 4.45057L7.80275 4.45058L7.80993 4.47933L7.85743 4.66933L7.86934 4.71696L7.86934 4.71696C7.98126 5.16445 8.05318 5.45206 8.08883 5.7368C8.22867 6.85375 7.96728 7.98407 7.35128 8.92623C7.19424 9.16641 7.00335 9.39324 6.70634 9.74617L6.67472 9.78373Z" fill="#005CF8"/>
</svg>
