<svg width="41" height="40" viewBox="0 0 41 40" fill="none" xmlns="http://www.w3.org/2000/svg">
<g clip-path="url(#clip0_97_991)">
<path d="M36.9818 8.57597H4.01802C2.0798 8.57597 0.502925 10.1528 0.502925 12.0911V17.6369C0.303268 23.1971 10.3709 25.5328 16.5114 25.8452C16.4636 25.603 16.438 25.353 16.438 25.0969V22.402C16.438 21.7549 16.9626 21.2303 17.6097 21.2303H23.3901C24.0372 21.2303 24.5618 21.7549 24.5618 22.402V25.0969C24.5618 25.3529 24.5362 25.603 24.4885 25.8452C30.6253 25.5357 40.7026 23.1907 40.4969 17.6369V12.0911C40.4969 10.1528 38.9201 8.57597 36.9818 8.57597Z" fill="#FFAF4B"/>
<path d="M12.6105 6.05463C12.6105 5.31279 13.214 4.70929 13.9558 4.70929H27.0442C27.7859 4.70929 28.3894 5.31279 28.3894 6.05463V6.2325H30.7328V6.05463C30.7328 4.02064 29.0781 2.36589 27.0442 2.36589H13.9558C11.9218 2.36589 10.2671 4.02064 10.2671 6.05463V6.2325H12.6105V6.05463Z" fill="#FFAF4B"/>
<path d="M22.8851 28.2814C22.2621 28.7112 21.5078 28.9635 20.6954 28.9635H20.3049C19.4925 28.9635 18.7382 28.7112 18.1152 28.2814C13.7099 28.1032 9.62703 27.4329 6.42938 26.3492C4.71714 25.7689 3.2583 25.0685 2.06543 24.2557V34.119C2.06543 36.0572 3.6423 37.6341 5.58053 37.6341H35.4198C37.358 37.6341 38.9349 36.0572 38.9349 34.119V24.2555C34.2853 27.1883 29.122 27.9088 22.8851 28.2814Z" fill="#FFAF4B"/>
<path d="M20.3045 26.6201H20.695C21.538 26.6262 22.2225 25.9141 22.2182 25.0969V23.5737H18.7812V25.0969C18.7812 25.3948 18.8838 25.7211 19.0568 25.968C19.3325 26.3616 19.7885 26.6201 20.3045 26.6201Z" fill="#FFAF4B"/>
</g>
<defs>
<clipPath id="clip0_97_991">
<rect width="40" height="40" fill="white" transform="translate(0.5)"/>
</clipPath>
</defs>
</svg>
