<svg width="16" height="17" viewBox="0 0 16 17" fill="none" xmlns="http://www.w3.org/2000/svg">
<g clip-path="url(#clip0_27_1298)">
<path d="M10.5205 6.83759C11.5813 5.87044 13.0158 4.56241 13.1466 1.4375H14.0938V0.5H1.90625V1.4375H2.85341C2.98416 4.56241 4.41872 5.87044 5.47953 6.83759C6.19112 7.48637 6.59375 7.88347 6.59375 8.5C6.59375 9.11653 6.19112 9.51363 5.47953 10.1624C4.41872 11.1296 2.98416 12.4376 2.85341 15.5625H1.90625V16.5H14.0938V15.5625H13.1466C13.0158 12.4376 11.5813 11.1296 10.5205 10.1624C9.80888 9.51363 9.40625 9.11653 9.40625 8.5C9.40625 7.88347 9.80888 7.48637 10.5205 6.83759ZM3.79206 1.4375H12.2079C12.1669 2.32131 12.0104 3.03441 11.7837 3.625H4.21622C3.98956 3.03441 3.83303 2.32131 3.79206 1.4375ZM6.11116 10.8552C6.84147 10.1894 7.53125 9.56047 7.53125 8.5V12.0137C7.38647 12.0436 7.24344 12.087 7.10384 12.1448L4.23269 13.3329C4.70156 12.1407 5.45675 11.4518 6.11116 10.8552ZM12.2079 15.5625H3.79209C3.81031 15.1695 3.85131 14.8102 3.91125 14.4805L7.46231 13.0111C7.809 12.8676 8.19094 12.8676 8.53769 13.0111L12.0887 14.4805C12.1487 14.8102 12.1897 15.1695 12.2079 15.5625ZM9.88884 10.8552C10.5433 11.4518 11.2984 12.1407 11.7673 13.3328L8.89616 12.1447C8.75656 12.087 8.61353 12.0435 8.46875 12.0137V8.5C8.46875 9.56047 9.15853 10.1894 9.88884 10.8552ZM8.67666 7.5625H7.32331C7.06447 7.01441 6.59691 6.58769 6.11112 6.14478C5.64069 5.71584 5.11809 5.23941 4.68725 4.5625H11.3127C10.8819 5.23941 10.3593 5.71587 9.88884 6.14478C9.40306 6.58769 8.9355 7.01441 8.67666 7.5625Z" fill="black"/>
</g>
<defs>
<clipPath id="clip0_27_1298">
<rect width="16" height="16" fill="white" transform="translate(0 0.5)"/>
</clipPath>
</defs>
</svg>
