<svg width="44" height="44" viewBox="0 0 44 44" fill="none" xmlns="http://www.w3.org/2000/svg">
<path d="M27.0186 14.1335H16.9124C11.7596 16.6979 6.99072 24.1102 6.99072 29.9725C6.99072 37.6065 14.3673 41.0626 22.0013 41.0626C29.6353 41.0626 37.0118 37.6065 37.0118 29.9725C37.0104 24.1102 32.1708 16.6979 27.0186 14.1335Z" fill="url(#paint0_linear_27_1182)"/>
<path d="M22 32.8997C24.9279 32.8997 27.3014 30.5263 27.3014 27.5984C27.3014 24.6706 24.9279 22.2971 22 22.2971C19.0722 22.2971 16.6987 24.6706 16.6987 27.5984C16.6987 30.5263 19.0722 32.8997 22 32.8997Z" fill="url(#paint1_linear_27_1182)"/>
<path d="M25.0425 27.3577L22.236 24.5512C22.1061 24.4212 21.8954 24.4212 21.7655 24.5512L18.959 27.3577C18.829 27.4876 18.829 27.6983 18.959 27.8282L21.7655 30.6347C21.8954 30.7647 22.1061 30.7647 22.236 30.6347L25.0425 27.8282C25.1724 27.6983 25.1724 27.4876 25.0425 27.3577Z" fill="url(#paint2_linear_27_1182)"/>
<path d="M27.668 6.97809C27.5663 7.01586 27.4578 7.03238 27.3495 7.02663C27.2411 7.02089 27.135 6.993 27.0378 6.94469C26.9406 6.89638 26.8543 6.82867 26.7843 6.74573C26.7142 6.66279 26.6619 6.56639 26.6306 6.46246C26.2793 5.28168 25.214 2.97168 21.9999 2.97168C18.7859 2.97168 17.7206 5.28168 17.3693 6.46246C17.3379 6.56639 17.2857 6.66279 17.2156 6.74573C17.1456 6.82867 17.0593 6.89638 16.9621 6.94469C16.8649 6.993 16.7588 7.02089 16.6504 7.02663C16.542 7.03238 16.4336 7.01586 16.3319 6.97809C11.706 5.32809 8.9182 11.0869 14.6052 12.585C15.2129 12.7275 15.7719 13.0288 16.2249 13.4583C16.6779 13.8877 17.0086 14.4298 17.1833 15.0291H26.8155C26.9902 14.4298 27.321 13.8877 27.774 13.4583C28.227 13.0288 28.7859 12.7275 29.3937 12.585C35.0817 11.0856 32.2939 5.32602 27.668 6.97809Z" fill="url(#paint3_linear_27_1182)"/>
<path d="M10.3345 18.9913C10.3064 18.9913 10.2782 18.9895 10.2503 18.9861C10.0699 18.9639 9.90559 18.8712 9.79337 18.7282C9.68115 18.5851 9.63014 18.4035 9.65149 18.223C9.66352 18.1233 9.96465 15.7679 11.7078 14.4761C12.3597 13.9681 13.118 13.614 13.9259 13.44C14.7339 13.2661 15.5707 13.2769 16.3739 13.4717C19.7113 14.3379 24.2997 14.3376 27.5371 13.4717C27.6248 13.4467 27.7166 13.4394 27.8072 13.4502C27.8977 13.461 27.9852 13.4897 28.0646 13.5347C28.1439 13.5796 28.2135 13.6399 28.2693 13.7121C28.3251 13.7842 28.366 13.8667 28.3897 13.9547C28.4133 14.0428 28.4191 14.1347 28.4069 14.2251C28.3947 14.3155 28.3646 14.4025 28.3184 14.4811C28.2722 14.5597 28.2108 14.6284 28.1378 14.6831C28.0648 14.7377 27.9817 14.7773 27.8933 14.7996C24.4451 15.7236 19.5608 15.7243 16.0153 14.7996C16.0033 14.7965 15.9916 14.7927 15.981 14.7889C15.3829 14.6546 14.7623 14.656 14.1648 14.7928C13.5673 14.9296 13.008 15.1984 12.528 15.5795C11.2668 16.5145 11.02 18.3691 11.0176 18.388C10.997 18.5546 10.9162 18.7079 10.7904 18.8191C10.6645 18.9302 10.5024 18.9914 10.3345 18.9913Z" fill="url(#paint4_linear_27_1182)"/>
<path d="M12.6517 13.5715C11.9423 13.582 11.239 13.4398 10.5894 13.1545C9.93987 12.8691 9.35935 12.4473 8.88728 11.9177C8.82507 11.8506 8.77687 11.7718 8.74551 11.6859C8.71415 11.5999 8.70026 11.5086 8.70465 11.4172C8.70904 11.3258 8.73162 11.2362 8.77108 11.1537C8.81053 11.0712 8.86606 10.9973 8.93442 10.9365C9.00277 10.8757 9.08257 10.8292 9.16914 10.7996C9.25572 10.77 9.34732 10.758 9.43859 10.7643C9.52986 10.7706 9.61896 10.795 9.70066 10.8362C9.78236 10.8774 9.85503 10.9344 9.9144 11.004C10.3014 11.4384 10.788 11.7724 11.3325 11.9773C11.877 12.1822 12.4631 12.2519 13.0405 12.1803C13.1308 12.1721 13.2219 12.1818 13.3085 12.2089C13.395 12.2361 13.4754 12.2801 13.5449 12.3384C13.6144 12.3967 13.6716 12.4682 13.7133 12.5488C13.7551 12.6293 13.7804 12.7173 13.788 12.8077C13.7955 12.8982 13.7851 12.9892 13.7573 13.0755C13.7296 13.1619 13.685 13.2419 13.6261 13.3109C13.5673 13.38 13.4953 13.4367 13.4145 13.4778C13.3336 13.5189 13.2454 13.5436 13.1549 13.5505C12.982 13.5649 12.8143 13.5715 12.6517 13.5715Z" fill="url(#paint5_linear_27_1182)"/>
<defs>
<linearGradient id="paint0_linear_27_1182" x1="21.9999" y1="39.789" x2="21.9999" y2="6.83092" gradientUnits="userSpaceOnUse">
<stop stop-color="#FF3345"/>
<stop offset="1" stop-color="#FF9C7A"/>
</linearGradient>
<linearGradient id="paint1_linear_27_1182" x1="22" y1="22.6876" x2="22" y2="33.3872" gradientUnits="userSpaceOnUse">
<stop stop-color="#FFE781"/>
<stop offset="0.604" stop-color="#FFBB6F"/>
<stop offset="1" stop-color="#FFA265"/>
</linearGradient>
<linearGradient id="paint2_linear_27_1182" x1="21.9976" y1="31.7862" x2="21.9976" y2="23.0054" gradientUnits="userSpaceOnUse">
<stop stop-color="#473051"/>
<stop offset="1" stop-color="#FF4F54"/>
</linearGradient>
<linearGradient id="paint3_linear_27_1182" x1="21.9999" y1="14.4804" x2="21.9999" y2="3.15009" gradientUnits="userSpaceOnUse">
<stop stop-color="#FF3345"/>
<stop offset="1" stop-color="#FF9C7A"/>
</linearGradient>
<linearGradient id="paint4_linear_27_1182" x1="23.8755" y1="21.0699" x2="17.7667" y2="14.9608" gradientUnits="userSpaceOnUse">
<stop stop-color="#F1DDB5"/>
<stop offset="1" stop-color="#FFCD9F"/>
</linearGradient>
<linearGradient id="paint5_linear_27_1182" x1="9.67378" y1="10.7452" x2="14.2072" y2="14.8702" gradientUnits="userSpaceOnUse">
<stop stop-color="#F1DDB5"/>
<stop offset="1" stop-color="#FFCD9F"/>
</linearGradient>
</defs>
</svg>
