<svg width="16" height="16" viewBox="0 0 16 16" fill="none" xmlns="http://www.w3.org/2000/svg">
<g clip-path="url(#clip0_101_815)">
<path d="M14.6488 8.72119C15.0027 8.33238 15.2188 7.81597 15.2188 7.25C15.2188 6.04378 14.2375 5.0625 13.0312 5.0625C11.825 5.0625 10.8438 6.04378 10.8438 7.25C10.8438 8.08581 11.3151 8.81331 12.0058 9.1815C11.5779 9.60634 11.3125 10.1946 11.3125 10.8438V11.3125H9.90625C9.13084 11.3125 8.5 11.9433 8.5 12.7188C8.5 12.8831 8.52859 13.0408 8.58062 13.1875H7.41937C7.47141 13.0408 7.5 12.8831 7.5 12.7188C7.5 11.9433 6.86916 11.3125 6.09375 11.3125H4.6875V10.8438C4.6875 10.1946 4.42209 9.60634 3.99422 9.1815C4.68491 8.81331 5.15625 8.08581 5.15625 7.25C5.15625 6.04378 4.17497 5.0625 2.96875 5.0625C1.76253 5.0625 0.78125 6.04378 0.78125 7.25C0.78125 7.81597 0.997313 8.33238 1.35125 8.72119C0.553781 9.09559 0 9.90603 0 10.8438V15.5312C0 15.7901 0.209875 16 0.46875 16H15.5312C15.7901 16 16 15.7901 16 15.5312V10.8438C16 9.90603 15.4462 9.09559 14.6488 8.72119ZM11.7812 7.25C11.7812 6.56075 12.342 6 13.0312 6C13.7205 6 14.2812 6.56075 14.2812 7.25C14.2812 7.93925 13.7205 8.5 13.0312 8.5C12.342 8.5 11.7812 7.93925 11.7812 7.25ZM2.96875 6C3.658 6 4.21875 6.56075 4.21875 7.25C4.21875 7.93925 3.658 8.5 2.96875 8.5C2.2795 8.5 1.71875 7.93925 1.71875 7.25C1.71875 6.56075 2.2795 6 2.96875 6ZM2.34375 11.3125C2.08488 11.3125 1.875 11.5224 1.875 11.7812V12.4062C1.875 13.1915 2.40447 13.8549 3.125 14.0595V15.0625H0.9375V10.8438C0.9375 10.0683 1.56834 9.4375 2.34375 9.4375C3.11916 9.4375 3.75 10.0683 3.75 10.8438V11.7812C3.75 12.0401 3.95988 12.25 4.21875 12.25H6.09375C6.35222 12.25 6.5625 12.4603 6.5625 12.7188C6.5625 12.9772 6.35222 13.1875 6.09375 13.1875H3.59375C3.16297 13.1875 2.8125 12.837 2.8125 12.4062V11.7812C2.8125 11.5224 2.60262 11.3125 2.34375 11.3125ZM11.9375 15.0625H4.0625V14.125H11.9375V15.0625ZM15.0625 15.0625H12.875V14.0595C13.5955 13.8549 14.125 13.1915 14.125 12.4062V11.7812C14.125 11.5224 13.9151 11.3125 13.6562 11.3125C13.3974 11.3125 13.1875 11.5224 13.1875 11.7812V12.4062C13.1875 12.837 12.837 13.1875 12.4062 13.1875H9.90625C9.64778 13.1875 9.4375 12.9772 9.4375 12.7188C9.4375 12.4603 9.64778 12.25 9.90625 12.25H11.7812C12.0401 12.25 12.25 12.0401 12.25 11.7812V10.8438C12.25 10.0683 12.8808 9.4375 13.6562 9.4375C14.4317 9.4375 15.0625 10.0683 15.0625 10.8438V15.0625Z" fill="#121212"/>
<path d="M5.5 4.6875H5.65625V5.46875C5.65625 5.64894 5.75956 5.81316 5.92194 5.89125C6.08434 5.96931 6.27706 5.94741 6.41781 5.83478L7.85194 4.6875H8.14809L9.58222 5.83478C9.72328 5.94775 9.91653 5.969 10.0781 5.89125C10.2405 5.81319 10.3438 5.64894 10.3438 5.46875V4.6875H10.5C11.1031 4.6875 11.5938 4.19684 11.5938 3.59375V1.09375C11.5938 0.490656 11.1031 0 10.5 0H5.5C4.89691 0 4.40625 0.490656 4.40625 1.09375V3.59375C4.40625 4.19684 4.89691 4.6875 5.5 4.6875ZM5.34375 1.09375C5.34375 1.00759 5.41384 0.9375 5.5 0.9375H10.5C10.5862 0.9375 10.6562 1.00759 10.6562 1.09375V3.59375C10.6562 3.67991 10.5862 3.75 10.5 3.75H9.875C9.61613 3.75 9.40625 3.95988 9.40625 4.21875V4.49347L8.60531 3.85272C8.52222 3.78622 8.41894 3.75 8.3125 3.75H7.6875C7.58106 3.75 7.47778 3.78622 7.39469 3.85272L6.59375 4.49347V4.21875C6.59375 3.95988 6.38388 3.75 6.125 3.75H5.5C5.41384 3.75 5.34375 3.67991 5.34375 3.59375V1.09375Z" fill="#121212"/>
<path d="M6.75 2.8125H9.25C9.50887 2.8125 9.71875 2.60263 9.71875 2.34375C9.71875 2.08487 9.50887 1.875 9.25 1.875H6.75C6.49112 1.875 6.28125 2.08487 6.28125 2.34375C6.28125 2.60263 6.49112 2.8125 6.75 2.8125Z" fill="#121212"/>
</g>
<defs>
<clipPath id="clip0_101_815">
<rect width="16" height="16" fill="white"/>
</clipPath>
</defs>
</svg>
