<svg width="20" height="21" viewBox="0 0 20 21" fill="none" xmlns="http://www.w3.org/2000/svg">
<path d="M19.1673 8.64229C19.1673 8.63341 19.1648 8.62499 19.1642 8.61618C19.1636 8.60636 19.1621 8.59711 19.1608 8.58731C19.1543 8.5409 19.1416 8.49611 19.1199 8.45527C19.1192 8.45403 19.1193 8.45262 19.1187 8.45138C19.1169 8.44819 19.1138 8.44649 19.1119 8.44335C19.0895 8.40475 19.0604 8.37054 19.0259 8.34104C19.0206 8.33654 19.0163 8.33131 19.0108 8.3271C19.0078 8.32484 19.0057 8.32182 19.0027 8.31963L15.8143 6.00811C15.6352 5.8789 15.3865 5.9184 15.2577 6.09685C15.1285 6.27511 15.1682 6.52421 15.3464 6.65342L18.024 8.59461L10.0007 12.971L1.97734 8.59461L4.65486 6.65342C4.83311 6.52421 4.87281 6.27511 4.7436 6.09685C4.61477 5.91879 4.36567 5.87909 4.18703 6.00811L0.99862 8.31963C0.995604 8.32182 0.993487 8.32484 0.990544 8.3271C0.985046 8.33131 0.980716 8.33654 0.975438 8.34104C0.940871 8.37054 0.911753 8.40475 0.889374 8.44335C0.887549 8.44649 0.884387 8.44819 0.882636 8.45138C0.881954 8.45262 0.8821 8.45403 0.881444 8.45527C0.859697 8.49611 0.847047 8.5409 0.840528 8.58731C0.839166 8.59711 0.837706 8.60636 0.837098 8.61618C0.836514 8.62499 0.833984 8.63341 0.833984 8.64229V18.2075C0.833984 18.4276 1.01224 18.6061 1.23254 18.6061H18.7688C18.769 18.6061 18.7693 18.6059 18.7695 18.6059C18.8166 18.6058 18.862 18.5945 18.9058 18.5784C18.9173 18.5741 18.9281 18.5698 18.9391 18.5645C18.9777 18.5462 19.014 18.5233 19.0454 18.4928C19.0473 18.491 19.0496 18.49 19.0514 18.4882C19.0773 18.4621 19.1002 18.4323 19.1187 18.3984C19.1219 18.3925 19.1215 18.3859 19.1244 18.3799C19.1359 18.3562 19.141 18.3305 19.1478 18.3045C19.1545 18.2781 19.1623 18.2529 19.1635 18.2263C19.1638 18.2197 19.1673 18.2142 19.1673 18.2075V8.64229Z" fill="#005CF8"/>
<path d="M11.4726 1.86694C10.9106 1.86694 10.3891 2.07478 10.001 2.43947C9.61298 2.07478 9.09144 1.86694 8.52942 1.86694C7.34311 1.86694 6.41406 2.82304 6.41406 4.0436C6.41406 5.89448 9.40592 8.42221 9.74687 8.70419C9.82082 8.7651 9.91072 8.79565 10.001 8.79565C10.0913 8.79565 10.1812 8.7651 10.2552 8.70419C10.5961 8.42221 13.588 5.89448 13.588 4.0436C13.588 2.82304 12.6589 1.86694 11.4726 1.86694Z" fill="#005CF8"/>
</svg>
