<svg width="70" height="70" viewBox="0 0 70 70" fill="none" xmlns="http://www.w3.org/2000/svg">
<circle cx="35" cy="35" r="35" fill="#F9F1ED"/>
<path d="M37.4521 33.079C37.2774 33.0791 37.1066 33.0274 36.9613 32.9304C36.816 32.8334 36.7027 32.6955 36.6358 32.5341C36.5688 32.3728 36.5513 32.1952 36.5852 32.0239C36.6192 31.8525 36.7032 31.6951 36.8267 31.5715L46.6585 21.7396C46.8252 21.5788 47.0484 21.4899 47.28 21.492C47.5116 21.4941 47.7331 21.5871 47.8968 21.751C48.0605 21.9148 48.1533 22.1364 48.1552 22.368C48.1571 22.5996 48.0679 22.8227 47.907 22.9892L38.0763 32.8211C37.9943 32.903 37.8969 32.9679 37.7898 33.0121C37.6827 33.0564 37.568 33.0791 37.4521 33.079Z" fill="#5D8627"/>
<path d="M55.9652 25.0091C55.7798 25.0091 55.5992 24.9509 55.4487 24.8426C55.2982 24.7344 55.1856 24.5817 55.1266 24.406C55.0677 24.2303 55.0654 24.0405 55.1201 23.8634C55.1748 23.6863 55.2838 23.5309 55.4316 23.4191L55.699 23.2189C55.8864 23.0783 56.122 23.018 56.3539 23.0511C56.5858 23.0842 56.7951 23.2081 56.9356 23.3956C57.0762 23.583 57.1365 23.8186 57.1034 24.0505C57.0703 24.2824 56.9464 24.4916 56.759 24.6322L56.4928 24.8336C56.3403 24.9471 56.1553 25.0087 55.9652 25.0091ZM45.2771 33.0484C45.0917 33.0484 44.9111 32.9902 44.7606 32.882C44.6102 32.7738 44.4975 32.621 44.4385 32.4453C44.3796 32.2696 44.3773 32.0798 44.432 31.9027C44.4868 31.7256 44.5957 31.5702 44.7436 31.4584L52.7417 25.4449C52.9291 25.3043 53.1647 25.2439 53.3966 25.2771C53.6285 25.3102 53.8377 25.4341 53.9783 25.6215C54.1189 25.8089 54.1792 26.0445 54.1461 26.2764C54.113 26.5083 53.9891 26.7176 53.8016 26.8581L45.8047 32.8729C45.6522 32.9865 45.4672 33.048 45.2771 33.0484Z" fill="#86B42F"/>
<path d="M44.3998 41.0971C44.1885 41.0973 43.9841 41.0218 43.8238 40.8842C43.6634 40.7466 43.5577 40.5561 43.5258 40.3472C43.4938 40.1383 43.5379 39.9249 43.6498 39.7457C43.7618 39.5665 43.9343 39.4334 44.136 39.3705L52.1683 36.8631C52.2792 36.8283 52.396 36.8157 52.5118 36.826C52.6277 36.8363 52.7403 36.8694 52.8434 36.9232C52.9465 36.9771 53.0379 37.0507 53.1126 37.1399C53.1872 37.2291 53.2435 37.3322 53.2783 37.4431C53.3131 37.5541 53.3257 37.6708 53.3154 37.7867C53.3051 37.9025 53.272 38.0152 53.2182 38.1183C53.1643 38.2213 53.0907 38.3128 53.0015 38.3874C52.9122 38.462 52.8092 38.5184 52.6982 38.5532L44.666 41.0618C44.5796 41.0869 44.4898 41.0988 44.3998 41.0971Z" fill="#5D8627"/>
<path d="M54.0013 44.5222C53.7343 44.5219 53.4693 44.4774 53.2169 44.3903L52.3159 44.0157C52.0998 43.9253 51.9284 43.7527 51.8395 43.5359C51.7506 43.3191 51.7515 43.0759 51.8419 42.8598C51.9323 42.6436 52.1049 42.4722 52.3217 42.3833C52.5385 42.2944 52.7817 42.2953 52.9978 42.3857L53.8446 42.7391C53.9922 42.7752 54.1478 42.7568 54.2828 42.6872C54.3584 42.6503 54.4261 42.5989 54.4819 42.5358C54.5376 42.4728 54.5804 42.3994 54.6078 42.3198C54.7101 42.0201 54.8706 41.7436 55.08 41.5061C55.2895 41.2687 55.5437 41.0749 55.8283 40.9359C56.1128 40.7969 56.4219 40.7155 56.738 40.6963C57.054 40.6771 57.3707 40.7205 57.67 40.824L58.2907 41.036C58.5123 41.1124 58.6945 41.2737 58.7972 41.4844C58.8999 41.6951 58.9147 41.938 58.8383 42.1596C58.7619 42.3812 58.6007 42.5634 58.3899 42.6661C58.1792 42.7688 57.9364 42.7836 57.7147 42.7073L57.0964 42.4953C56.9354 42.4407 56.7593 42.4519 56.6065 42.5265C56.4536 42.601 56.3364 42.7328 56.2802 42.8933C56.117 43.3676 55.81 43.7792 55.402 44.0709C54.994 44.3626 54.5052 44.5199 54.0036 44.521L54.0013 44.5222Z" fill="#0195B8"/>
<path d="M49.3409 20.7093C49.177 20.7089 49.0165 20.6629 48.8773 20.5766C48.738 20.4903 48.6254 20.3669 48.5521 20.2204C48.4789 20.0738 48.4477 19.9098 48.4622 19.7465C48.4767 19.5833 48.5363 19.4273 48.6343 19.296L49.1866 18.5623C49.258 18.4288 49.2793 18.2743 49.2467 18.1265C49.2296 18.0437 49.1964 17.9651 49.1489 17.8952C49.1014 17.8253 49.0406 17.7654 48.9699 17.719C48.7055 17.5452 48.4779 17.321 48.3003 17.0592C48.1226 16.7974 47.9982 16.5032 47.9343 16.1933C47.8705 15.8834 47.8683 15.564 47.928 15.2532C47.9876 14.9425 48.108 14.6466 48.2821 14.3824L48.6354 13.8371C48.764 13.6411 48.9651 13.5042 49.1946 13.4565C49.4241 13.4088 49.6631 13.4542 49.8591 13.5827C50.0551 13.7113 50.192 13.9124 50.2397 14.1419C50.2875 14.3714 50.242 14.6104 50.1135 14.8064L49.7543 15.3541C49.7077 15.4244 49.6755 15.5032 49.6595 15.586C49.6435 15.6688 49.644 15.754 49.6609 15.8366C49.6779 15.9192 49.711 15.9976 49.7583 16.0674C49.8057 16.1372 49.8664 16.197 49.9368 16.2433C50.2014 16.417 50.429 16.6411 50.6068 16.9028C50.7846 17.1646 50.9091 17.4588 50.9731 17.7687C51.0371 18.0786 51.0393 18.3981 50.9798 18.7088C50.9202 19.0196 50.7999 19.3156 50.6258 19.5798L50.037 20.3595C49.9555 20.4673 49.8504 20.5549 49.7297 20.6155C49.609 20.6762 49.476 20.7083 49.3409 20.7093Z" fill="#48BFDD"/>
<path d="M60.7645 35.6479C60.6449 35.6482 60.5264 35.624 60.4164 35.5768C60.3064 35.5296 60.2073 35.4604 60.125 35.3735L59.1828 34.39C59.1247 34.3289 59.0551 34.2798 58.978 34.2456C58.9009 34.2114 58.8178 34.1927 58.7334 34.1906C58.6491 34.1885 58.5652 34.2031 58.4865 34.2335C58.4078 34.2639 58.3358 34.3095 58.2748 34.3677C58.0508 34.5927 57.7819 34.7682 57.4857 34.8826C57.1894 34.9971 56.8724 35.0479 56.5553 35.0319C56.2389 35.0246 55.9271 34.9548 55.6378 34.8264C55.3486 34.6981 55.0876 34.5137 54.8699 34.284L53.7322 33.0886C53.6522 33.0046 53.5894 32.9057 53.5476 32.7975C53.5058 32.6893 53.4857 32.5739 53.4885 32.4579C53.4913 32.3419 53.5169 32.2276 53.5639 32.1215C53.6109 32.0155 53.6782 31.9197 53.7622 31.8396C53.8462 31.7596 53.9451 31.6969 54.0534 31.6551C54.1616 31.6133 54.277 31.5932 54.393 31.596C54.5089 31.5987 54.6232 31.6244 54.7293 31.6713C54.8354 31.7183 54.9312 31.7857 55.0112 31.8697L56.1489 33.0651C56.2069 33.1266 56.2766 33.1759 56.3538 33.2103C56.431 33.2447 56.5143 33.2634 56.5988 33.2653C56.6831 33.2695 56.7674 33.2559 56.8461 33.2255C56.9248 33.195 56.9962 33.1484 57.0558 33.0886C57.2854 32.8699 57.5559 32.6985 57.8518 32.5843C58.1477 32.4701 58.4632 32.4153 58.7803 32.4231C59.0974 32.4308 59.4098 32.501 59.6997 32.6295C59.9897 32.7581 60.2515 32.9425 60.4701 33.1722L61.4123 34.1557C61.5314 34.2809 61.6112 34.4382 61.6418 34.6083C61.6723 34.7784 61.6524 34.9537 61.5843 35.1125C61.5162 35.2713 61.4031 35.4067 61.2588 35.5019C61.1146 35.597 60.9456 35.6478 60.7728 35.6479H60.7645Z" fill="#FFC200"/>
<path d="M43.499 16.011C43.3352 16.0106 43.1747 15.9646 43.0354 15.8783C42.8961 15.792 42.7836 15.6687 42.7103 15.5221C42.637 15.3755 42.6059 15.2115 42.6204 15.0483C42.6349 14.8851 42.6944 14.7291 42.7924 14.5977L42.9926 14.3304C43.0622 14.2376 43.1494 14.1594 43.2492 14.1003C43.349 14.0412 43.4595 14.0023 43.5743 13.9859C43.6892 13.9695 43.8061 13.9759 43.9185 14.0047C44.0309 14.0335 44.1364 14.0841 44.2292 14.1537C44.322 14.2233 44.4002 14.3105 44.4593 14.4103C44.5184 14.5101 44.5573 14.6206 44.5737 14.7354C44.5901 14.8503 44.5837 14.9672 44.5549 15.0796C44.5261 15.192 44.4755 15.2976 44.4059 15.3904L44.2057 15.6577C44.1235 15.7675 44.0168 15.8566 43.8941 15.9179C43.7715 15.9792 43.6362 16.0111 43.499 16.011ZM36.5421 25.6203C36.38 25.6198 36.2211 25.5748 36.0828 25.4902C35.9446 25.4055 35.8322 25.2845 35.7581 25.1404C35.684 24.9962 35.6508 24.8344 35.6624 24.6727C35.674 24.511 35.7297 24.3556 35.8236 24.2235L40.7549 17.3089C40.8924 17.1221 41.0979 16.997 41.327 16.9604C41.556 16.9239 41.7903 16.9789 41.9791 17.1136C42.1679 17.2483 42.2962 17.4519 42.3362 17.6804C42.3762 17.9088 42.3247 18.1439 42.1929 18.3347L37.2617 25.2446C37.1806 25.3603 37.0729 25.4548 36.9477 25.5201C36.8224 25.5855 36.6833 25.6199 36.5421 25.6203Z" fill="#86B42F"/>
<path d="M29.4343 26.1317C29.3452 26.1322 29.2566 26.1187 29.1717 26.0916C29.0608 26.0571 28.9578 26.0011 28.8686 25.9268C28.7794 25.8525 28.7058 25.7613 28.6518 25.6585C28.5979 25.5556 28.5648 25.4432 28.5544 25.3275C28.5439 25.2119 28.5564 25.0954 28.591 24.9845L31.0997 16.9523C31.1696 16.7286 31.3256 16.5419 31.5332 16.4333C31.7408 16.3246 31.9831 16.3029 32.2067 16.3728C32.4304 16.4428 32.6171 16.5987 32.7258 16.8064C32.8344 17.014 32.8562 17.2563 32.7862 17.4799L30.2776 25.5122C30.2215 25.6919 30.1094 25.849 29.9577 25.9604C29.806 26.0719 29.6226 26.1319 29.4343 26.1317Z" fill="#5D8627"/>
<path d="M26.4475 17.8756C26.2731 17.8755 26.1026 17.824 25.9574 17.7274C25.8122 17.6308 25.6988 17.4935 25.6313 17.3327L25.278 16.4835C25.1687 16.1822 25.1203 15.8621 25.1356 15.5419C25.1508 15.2216 25.2295 14.9076 25.367 14.618C25.5044 14.3284 25.698 14.0689 25.9364 13.8546C26.1749 13.6403 26.4535 13.4755 26.756 13.3696C26.9164 13.3136 27.0483 13.1966 27.1228 13.044C27.1974 12.8914 27.2086 12.7155 27.1541 12.5546L26.9398 11.9362C26.899 11.8259 26.8807 11.7085 26.8859 11.5909C26.8911 11.4734 26.9198 11.358 26.9702 11.2517C27.0206 11.1454 27.0918 11.0502 27.1795 10.9718C27.2672 10.8933 27.3696 10.8332 27.4809 10.7949C27.5922 10.7566 27.71 10.7409 27.8274 10.7488C27.9448 10.7567 28.0594 10.7879 28.1646 10.8407C28.2697 10.8935 28.3633 10.9667 28.4398 11.0562C28.5162 11.1456 28.574 11.2494 28.6098 11.3615L28.823 11.981C29.0304 12.5854 28.9894 13.2475 28.7089 13.8217C28.4284 14.3958 27.9315 14.8352 27.3273 15.0432C27.1664 15.0988 27.0341 15.216 26.9595 15.369C26.8849 15.522 26.874 15.6983 26.9292 15.8593L27.2589 16.6472C27.3146 16.7816 27.3364 16.9275 27.3223 17.0723C27.3082 17.217 27.2587 17.356 27.1782 17.4771C27.0976 17.5981 26.9885 17.6975 26.8604 17.7664C26.7324 17.8353 26.5894 17.8716 26.4439 17.8721L26.4475 17.8756Z" fill="#FFC200"/>
<path d="M37.1689 16.1549C36.9421 16.1548 36.7241 16.0675 36.56 15.9111L35.3645 14.7734C34.9023 14.3326 34.6338 13.7264 34.6179 13.0879C34.602 12.4493 34.84 11.8306 35.2797 11.3673C35.397 11.2438 35.4605 11.0789 35.4563 10.9087C35.4521 10.7384 35.3806 10.5768 35.2574 10.4593L34.2739 9.52295C34.19 9.44291 34.1226 9.34712 34.0756 9.24103C34.0286 9.13495 34.003 9.02065 34.0003 8.90467C33.9975 8.78869 34.0176 8.6733 34.0594 8.56508C34.1012 8.45686 34.1639 8.35793 34.2439 8.27395C34.324 8.18997 34.4198 8.12257 34.5258 8.07561C34.6319 8.02865 34.7462 8.00304 34.8622 8.00026C34.9782 7.99747 35.0936 8.01755 35.2018 8.05936C35.31 8.10116 35.4089 8.16388 35.4929 8.24392L36.4763 9.18612C36.9369 9.62635 37.2044 10.231 37.2205 10.8679C37.2367 11.5048 37 12.1222 36.5623 12.5851C36.4451 12.7086 36.3816 12.8735 36.3858 13.0438C36.39 13.214 36.4615 13.3756 36.5847 13.4931L37.7801 14.6309C37.9083 14.7525 37.9971 14.9098 38.0349 15.0825C38.0727 15.2551 38.0579 15.4352 37.9923 15.5993C37.9267 15.7634 37.8134 15.9041 37.6671 16.0031C37.5207 16.1022 37.348 16.155 37.1712 16.1549H37.1689Z" fill="#FF900F"/>
<path d="M42.8365 46.8928C41.7545 46.6967 40.7394 46.2309 39.8851 45.5384C36.6306 43.2647 33.5999 40.6863 30.834 37.8383C27.5867 34.7582 24.7405 31.2812 22.3625 27.4894C22.0191 26.9694 21.8203 26.3674 21.7866 25.7452C21.789 25.7118 21.7941 25.6787 21.8019 25.6462L21.7077 25.552L6 62.5675L43.1086 46.9635L43.0143 46.8693C42.9893 46.8771 42.9637 46.8831 42.9378 46.887C42.9042 46.8908 42.8703 46.8928 42.8365 46.8928Z" fill="#FF5639"/>
<path d="M22.7836 55.5129L18.6614 57.2465C17.7467 56.4367 16.8502 55.6066 15.9726 54.7568C15.6311 54.427 15.2778 54.0854 14.9362 53.7439C13.7094 52.5112 12.5167 51.245 11.3594 49.9468L13.1119 45.8247C14.4427 47.4147 16.0409 49.1436 17.784 50.8996C18.2787 51.3943 18.7733 51.8772 19.268 52.3365C20.4068 53.4313 21.5792 54.4906 22.7836 55.5129Z" fill="#FFC200"/>
<path d="M42.8365 46.8928C41.7545 46.6967 40.7394 46.2309 39.8851 45.5384C36.6306 43.2647 33.6 40.6863 30.8341 37.8383C27.5867 34.7582 24.7405 31.2812 22.3625 27.4894C22.0191 26.9694 21.8203 26.3674 21.7866 25.7452C21.789 25.7118 21.7941 25.6787 21.8019 25.6462L21.7077 25.552L15.4727 40.2444L18.4394 39.5025C18.9961 39.3657 19.5793 39.3805 20.1284 39.5452C20.6775 39.71 21.1725 40.0187 21.562 40.4393C21.9515 40.86 22.2213 41.3772 22.3434 41.9373C22.4656 42.4974 22.4355 43.08 22.2565 43.6246L21.8207 44.9201C21.737 45.1679 21.7242 45.4342 21.7838 45.6889C21.8433 45.9436 21.9729 46.1767 22.1578 46.3617C22.3427 46.5467 22.5756 46.6764 22.8303 46.7361C23.085 46.7958 23.3512 46.7832 23.5991 46.6997L24.8947 46.2639C25.3361 46.1152 25.8052 46.0665 26.2678 46.1215C26.7304 46.1765 27.175 46.3338 27.5693 46.5819C28.1525 46.934 28.6076 47.4635 28.8683 48.0929C29.1289 48.7223 29.1814 49.4185 29.018 50.0798L28.276 53.0242L28.2265 53.2197L43.1086 46.9623L43.0144 46.8681C42.9893 46.876 42.9637 46.8819 42.9378 46.8858C42.9042 46.8901 42.8704 46.8924 42.8365 46.8928Z" fill="#FFA133"/>
<path opacity="0.2" d="M22.3625 27.4894C22.0191 26.9694 21.8203 26.3674 21.7866 25.7452C21.789 25.7126 21.7941 25.6803 21.8019 25.6486L21.7077 25.552L6 62.5675C6.20375 62.3944 28.7942 46.1968 35.0033 41.7449C33.5698 40.4902 32.1793 39.1872 30.834 37.8383C27.5867 34.7582 24.7405 31.2812 22.3625 27.4894Z" fill="white"/>
<path opacity="0.2" d="M21.7866 25.7452C21.789 25.7126 21.7941 25.6803 21.8019 25.6486L21.7077 25.552L6 62.5675L27.2101 33.9823C25.3681 31.9964 23.7431 29.8198 22.3625 27.4894C22.0191 26.9694 21.8203 26.3674 21.7866 25.7452Z" fill="white"/>
<path d="M43.2761 46.8646C43.2303 46.9079 43.1762 46.9416 43.1171 46.9636C43.0653 46.9829 43.0116 46.9971 42.957 47.006C41.8071 46.8465 40.7233 46.3739 39.8241 45.6398C36.5639 43.3604 33.5273 40.7766 30.7555 37.9232C27.4972 34.8366 24.6436 31.3493 22.2627 27.5448C21.9048 27.0052 21.7012 26.378 21.6738 25.7311C21.6762 25.607 21.7269 25.4887 21.8152 25.4013C22.8045 24.412 28.4106 28.4175 34.337 34.3428C40.2634 40.2681 44.2619 45.8753 43.2761 46.8646Z" fill="#FF4223"/>
<path d="M39.8212 45.6399C36.5609 43.3605 33.5244 40.7767 30.7525 37.9233C27.4943 34.8367 24.6406 31.3494 22.2598 27.5449C25.5205 29.8281 28.557 32.4159 31.3284 35.2733C34.5885 38.3538 37.4424 41.8374 39.8212 45.6399Z" fill="#FF5639"/>
</svg>
