<svg width="20" height="21" viewBox="0 0 20 21" fill="none" xmlns="http://www.w3.org/2000/svg">
<path d="M6.875 12.075V17.075C6.875 17.2407 6.94085 17.3997 7.05806 17.5169C7.17527 17.6341 7.33424 17.7 7.5 17.7H12.5C12.6658 17.7 12.8247 17.6341 12.9419 17.5169C13.0592 17.3997 13.125 17.2407 13.125 17.075V12.075H6.875ZM11.25 16.45H8.75C8.58424 16.45 8.42527 16.3841 8.30806 16.2669C8.19085 16.1497 8.125 15.9907 8.125 15.825C8.125 15.6592 8.19085 15.5002 8.30806 15.383C8.42527 15.2658 8.58424 15.2 8.75 15.2H11.25C11.4158 15.2 11.5747 15.2658 11.6919 15.383C11.8092 15.5002 11.875 15.6592 11.875 15.825C11.875 15.9907 11.8092 16.1497 11.6919 16.2669C11.5747 16.3841 11.4158 16.45 11.25 16.45ZM11.25 14.575H8.75C8.58424 14.575 8.42527 14.5091 8.30806 14.3919C8.19085 14.2747 8.125 14.1157 8.125 13.95C8.125 13.7842 8.19085 13.6252 8.30806 13.508C8.42527 13.3908 8.58424 13.325 8.75 13.325H11.25C11.4158 13.325 11.5747 13.3908 11.6919 13.508C11.8092 13.6252 11.875 13.7842 11.875 13.95C11.875 14.1157 11.8092 14.2747 11.6919 14.3919C11.5747 14.5091 11.4158 14.575 11.25 14.575Z" fill="#005CF8"/>
<path d="M16.25 6.44995H3.75C3.50368 6.44962 3.25971 6.4979 3.03208 6.59201C2.80445 6.68612 2.59762 6.82422 2.42344 6.99839C2.24927 7.17257 2.11117 7.3794 2.01706 7.60703C1.92295 7.83466 1.87467 8.07863 1.875 8.32495V13.325C1.87649 13.8218 2.07451 14.2978 2.42582 14.6491C2.77713 15.0004 3.25318 15.1985 3.75 15.2H5.625V11.45C5.6255 11.2843 5.6915 11.1257 5.80861 11.0086C5.92571 10.8915 6.08439 10.8254 6.25 10.825H13.75C13.9156 10.8254 14.0743 10.8915 14.1914 11.0086C14.3085 11.1257 14.3745 11.2843 14.375 11.45V15.2H16.25C16.7468 15.1985 17.2229 15.0004 17.5742 14.6491C17.9255 14.2978 18.1235 13.8218 18.125 13.325V8.32495C18.1253 8.07863 18.0771 7.83466 17.9829 7.60703C17.8888 7.3794 17.7507 7.17257 17.5766 6.99839C17.4024 6.82422 17.1956 6.68612 16.9679 6.59201C16.7403 6.4979 16.4963 6.44962 16.25 6.44995ZM15 9.57495C14.9177 9.57587 14.836 9.56033 14.7597 9.52925C14.6835 9.49817 14.6142 9.45217 14.556 9.39394C14.4978 9.33572 14.4518 9.26646 14.4207 9.19021C14.3896 9.11397 14.3741 9.03228 14.375 8.94995C14.375 8.82634 14.4117 8.7055 14.4803 8.60272C14.549 8.49994 14.6466 8.41983 14.7608 8.37253C14.875 8.32522 15.0007 8.31284 15.1219 8.33696C15.2432 8.36108 15.3545 8.4206 15.4419 8.50801C15.5294 8.59542 15.5889 8.70678 15.613 8.82802C15.6371 8.94926 15.6247 9.07492 15.5774 9.18913C15.5301 9.30333 15.45 9.40094 15.3472 9.46962C15.2445 9.5383 15.1236 9.57495 15 9.57495ZM14.375 3.32495V5.82495H5.625V3.32495C5.6255 3.15934 5.6915 3.00066 5.80861 2.88356C5.92571 2.76645 6.08439 2.70045 6.25 2.69995H13.75C13.9156 2.70045 14.0743 2.76645 14.1914 2.88356C14.3085 3.00066 14.3745 3.15934 14.375 3.32495Z" fill="#005CF8"/>
</svg>
