<svg width="30" height="30" viewBox="0 0 30 30" fill="none" xmlns="http://www.w3.org/2000/svg">
<path d="M15 0C12.0333 0 9.13319 0.879735 6.66645 2.52796C4.19972 4.17618 2.27713 6.51886 1.14181 9.25975C0.00649941 12.0006 -0.290551 15.0166 0.288228 17.9264C0.867006 20.8361 2.29562 23.5088 4.3934 25.6066C6.49119 27.7044 9.16394 29.133 12.0737 29.7118C14.9834 30.2906 17.9994 29.9935 20.7403 28.8582C23.4812 27.7229 25.8238 25.8003 27.4721 23.3336C29.1203 20.8668 30 17.9667 30 15C29.9955 11.0231 28.4137 7.21044 25.6016 4.39837C22.7896 1.5863 18.9769 0.00449947 15 0ZM17.707 20.293C17.8025 20.3852 17.8787 20.4956 17.9311 20.6176C17.9835 20.7396 18.0111 20.8708 18.0123 21.0036C18.0134 21.1364 17.9881 21.2681 17.9378 21.391C17.8875 21.5138 17.8133 21.6255 17.7194 21.7194C17.6255 21.8133 17.5139 21.8875 17.391 21.9378C17.2681 21.9881 17.1364 22.0134 17.0036 22.0123C16.8708 22.0111 16.7396 21.9835 16.6176 21.9311C16.4956 21.8787 16.3853 21.8025 16.293 21.707L10.293 15.707C10.1055 15.5195 10.0002 15.2652 10.0002 15C10.0002 14.7348 10.1055 14.4805 10.293 14.293L16.293 8.293C16.4816 8.11084 16.7342 8.01005 16.9964 8.01233C17.2586 8.0146 17.5094 8.11977 17.6948 8.30518C17.8802 8.49059 17.9854 8.7414 17.9877 9.0036C17.99 9.2658 17.8892 9.5184 17.707 9.707L12.414 15L17.707 20.293Z" fill="#0F38B0"/>
</svg>
