<svg width="34" height="23" viewBox="0 0 34 23" fill="none" xmlns="http://www.w3.org/2000/svg">
<g opacity="0.3">
<g clip-path="url(#clip0_15_3818)">
<path d="M1 1H33V22.3336H1V1Z" fill="#F0F0F0"/>
<path d="M1 3.6665H33V6.33294H1V3.6665ZM1 9.00007H33V11.6665H1V9.00007ZM1 14.3329H33V16.9994H1V14.3329ZM1 19.6665H33V22.3329H1V19.6665Z" fill="#D80027"/>
<path d="M1 1H17V12.4873H1V1Z" fill="#2E52B2"/>
<path d="M7.23881 5.7056L6.98112 6.49835H6.14762L6.82206 6.98804L6.56437 7.78073L7.23881 7.29104L7.91281 7.78073L7.65519 6.98804L8.32963 6.49835H7.49606L7.23881 5.7056ZM7.49606 9.3591L7.23881 8.56641L6.98112 9.3591H6.14762L6.82206 9.84885L6.56437 10.6415L7.23881 10.1518L7.91281 10.6415L7.65519 9.84885L8.32963 9.3591H7.49606ZM3.9735 9.3591L3.71619 8.56641L3.4585 9.3591H2.625L3.29944 9.84885L3.04175 10.6415L3.71619 10.1518L4.39025 10.6415L4.13263 9.84885L4.80694 9.3591H3.9735ZM3.71619 5.7056L3.4585 6.49835H2.625L3.29944 6.98804L3.04175 7.78073L3.71619 7.29104L4.39025 7.78073L4.13263 6.98804L4.80694 6.49835H3.9735L3.71619 5.7056ZM7.23881 2.84473L6.98112 3.63754H6.14762L6.82206 4.12729L6.56437 4.91998L7.23881 4.43023L7.91281 4.91998L7.65519 4.12729L8.32963 3.63754H7.49606L7.23881 2.84473ZM3.71619 2.84473L3.4585 3.63754H2.625L3.29944 4.12729L3.04175 4.91998L3.71619 4.43023L4.39025 4.91998L4.13263 4.12729L4.80694 3.63754H3.9735L3.71619 2.84473ZM10.7614 5.7056L10.5038 6.49835H9.67025L10.3446 6.98804L10.0871 7.78073L10.7614 7.29104L11.4355 7.78073L11.1778 6.98804L11.8522 6.49835H11.0187L10.7614 5.7056ZM11.0187 9.3591L10.7614 8.56641L10.5038 9.3591H9.67025L10.3446 9.84885L10.0871 10.6415L10.7614 10.1518L11.4355 10.6415L11.1778 9.84885L11.8522 9.3591H11.0187ZM14.5414 9.3591L14.2841 8.56641L14.0264 9.3591H13.1929L13.8673 9.84885L13.6096 10.6415L14.2841 10.1518L14.9581 10.6415L14.7004 9.84885L15.3749 9.3591H14.5414ZM14.2841 5.7056L14.0264 6.49835H13.1929L13.8673 6.98804L13.6096 7.78073L14.2841 7.29104L14.9581 7.78073L14.7004 6.98804L15.3749 6.49835H14.5414L14.2841 5.7056ZM10.7614 2.84473L10.5038 3.63754H9.67025L10.3446 4.12729L10.0871 4.91998L10.7614 4.43023L11.4355 4.91998L11.1778 4.12729L11.8522 3.63754H11.0187L10.7614 2.84473ZM14.2841 2.84473L14.0264 3.63754H13.1929L13.8673 4.12729L13.6096 4.91998L14.2841 4.43023L14.9581 4.91998L14.7004 4.12729L15.3749 3.63754H14.5414L14.2841 2.84473Z" fill="#F0F0F0"/>
</g>
<rect x="0.5" y="0.5" width="33" height="22" rx="4.5" stroke="white"/>
</g>
<defs>
<clipPath id="clip0_15_3818">
<rect x="1" y="1" width="32" height="21" rx="4" fill="white"/>
</clipPath>
</defs>
</svg>
