<svg width="40" height="40" viewBox="0 0 40 40" fill="none" xmlns="http://www.w3.org/2000/svg">
<path d="M27.5 12.5C26.5054 12.5 25.5516 12.1049 24.8483 11.4017C24.1451 10.6984 23.75 9.74456 23.75 8.75V2.5H10C9.00544 2.5 8.05161 2.89509 7.34835 3.59835C6.64509 4.30161 6.25 5.25544 6.25 6.25V33.75C6.25 34.7446 6.64509 35.6984 7.34835 36.4016C8.05161 37.1049 9.00544 37.5 10 37.5H30C30.9946 37.5 31.9484 37.1049 32.6517 36.4016C33.3549 35.6984 33.75 34.7446 33.75 33.75V12.5H27.5ZM16.25 8.75C16.9917 8.75 17.7167 8.96993 18.3334 9.38199C18.9501 9.79404 19.4307 10.3797 19.7145 11.0649C19.9984 11.7502 20.0726 12.5042 19.9279 13.2316C19.7833 13.959 19.4261 14.6272 18.9017 15.1517C18.3772 15.6761 17.709 16.0333 16.9816 16.1779C16.2542 16.3226 15.5002 16.2484 14.8149 15.9645C14.1297 15.6807 13.544 15.2001 13.132 14.5834C12.7199 13.9667 12.5 13.2417 12.5 12.5C12.5 11.5054 12.8951 10.5516 13.5983 9.84835C14.3016 9.14509 15.2554 8.75 16.25 8.75ZM11.25 21.25C11.25 20.2554 11.6451 19.3016 12.3483 18.5983C13.0516 17.8951 14.0054 17.5 15 17.5H17.5C18.4946 17.5 19.4484 17.8951 20.1517 18.5983C20.8549 19.3016 21.25 20.2554 21.25 21.25V23.75C21.25 24.0815 21.1183 24.3995 20.8839 24.6339C20.6495 24.8683 20.3315 25 20 25H12.5C12.1685 25 11.8505 24.8683 11.6161 24.6339C11.3817 24.3995 11.25 24.0815 11.25 23.75V21.25ZM27.5 31.25H12.5C12.1685 31.25 11.8505 31.1183 11.6161 30.8839C11.3817 30.6495 11.25 30.3315 11.25 30C11.25 29.6685 11.3817 29.3505 11.6161 29.1161C11.8505 28.8817 12.1685 28.75 12.5 28.75H27.5C27.8315 28.75 28.1495 28.8817 28.3839 29.1161C28.6183 29.3505 28.75 29.6685 28.75 30C28.75 30.3315 28.6183 30.6495 28.3839 30.8839C28.1495 31.1183 27.8315 31.25 27.5 31.25ZM27.5 25H25C24.6685 25 24.3505 24.8683 24.1161 24.6339C23.8817 24.3995 23.75 24.0815 23.75 23.75C23.75 23.4185 23.8817 23.1005 24.1161 22.8661C24.3505 22.6317 24.6685 22.5 25 22.5H27.5C27.8315 22.5 28.1495 22.6317 28.3839 22.8661C28.6183 23.1005 28.75 23.4185 28.75 23.75C28.75 24.0815 28.6183 24.3995 28.3839 24.6339C28.1495 24.8683 27.8315 25 27.5 25ZM27.5 18.75H25C24.6685 18.75 24.3505 18.6183 24.1161 18.3839C23.8817 18.1495 23.75 17.8315 23.75 17.5C23.75 17.1685 23.8817 16.8505 24.1161 16.6161C24.3505 16.3817 24.6685 16.25 25 16.25H27.5C27.8315 16.25 28.1495 16.3817 28.3839 16.6161C28.6183 16.8505 28.75 17.1685 28.75 17.5C28.75 17.8315 28.6183 18.1495 28.3839 18.3839C28.1495 18.6183 27.8315 18.75 27.5 18.75Z" fill="#00C0C9"/>
<path d="M27.5 10H33.025L26.25 3.22501V8.75001C26.25 9.08153 26.3817 9.39947 26.6161 9.63389C26.8505 9.86831 27.1685 10 27.5 10Z" fill="#00C0C9"/>
</svg>
