<svg width="16" height="17" viewBox="0 0 16 17" fill="none" xmlns="http://www.w3.org/2000/svg">
<path d="M7.97168 6.58724H8.02793C8.3097 6.58724 8.53939 6.81666 8.53939 7.09896C8.53939 7.39349 8.77793 7.63229 9.07272 7.63229C9.36751 7.63229 9.60606 7.39349 9.60606 7.09896C9.60606 6.40635 9.15486 5.82301 8.53314 5.61103V5.2414C8.53314 4.94687 8.2946 4.70807 7.99981 4.70807C7.70502 4.70807 7.46647 4.94687 7.46647 5.2414V5.61103C6.84476 5.82301 6.39356 6.40634 6.39356 7.09896V7.45521C6.39356 8.32526 7.10137 9.03333 7.99981 9.03333H8.02793C8.3097 9.03333 8.53939 9.26276 8.53939 9.54479V9.90104C8.53939 10.1833 8.3097 10.4128 8.02793 10.4128H7.97168C7.68991 10.4128 7.46022 10.1833 7.46022 9.90104C7.46022 9.60651 7.22168 9.3677 6.92689 9.3677C6.63209 9.3677 6.39355 9.6065 6.39355 9.90104C6.39355 10.5936 6.84476 11.1769 7.46647 11.3889V11.7586C7.46647 12.0531 7.70501 12.2919 7.9998 12.2919C8.29459 12.2919 8.53314 12.0531 8.53314 11.7586V11.3889C9.15485 11.1769 9.60605 10.5936 9.60605 9.90104V9.54479C9.60605 8.67474 8.89824 7.96666 7.9998 7.96666H7.97168C7.68991 7.96666 7.46022 7.73724 7.46022 7.4552V7.09895C7.46022 6.81666 7.68991 6.58724 7.97168 6.58724Z" fill="black"/>
<path d="M14.4 2.93723H1.6C0.71771 2.93723 0 3.65494 0 4.53723V12.4627C0 13.345 0.71771 14.0627 1.6 14.0627H14.4C15.2823 14.0627 16 13.345 16 12.4627V6.67056V4.53723C16 3.65494 15.2823 2.93723 14.4 2.93723ZM11.7759 12.9961H4.22409C3.98907 11.3646 2.69801 10.0737 1.06667 9.83869V7.16128C2.69802 6.92626 3.98907 5.63537 4.22409 4.00389H11.7759C12.011 5.63537 13.302 6.92626 14.9333 7.16128V9.83869C13.302 10.0737 12.011 11.3646 11.7759 12.9961ZM14.4 4.00389C14.6943 4.00389 14.9333 4.24322 14.9333 4.53723V6.08358C13.8901 5.87108 13.0661 5.04712 12.8537 4.00389H14.4ZM1.06667 4.53723C1.06667 4.24322 1.30573 4.00389 1.6 4.00389H3.14635C2.93385 5.04712 2.1099 5.87108 1.06667 6.08358V4.53723ZM1.6 12.9961C1.30573 12.9961 1.06667 12.7568 1.06667 12.4627V10.9164C2.1099 11.1289 2.93385 11.9529 3.14635 12.9961L1.6 12.9961ZM14.9333 12.4627C14.9333 12.7568 14.6943 12.9961 14.4 12.9961H12.8536C13.0661 11.9529 13.8901 11.1289 14.9333 10.9164L14.9333 12.4627Z" fill="black"/>
</svg>
